<?xml version="1.0" standalone="no"?>
<!DOCTYPE svg PUBLIC "-//W3C//DTD SVG 1.1//EN" "http://www.w3.org/Graphics/SVG/1.1/DTD/svg11.dtd" >
<svg>
<metadata>
Created by FontForge 20090622 at Fri Mar  1 18:02:02 2019
 By deploy user
Copyright (c) 2010 by vernon adams. All rights reserved.
</metadata>
<defs>
<font id="Nobile-MediumItalic" horiz-adv-x="1172" >
  <font-face 
    font-family="Nobile"
    font-weight="500"
    font-style="italic"
    font-stretch="normal"
    units-per-em="2048"
    panose-1="2 0 3 3 0 0 0 0 0 0"
    ascent="1638"
    descent="-410"
    x-height="1140"
    cap-height="1586"
    bbox="-116 -749 2860 2865"
    underline-thickness="40"
    underline-position="-292"
    slope="-12"
    unicode-range="U+000D-U+FB04"
  />
<missing-glyph horiz-adv-x="751" 
d="M73 0l192 1374h553l-192 -1374h-553zM175 82h371l170 1210h-372z" />
    <glyph glyph-name="uniFB00" unicode="ff" horiz-adv-x="1394" 
d="M1398 1424q-33 0 -60.5 -10.5t-48.5 -41t-36.5 -86t-25.5 -144.5h291l-12 -97h-293l-148 -1045h-200l148 1045h-441l-148 -1045h-200l148 1045h-152l11 97h154q17 133 52 220.5t84 139t110.5 72t131.5 20.5q36 0 68 -11t57 -25t41.5 -26.5t22.5 -15.5l-63 -153
q-58 61 -132 61q-33 0 -60.5 -10.5t-48.5 -41t-36.5 -86t-25.5 -144.5h440q17 133 52 220.5t84 139t110.5 72t131.5 20.5q36 0 68 -11t57 -25t41.5 -26.5t22.5 -15.5l-63 -153q-58 61 -132 61z" />
    <glyph glyph-name="uniFB01" unicode="fi" horiz-adv-x="1299" 
d="M1118 0h-204l148 1045h-488l-150 -1045h-200l149 1045h-152l12 97h153q16 133 50.5 220.5t84 139t111 72t131.5 20.5q36 0 68 -11t57 -25t41.5 -26.5t22.5 -15.5l-63 -153q-58 61 -132 61q-33 0 -60.5 -10.5t-49 -41.5t-36.5 -86t-24 -145h693zM1348 1488
q-1 -31 -12 -58.5t-29.5 -47.5t-43.5 -32t-53 -12q-46 0 -74.5 31.5t-27.5 77.5q0 30 11.5 57.5t30.5 49t44.5 34.5t53.5 13q45 0 73 -30t28 -76q0 -2 -0.5 -3.5t-0.5 -3.5z" />
    <glyph glyph-name="uniFB03" unicode="ffi" horiz-adv-x="1648" 
d="M758 1424q-29 0 -54.5 -11.5t-47.5 -43t-40 -86.5t-31 -142h291l-12 -97h-293l-149 -1044h-200l148 1044h-152l12 97h154q26 139 63 227t85 138t106 69t127 19q36 0 68 -11.5t57 -25.5t41.5 -26.5t22.5 -14.5l-64 -153q-3 1 -13.5 10.5t-27.5 20.5t-40 20.5t-51 9.5z
M1755 0h-204l148 1045h-488l-150 -1045h-200l149 1045h-152l12 97h153q16 133 50.5 220.5t84 139t111 72t131.5 20.5q36 0 68 -11t57 -25t41.5 -26.5t22.5 -15.5l-63 -153q-58 61 -132 61q-33 0 -60.5 -10.5t-49 -41.5t-36.5 -86t-24 -145h693zM1985 1488q-1 -31 -12 -58.5
t-29.5 -47.5t-43.5 -32t-53 -12q-46 0 -74.5 31.5t-27.5 77.5q0 30 11.5 57.5t30.5 49t44.5 34.5t53.5 13q45 0 73 -30t28 -76q0 -2 -0.5 -3.5t-0.5 -3.5z" />
    <glyph glyph-name="t_t" unicode="tt" horiz-adv-x="1437" 
d="M1182 136q28 0 52.5 6t48.5 17t49.5 26.5l54.5 34.5l67 -121l-85 -49.5t-72 -36t-72 -22t-84 -7.5q-50 0 -91 16t-70.5 46.5t-46.5 75t-20 101.5q-3 27 0 65q2 35 8 79.5t13 86.5l86 590h-478l-102 -702q-5 -34 -7.5 -61t-2.5 -47q0 -40 19 -69t56 -29q27 0 51.5 6
t48.5 17t49.5 26.5l54.5 34.5l67 -121l-61 -35t-63.5 -34t-65.5 -27t-66 -14q-36 -5 -77 -3q-91 4 -147.5 66t-60.5 171q-2 14 -1.5 30t1.5 35q2 35 8.5 79.5l12.5 86.5l86 590h-147l13 97h150l58 407l205 56l-66 -463h481l58 407l205 56l-66 -463h257l-14 -97h-257
l-101 -702q-5 -34 -7.5 -61t-2.5 -47q0 -40 19 -69t55 -29z" />
    <glyph glyph-name="f_j" unicode="fj" horiz-adv-x="1312" 
d="M736 -225q58 37 97.5 77t65.5 88.5t42 109t27 138.5l119 857h-518l-145 -1045h-200l144 1045h-152l12 96h154q21 135 57 222.5t84.5 139t109 71.5t130.5 20q36 0 68 -11t57 -25t41.5 -26.5t22.5 -15.5l-63 -153q-58 61 -132 61q-35 0 -61.5 -10.5t-47.5 -41t-37 -86
t-29 -145.5h728l-135 -975q-15 -105 -51 -194.5t-88.5 -158.5t-119.5 -116t-144 -66zM1366 1488q-1 -31 -12 -58.5t-29.5 -47.5t-43 -32t-52.5 -12q-48 0 -76 31.5t-28 77.5q0 30 11 57.5t30.5 49t44.5 34.5t54 13q45 0 73.5 -30t28.5 -76q0 -6 -1 -7z" />
    <glyph glyph-name=".notdef" horiz-adv-x="751" 
d="M73 0l192 1374h553l-192 -1374h-553zM175 82h371l170 1210h-372z" />
    <glyph glyph-name="uni0000" horiz-adv-x="1904" 
 />
    <glyph glyph-name="uni0000" horiz-adv-x="1904" 
 />
    <glyph glyph-name="uni000D" unicode="&#xd;" horiz-adv-x="639" 
 />
    <glyph glyph-name="space" unicode=" " horiz-adv-x="466" 
 />
    <glyph glyph-name="exclam" unicode="!" horiz-adv-x="611" 
d="M587 1584l-244 -1147h-123l89 1147h278zM384 0h-300l46 326h299z" />
    <glyph glyph-name="quotedbl" unicode="&#x22;" horiz-adv-x="826" 
d="M447 1585h251l-140 -591h-121zM313 1585h260l-139 -591h-114z" />
    <glyph glyph-name="numbersign" unicode="#" horiz-adv-x="1185" 
d="M691 460h-236l-85 -342h-143l84 342h-174l18 107h178l79 315h-181l20 106h185l88 346h142l-88 -346h237l86 344h144l-88 -344h169l-22 -106h-169l-80 -315h178l-17 -107h-184l-82 -342h-144zM477 567h233l80 315h-232z" />
    <glyph glyph-name="dollar" unicode="$" horiz-adv-x="1173" 
d="M1031 376q0 -103 -41.5 -180t-112 -128.5t-164.5 -77.5t-199 -26l-24 -143h-94l25 148q-91 7 -173.5 35t-151.5 63l69 165q0 -1 28 -15.5t70 -32t91.5 -31.5t93.5 -14l89 494l-97 45.5t-54 26.5q-47 27 -86 57t-67 67t-43.5 82.5t-15.5 104.5q0 65 20.5 116.5t55.5 91.5
t82.5 68.5t102 47t112.5 27.5t115 10l26 152h89l-27 -153q58 0 115.5 -13t104 -28.5t76 -28t31.5 -11.5l-66 -155l-68.5 22.5t-78.5 23.5t-77.5 18.5t-64.5 7.5l-71 -423l43 -18.5t46 -20.5q75 -35 130 -69.5t91 -76.5t53 -97t17 -131zM633 1215q-60 -2 -111 -12.5
t-88 -32.5t-57.5 -56t-20.5 -83q0 -39 12 -71.5t56 -62.5q19 -16 57.5 -37t84.5 -41zM546 136q71 1 127 13.5t95 39.5t59.5 69t20.5 102q0 43 -9 78t-34 64t-69 54t-114 48z" />
    <glyph glyph-name="percent" unicode="%" horiz-adv-x="1799" 
d="M1237 112q51 0 87.5 21t61.5 55t40.5 77.5t24 87.5t11 85.5t2.5 72.5q0 81 -32 128.5t-112 47.5q-45 0 -79 -19t-58.5 -50.5t-40 -72.5t-25 -85t-13 -87.5t-3.5 -79.5q0 -181 136 -181zM707 1261q0 37 -5.5 72.5t-21.5 63.5t-44 45.5t-73 17.5q-65 0 -107 -38.5
t-67.5 -97t-35.5 -127t-10 -128.5q0 -97 36 -142t106 -45q43 0 76 18t57.5 47.5t41.5 68.5t27.5 81.5t15 84.5t4.5 79zM401 -41l871 1711l120 -58l-875 -1708zM1599 508q0 -59 -9.5 -121.5t-28.5 -121.5t-48 -111.5t-69 -91.5t-90.5 -62t-112.5 -23q-81 0 -136 26t-88 69
t-47.5 99.5t-14.5 116.5q0 34 5.5 86.5t20 111.5t41 117.5t68 105.5t100.5 76.5t140 29.5q76 0 127.5 -25t83 -67t45 -98t13.5 -117zM848 1278q0 -42 -6.5 -97t-23 -113.5t-44.5 -115t-70 -101t-100 -71.5t-135 -27q-78 0 -130 28.5t-82.5 74t-43.5 102t-13 113.5
q0 56 8.5 115.5t27.5 117t48.5 108.5t70.5 90t95 61.5t121 22.5q77 0 130 -25t85.5 -67t47 -98t14.5 -118z" />
    <glyph glyph-name="ampersand" unicode="&#x26;" horiz-adv-x="1572" 
d="M663 902q14 5 27 9t27 9q45 18 86.5 40t73 52.5t50 72t17.5 99.5q0 73 -49.5 111.5t-140.5 38.5q-78 0 -124.5 -21t-70.5 -52t-31.5 -65t-7.5 -60q0 -39 16.5 -74.5t40 -65.5t47.5 -54zM1118 1209q0 -75 -24 -141.5t-69.5 -121t-110.5 -97t-146 -69.5l362 -371
q42 92 77 186.5t63 194.5l166 -1q-15 -68 -37 -138.5t-47.5 -136.5t-52 -123.5t-50.5 -99.5l197 -187l-109 -122l-175 179q-31 -43 -74 -79.5t-107 -63.5t-153 -42t-212 -15q-111 0 -203.5 23.5t-159.5 70t-105 115t-39 157.5q-1 86 25.5 164.5t78 144.5t126 117.5
t169.5 82.5l-55 58.5t-56 71t-43.5 82t-17.5 91.5q-1 55 21 117t73.5 114t135 86.5t204.5 34.5q82 0 147 -20.5t109.5 -57.5t68 -89t23.5 -115zM607 717q-70 -16 -127 -48t-97.5 -77t-62.5 -101.5t-22 -120.5q0 -63 24 -110t68 -77.5t106.5 -45.5t140.5 -15q83 0 145 8
t109.5 26t84.5 47t69 70z" />
    <glyph glyph-name="quotesingle" unicode="'" horiz-adv-x="566" 
d="M275 1580h273l-184 -607h-89v607z" />
    <glyph glyph-name="parenleft" unicode="(" horiz-adv-x="793" 
d="M854 1499q-70 -65 -142 -160t-130.5 -222.5t-95.5 -288t-37 -355.5q0 -117 16 -208.5t42 -161.5t58.5 -121t64.5 -86l-119 -125q-71 55 -121 137t-82 177.5t-47 196t-15 191.5q0 165 33 327.5t99 312.5t164.5 281t228.5 232z" />
    <glyph glyph-name="parenright" unicode=")" horiz-adv-x="798" 
d="M71 -104q103 95 179 214.5t126 253t74.5 275t24.5 281.5q0 126 -19.5 222.5t-47.5 167t-59 117t-53 72.5l118 127q70 -60 120.5 -139.5t82 -171t46.5 -191.5t15 -202q0 -167 -34.5 -331t-101 -313.5t-164 -279t-224.5 -227.5z" />
    <glyph glyph-name="asterisk" unicode="*" horiz-adv-x="912" 
d="M554 1324l174 269l106 -69l-195 -270h286l-19 -123h-280l111 -259l-134 -69l-94 247l-168 -247l-106 69l193 266h-282l19 125h281l-107 258l128 69z" />
    <glyph glyph-name="plus" unicode="+" horiz-adv-x="1005" 
d="M923 506h-285l-46 -336h-167l49 336h-284l23 163h283l49 336h163l-47 -336h285z" />
    <glyph glyph-name="comma" unicode="," horiz-adv-x="613" 
d="M98 0l46 326h298l-44 -324q-6 -63 -29 -109t-58 -78.5t-81 -54t-98 -36.5l-46 100q58 20 99 65t50 111h-137z" />
    <glyph glyph-name="hyphen" unicode="-" horiz-adv-x="874" 
d="M794 533h-612l22 154h611z" />
    <glyph glyph-name="period" unicode="." horiz-adv-x="552" 
d="M398 0h-300l46 326h298z" />
    <glyph glyph-name="slash" unicode="/" horiz-adv-x="977" 
d="M86 -90l837 1824l166 -70l-849 -1833z" />
    <glyph glyph-name="zero" unicode="0" horiz-adv-x="1292" 
d="M658 139q72 0 129.5 24t102.5 65t76.5 96t52.5 117.5t30.5 129t9.5 130.5q0 178 -70 261.5t-209 83.5q-104 0 -178 -46t-122 -122t-71.5 -173t-26.5 -200q-4 -66 7 -131.5t42.5 -117.5t87 -84.5t139.5 -32.5zM802 1215q125 0 213 -40t143.5 -108t81 -157t25.5 -188
q0 -90 -16.5 -180.5t-50 -174t-85 -156t-121.5 -126t-158.5 -84.5t-196.5 -31q-130 0 -218 44t-141 117.5t-76 169.5t-23 200q0 87 17.5 174t52 166.5t86 147.5t121 118.5t156 79t190.5 28.5z" />
    <glyph glyph-name="one" unicode="1" horiz-adv-x="690" 
d="M309 0l143 1011l-204 -67l-34 147l259 87h200l-166 -1178h-198z" />
    <glyph glyph-name="two" unicode="2" horiz-adv-x="1010" 
d="M805 869q0 47 -17.5 78.5t-47 51t-69 27.5t-82.5 8q-38 -1 -78 -9.5t-79 -20.5t-73.5 -24.5l-61.5 -21.5l-41 151q31 15 72 31.5t90 30t103.5 22.5t113.5 9q83 0 150.5 -21t115.5 -61t74 -99t26 -135q0 -126 -74 -244t-232 -240l-294 -224h471l-24 -178h-746l21 160
l344 276q70 56 131.5 110.5t107.5 108.5t72.5 107t26.5 107z" />
    <glyph glyph-name="three" unicode="3" horiz-adv-x="958" 
d="M433 630q94 0 155 23.5t96.5 59.5t49.5 80t14 85q0 84 -52.5 120t-167.5 36q-35 0 -73.5 -6t-76 -15.5t-72.5 -21.5t-62 -23l-41 156q25 12 62.5 26.5t81.5 27.5t93 21.5t96 8.5q76 0 148 -16t128.5 -52t90.5 -93.5t34 -139.5q0 -92 -30 -159t-75 -111t-97 -65.5
t-95 -23.5q40 -9 83 -30.5t78.5 -57.5t58.5 -88.5t23 -122.5q0 -98 -38 -179t-105.5 -140t-159 -91.5t-199.5 -32.5q-103 0 -192 25.5t-161 64.5l65 152q15 -6 46 -17t72 -22.5t90 -19.5t102 -8q81 0 135 22.5t86.5 58.5t46 80t13.5 88q0 106 -66.5 162.5t-206.5 69.5z" />
    <glyph glyph-name="four" unicode="4" horiz-adv-x="1078" 
d="M828 1201l189 -30l-130 -931h167l-24 -161h-167l-42 -309l-188 -22l48 331h-588v164zM292 238h411l109 686z" />
    <glyph glyph-name="five" unicode="5" horiz-adv-x="1044" 
d="M996 332q0 -119 -40.5 -217.5t-113 -168.5t-173.5 -108.5t-221 -38.5q-90 0 -179.5 21t-159.5 57l33 168q6 -4 32.5 -15.5t69 -24t98.5 -22t122 -9.5q75 0 140 21.5t112 64t74 106.5t27 150q0 214 -234 214q-36 0 -74 -6t-73 -15.5t-65.5 -20.5t-52.5 -21l-99 91l111 619
h698l-23 -173h-536l-74 -373q10 6 29 15t44 18t53 17t56 13q27 5 52.5 7.5t46.5 1.5q158 -8 239 -105.5t81 -265.5z" />
    <glyph glyph-name="six" unicode="6" horiz-adv-x="1188" 
d="M421 533q-5 -14 -9 -29.5t-8 -33.5q-7 -31 -12 -75t-5 -101q0 -279 238 -279q85 0 146.5 37t100.5 95t57.5 128.5t18.5 138.5q0 57 -16 101t-44.5 73t-68 44t-85.5 15q-72 0 -129.5 -18t-99.5 -39q-48 -26 -84 -57zM1142 419q0 -66 -14.5 -134.5t-43.5 -132.5t-73.5 -120
t-104.5 -98t-135.5 -66t-166.5 -24q-102 0 -179 35.5t-128 100.5t-76.5 156.5t-25.5 203.5q0 115 29.5 224t82.5 207.5t126.5 185t163 157t191.5 123.5t211 85l25 -173q-74 -16 -157 -54.5t-160 -97.5t-141 -137.5t-100 -174.5q52 55 127.5 87t169.5 32q91 0 161.5 -28.5
t119 -79.5t73.5 -122t25 -155z" />
    <glyph glyph-name="seven" unicode="7" horiz-adv-x="912" 
d="M968 1175l40 -138l-727 -1269l-172 90l671 1141h-615l12 176h791z" />
    <glyph glyph-name="eight" unicode="8" horiz-adv-x="1153" 
d="M744 1172q-84 0 -138 -25t-85 -64.5t-43 -88.5t-12 -97q0 -98 54 -144t163 -58q76 9 129 34t86.5 64t49 90.5t15.5 113.5q-1 175 -219 175zM662 562q-65 -9 -113 -30t-82 -50.5t-55 -65t-33 -72t-16.5 -72.5t-4.5 -66q0 -96 57 -137.5t171 -41.5q64 0 119.5 13t96 46
t63.5 89.5t23 143.5q-1 106 -57.5 168t-168.5 75zM278 901q-1 85 29.5 163t91 137t151.5 94.5t211 35.5q87 0 159 -20.5t123.5 -60.5t80 -98t29.5 -134q0 -63 -14.5 -114t-38 -92t-54 -72t-62.5 -53.5t-63 -37t-55 -21.5q6 -2 25 -9t43.5 -22t51 -38.5t49 -58t37 -81
t14.5 -106.5q1 -107 -37 -192t-107 -144.5t-165 -91.5t-210 -32q-83 0 -158 19t-131.5 58.5t-90 101t-34.5 145.5q-1 83 24 155.5t68.5 130.5t102.5 100t126 65q-33 12 -67.5 33t-63 53.5t-47 78.5t-18.5 108z" />
    <glyph glyph-name="nine" unicode="9" horiz-adv-x="1143" 
d="M897 518q4 13 10.5 40.5t12.5 61t9.5 70.5t2.5 69q-2 281 -238 281q-85 0 -146 -37.5t-100.5 -95.5t-58 -129t-18.5 -137q0 -57 15.5 -100t43.5 -71.5t65.5 -43.5t82.5 -16q24 -1 49.5 2t49.5 8q80 17 138.5 46t81.5 52zM176 632q0 64 14 131.5t42 131.5t72 121.5
t103 100.5t135 68t169 25q102 0 179.5 -30t130 -87t80 -139t28.5 -186q1 -124 -24 -241t-73.5 -223t-118.5 -198t-160.5 -166t-199 -127t-233.5 -80l-26 174q77 17 160 52t159 91t139 134.5t100 182.5q-119 -116 -291 -116q-89 0 -160.5 27t-121.5 77t-76.5 120.5
t-26.5 156.5z" />
    <glyph glyph-name="colon" unicode=":" horiz-adv-x="734" 
d="M246 644l47 304h290l-47 -304h-290zM157 0l47 305h289l-46 -305h-290z" />
    <glyph glyph-name="semicolon" unicode=";" horiz-adv-x="759" 
d="M178 0l45 326h297l-43 -310q-6 -67 -31.5 -116t-62.5 -84t-82 -57t-90 -35l-45 100q58 20 98.5 65t50.5 111h-137zM250 644l46 304h290l-46 -304h-290z" />
    <glyph glyph-name="less" unicode="&#x3c;" horiz-adv-x="1004" 
d="M883 861l-471 -281l394 -285l-34 -231l-553 413l28 199l670 413z" />
    <glyph glyph-name="equal" unicode="=" horiz-adv-x="970" 
d="M799 448h-610l23 162h610zM788 362h-611l23 162h610z" />
    <glyph glyph-name="greater" unicode="&#x3e;" horiz-adv-x="950" 
d="M286 856l30 233l554 -413l-25 -194l-671 -413l34 239l447 277z" />
    <glyph glyph-name="question" unicode="?" horiz-adv-x="1059" 
d="M840 1202q0 87 -57 123.5t-178 36.5q-39 0 -79 -6.5t-79.5 -17t-77.5 -23.5t-72 -26l-48 165q37 16 82 32t95 28.5t104.5 20.5t110.5 8q109 0 186 -23.5t125 -65t70 -99t22 -124.5q0 -88 -29 -163.5t-76.5 -138.5t-107.5 -113.5t-121.5 -89.5t-118.5 -66.5t-99 -43.5
l-28 -169h-190l32 268l34 16q16 8 38 18t48 23q63 30 135.5 71t134.5 94t103 119t41 146zM463 0h-299l45 326h299z" />
    <glyph glyph-name="at" unicode="@" horiz-adv-x="1913" 
d="M1096 1009q-50 -3 -97 -20t-90 -44.5t-79 -65t-63 -81.5q-32 -57 -50 -118t-18 -130q1 -94 42 -135.5t122 -41.5q75 0 134 32t105 92q40 51 71.5 118.5t52.5 152.5l57 228q-15 3 -35.5 6.5t-43 6.5t-45 5t-40.5 2q-13 0 -23 -7zM1279 230q-57 0 -82 26.5t-25 80.5
q0 12 3 32t8.5 44l12 51l13.5 54q-21 -54 -52 -106.5t-76.5 -94t-107.5 -67t-146 -25.5q-67 0 -120 21t-90 61t-57.5 97.5t-21.5 131.5q-1 88 23.5 167.5t67.5 147.5t101.5 124t125.5 96q63 38 131 58.5t137 20.5q18 0 45.5 -3.5t59 -9.5t63 -13.5t57 -16t41.5 -17t16 -15.5
q0 -2 4 -15.5l9 -29.5l9 -29.5t4 -14.5l-147 -619q64 4 114.5 28.5t88 64t63.5 90.5t42.5 107.5t23.5 115t7 113.5q-1 112 -36.5 196t-101.5 139t-161 82.5t-215 27.5q-101 0 -191.5 -28.5t-168 -79t-141 -119t-111.5 -149.5q-60 -100 -90.5 -212t-29.5 -230
q1 -111 38.5 -197.5t108 -146.5t172.5 -91.5t232 -31.5q82 0 149 12.5t119.5 32t92 42.5t66.5 44q1 -6 9.5 -23l18 -35.5l18 -35t9.5 -22.5q-29 -25 -76 -55t-111.5 -55.5t-146.5 -42.5t-182 -17q-155 0 -281.5 41.5t-217 119.5t-140.5 190.5t-51 253.5q-1 123 30 244.5
t89 231.5t141 204.5t185 162.5q108 72 227.5 110.5t253.5 38.5q138 0 259 -37t211 -110.5t142 -184.5t53 -259q1 -80 -13.5 -160.5t-44.5 -154.5t-74 -138t-101.5 -111.5t-128.5 -75t-155 -27.5z" />
    <glyph glyph-name="A" unicode="A" horiz-adv-x="1317" 
d="M877 1403l-163 -362l-245 -538h531l-75 529zM757 1586h288l244 -1586h-215l-55 387h-600l-175 -387h-218z" />
    <glyph glyph-name="B" unicode="B" horiz-adv-x="1279" 
d="M672 925q109 0 189.5 16t134 52t80 95t26.5 146q0 55 -31 91t-85.5 57t-129 29.5t-160.5 8.5h-155l-70 -495h201zM562 166q117 0 209.5 16.5t157 57t98.5 110t34 174.5q0 49 -12.5 94t-53.5 79.5t-119 54.5t-209 20h-217l-86 -606h198zM1267 525q0 -121 -43.5 -218
t-133.5 -165.5t-228.5 -105t-328.5 -36.5h-407l225 1586h346q163 0 276.5 -20t184.5 -61t103 -102.5t32 -144.5q0 -89 -21 -155t-64.5 -113t-109.5 -77.5t-155 -48.5q162 -23 243.5 -106.5t80.5 -232.5z" />
    <glyph glyph-name="C" unicode="C" horiz-adv-x="1190" 
d="M197 541q0 138 21.5 271.5t64 253t106 220t147.5 174t189 114.5t230 41q54 0 102.5 -6t96 -17.5t97 -27.5l106.5 -36l-75 -174q-86 34 -162.5 56t-157.5 22q-94 0 -171 -33.5t-137.5 -93.5t-104.5 -142.5t-73 -179.5t-43 -205.5t-14 -220.5q0 -212 84 -313.5t249 -101.5
q38 0 82 9t91.5 24t96 34.5l96.5 40.5l36 -167l-100.5 -46t-103.5 -39.5t-110 -27.5t-119 -10q-254 0 -389 146.5t-135 434.5z" />
    <glyph glyph-name="D" unicode="D" horiz-adv-x="1371" 
d="M1172 993q0 220 -82 323.5t-254 103.5h-292l-180 -1255h307q104 0 181.5 39.5t133 105t92 151t57.5 177.5t29 184t8 171zM1391 994q0 -96 -13 -207t-44.5 -221.5t-85.5 -212.5t-136 -180.5t-195.5 -125.5t-263.5 -47h-527l225 1586h506q129 0 228.5 -35.5t167.5 -108
t103 -184t35 -264.5z" />
    <glyph glyph-name="E" unicode="E" horiz-adv-x="1109" 
d="M1053 0h-927l223 1586h914l-25 -166h-698l-72 -513h614l-20 -143h-615l-85 -599h717z" />
    <glyph glyph-name="F" unicode="F" horiz-adv-x="1086" 
d="M448 755l-108 -755h-214l225 1586h903l-23 -174h-690l-73 -514h626l-19 -143h-627z" />
    <glyph glyph-name="G" unicode="G" horiz-adv-x="1401" 
d="M197 555q0 117 18.5 241t58 241.5t101.5 222.5t149.5 184t202.5 125t259 46q97 -1 203 -32.5t217 -103.5l-77 -158q-101 50 -186.5 80.5t-171.5 30.5q-109 0 -192 -41t-145 -109t-103.5 -157.5t-66.5 -185.5t-36 -193t-11 -181q0 -113 22.5 -193.5t66 -131.5t108.5 -75
t149 -24q80 0 145.5 19t113.5 51t78.5 74.5t40.5 89.5q2 6 2.5 11.5t1.5 11.5l37 277h-364l23 154h551l-117 -829h-123l-4 164q-21 -33 -56 -69t-86.5 -66t-120.5 -49.5t-158 -19.5q-257 0 -393.5 146.5t-136.5 448.5z" />
    <glyph glyph-name="H" unicode="H" horiz-adv-x="1425" 
d="M1065 0l107 754h-725l-107 -754h-215l227 1586h214l-98 -689h724l99 689h214l-227 -1586h-213z" />
    <glyph glyph-name="I" unicode="I" horiz-adv-x="860" 
d="M142 122h184l193 1335h-183l20 129h580l-20 -129h-186l-193 -1335h186l-20 -122h-579z" />
    <glyph glyph-name="J" unicode="J" horiz-adv-x="715" 
d="M61 63q77 17 131.5 36.5t92 43.5t60 54t37 68.5t22.5 86.5t16 108l159 1126h213l-149 -1064q-14 -98 -31 -179t-43.5 -146t-64.5 -114.5t-94 -85t-133 -57t-180 -30.5z" />
    <glyph glyph-name="K" unicode="K" horiz-adv-x="1222" 
d="M1189 1586h224l-606 -787l79 -146l364 -653h-233l-405 734h-167l-102 -734h-215l223 1586h214l-100 -715h174z" />
    <glyph glyph-name="L" unicode="L" horiz-adv-x="1049" 
d="M1017 0h-889l223 1586h214l-200 -1421h673z" />
    <glyph glyph-name="M" unicode="M" horiz-adv-x="1769" 
d="M766 0l-61 352l-174 1036l-197 -1388h-206l166 1182l60 404h324l69 -404l99 -598l58 -357l142 318l311 684l163 357h327l-77 -580l-143 -1006h-207l196 1390l-535 -1194l-90 -196h-225z" />
    <glyph glyph-name="N" unicode="N" horiz-adv-x="1507" 
d="M1359 0h-287l-183 452l-362 911l-191 -1363h-208l225 1586h289l181 -451l363 -912l190 1363h208z" />
    <glyph glyph-name="O" unicode="O" horiz-adv-x="1457" 
d="M1476 1024q0 -236 -57 -431.5t-159 -336t-242 -218.5t-306 -78q-119 0 -214 34.5t-162 105.5t-103 178.5t-36 254.5q0 154 25.5 294.5t72.5 260.5t114.5 217t151.5 166t183.5 106t210.5 37q136 0 234.5 -41t162 -117.5t94 -186t30.5 -245.5zM1256 1027q0 89 -17 163.5
t-55 128t-99.5 83.5t-150.5 30q-87 0 -159 -35.5t-129.5 -98t-100 -147.5t-70.5 -184.5t-42 -208.5t-14 -220q0 -201 81 -298.5t239 -97.5q86 0 157.5 34.5t129 95.5t100.5 145t72 182t43.5 207t14.5 221z" />
    <glyph glyph-name="P" unicode="P" horiz-adv-x="1230" 
d="M589 789q148 0 250.5 22.5t166 69.5t92 120.5t28.5 174.5q0 83 -31 131.5t-86 73.5t-130.5 32t-163.5 7h-173l-88 -631h135zM352 1586h379q165 0 279.5 -23t185.5 -70.5t103 -121t32 -173.5q-1 -168 -55.5 -277.5t-154.5 -174.5t-241.5 -91t-315.5 -26h-135l-89 -629
h-214z" />
    <glyph glyph-name="Q" unicode="Q" horiz-adv-x="1462" 
d="M421 610q-2 -57 1.5 -106.5t11.5 -91.5q26 -141 104.5 -206t212.5 -65q109 0 191 45.5t141 123.5t96.5 181t57.5 218q14 81 20.5 155.5t6.5 140.5q0 219 -83 323t-249 104q-95 0 -168.5 -36t-129.5 -97t-95 -143t-64.5 -173t-38 -187t-15.5 -186zM1481 1009
q0 -55 -5 -124.5t-17.5 -146t-33.5 -156.5t-54 -157.5t-78 -149t-106 -130.5t-138 -101.5t-174 -62.5l283 -282l-126 -124l-392 392q-98 13 -179.5 53t-140 111.5t-91 178t-32.5 252.5q0 72 7.5 155.5t25.5 171t47 175.5t72 168.5t100.5 150.5t132.5 121.5t168.5 81
t207.5 29.5q109 0 204 -32t166 -104t112 -187.5t41 -282.5z" />
    <glyph glyph-name="R" unicode="R" horiz-adv-x="1287" 
d="M963 0l21 156.5l15.5 117.5t11.5 84t8 58t4.5 39t2.5 27q0 56 -13 94q-14 57 -52.5 85.5t-107.5 42.5q-46 14 -107.5 20t-142.5 6h-158l-106 -730h-214l228 1586h387q81 0 152.5 -3.5t132.5 -14.5q66 -12 121 -35t94.5 -61t62 -93t22.5 -132q0 -120 -41 -203.5
t-105.5 -136.5t-143 -78t-153.5 -26q87 -9 153 -30.5t111 -58.5t68.5 -90.5t24.5 -126.5q0 -9 -2 -28.5l-7 -65.5q-8 -65 -21 -161.5l-33 -241.5h-213zM582 874q117 0 217 10.5t173.5 45.5t115.5 101t42 178q0 72 -31 113.5t-84.5 63.5t-124 28t-149.5 6h-198l-78 -546h117z
" />
    <glyph glyph-name="S" unicode="S" horiz-adv-x="1239" 
d="M1207 1320q-22 17 -61.5 36.5t-88.5 36.5t-104 28t-107 11q-100 0 -170 -18t-114.5 -51t-64.5 -80t-20 -105q0 -40 12 -68.5t36 -50.5t59.5 -40t82.5 -36l234 -91q71 -28 125.5 -63.5t91.5 -81t56 -103t19 -129.5q0 -110 -36 -210.5t-111 -177t-190 -122t-272 -45.5
q-70 0 -137 10t-124.5 25t-100.5 33t-65 35l44 184q37 -23 77.5 -42.5t87 -33.5t99.5 -21.5t115 -7.5q200 0 298 81t98 250q0 42 -11.5 74t-34 57.5t-54.5 45t-74 36.5l-252 106q-68 28 -124 63q-82 51 -123 122.5t-41 161.5q0 112 46 200t122 149.5t175 94t205 32.5
q69 0 134 -8.5t122.5 -24t105.5 -36t84 -44.5z" />
    <glyph glyph-name="T" unicode="T" horiz-adv-x="1027" 
d="M1227 1420h-418l-199 -1420h-213l199 1420h-420l24 166h1050z" />
    <glyph glyph-name="U" unicode="U" horiz-adv-x="1412" 
d="M723 131q102 0 175 29t124.5 97t85.5 180t58 278l124 871h214l-122 -867q-32 -226 -95.5 -372.5t-152 -232.5t-199 -120t-235.5 -34q-123 0 -218.5 37t-161.5 110.5t-100.5 182t-34.5 251.5v25.5t1 30t3.5 38t6.5 50.5q7 58 17.5 137l25.5 187l34.5 250l45.5 327h214
l-46 -331l-35 -254l-26 -190.5t-18 -140.5q-4 -31 -6.5 -53.5t-3.5 -39.5t-1.5 -30t-0.5 -25q0 -88 16.5 -160t54.5 -123.5t100.5 -79.5t155.5 -28z" />
    <glyph glyph-name="V" unicode="V" horiz-adv-x="1233" 
d="M273 1585l187 -1396l587 1397h215l-681 -1586h-282l-231 1585h205z" />
    <glyph glyph-name="W" unicode="W" horiz-adv-x="1977" 
d="M953 1583h299l71 -1395l463 1398h205l-551 -1586h-289l-58 1406l-493 -1406h-300l-23 1586h195l14 -1401z" />
    <glyph glyph-name="X" unicode="X" horiz-adv-x="1240" 
d="M849 801l338 -801h-241l-241 630l-442 -630h-241l585 801l-340 785h226l259 -622l452 622h227z" />
    <glyph glyph-name="Y" unicode="Y" horiz-adv-x="1158" 
d="M657 713l491 869h219l-632 -1086l-69 -496h-211l72 519l-318 1063h204z" />
    <glyph glyph-name="Z" unicode="Z" horiz-adv-x="1130" 
d="M1289 1582l-24 -173l-934 -1243h760l-22 -166h-980l27 197l923 1223h-751l22 162h979z" />
    <glyph glyph-name="bracketleft" unicode="[" horiz-adv-x="1165" 
d="M488 1575h638l-23 -172h-428l-178 -1231h428l-23 -172h-640z" />
    <glyph glyph-name="backslash" unicode="\" horiz-adv-x="921" 
d="M513 1723l331 -1853l-178 -34l-333 1857z" />
    <glyph glyph-name="bracketright" unicode="]" horiz-adv-x="1129" 
d="M425 1575h637l-222 -1575h-640l23 172h428l176 1231h-425z" />
    <glyph glyph-name="asciicircum" unicode="^" horiz-adv-x="1461" 
d="M797 966h140l131 -558h-164l-66 318l-179 -318h-184z" />
    <glyph glyph-name="underscore" unicode="_" horiz-adv-x="1168" 
d="M982 -108h-891l23 171h892z" />
    <glyph glyph-name="grave" unicode="`" horiz-adv-x="713" 
d="M463 148h-106l-231 643h297z" />
    <glyph glyph-name="a" unicode="a" horiz-adv-x="1125" 
d="M1139 1049l-152 -1049h-153l-5 190q-26 -48 -60.5 -87t-76.5 -66.5t-90.5 -42t-100.5 -14.5q-95 0 -161 32.5t-108 89.5t-61 133.5t-19 165.5q0 80 20.5 168t59 172.5t93 160.5t122 133.5t147 91.5t167.5 34q46 0 94.5 -9t93.5 -22.5t82.5 -29t61.5 -28.5zM351 414
q0 -147 50.5 -212.5t154.5 -65.5q46 0 88 16.5t77.5 41.5t63 54t43.5 53l101 672q-3 2 -18 7t-37.5 10.5t-50 10t-54.5 4.5q-51 0 -101.5 -22t-97 -61.5t-86.5 -94.5t-69.5 -120.5t-46.5 -140t-17 -152.5z" />
    <glyph glyph-name="b" unicode="b" horiz-adv-x="1121" 
d="M1123 692q-3 -78 -18 -161t-42.5 -162t-69 -149.5t-96.5 -124t-124.5 -84.5t-154.5 -31q-100 0 -172.5 51.5t-115.5 148.5l-61 -180h-141l232 1635l206 22l-109 -757q22 48 61.5 95t88 83.5t103.5 59.5t108 23q91 0 150.5 -35.5t94.5 -95t49 -138t14 -165.5
q0 -8 -1 -16.5t-2 -18.5zM616 136q65 0 114 35.5t83.5 91.5t57 125t36 136.5t18.5 125.5t5 92q0 50 -3.5 97.5t-18.5 84t-45.5 58.5t-83.5 22q-32 0 -65.5 -12.5t-66 -33.5t-63.5 -48t-58.5 -56.5t-51 -58.5t-40.5 -54l-3 -20l-63 -437q1 -4 18 -27.5t48.5 -50.5t77 -48.5
t104.5 -21.5z" />
    <glyph glyph-name="c" unicode="c" horiz-adv-x="973" 
d="M153 424q0 168 48 304t128.5 232.5t186 148.5t219.5 52q103 0 184 -29t153 -87l-78 -152q-16 20 -44 40t-62 35.5t-72 25.5t-75 10q-78 0 -137.5 -30t-103 -81.5t-72 -120.5t-44.5 -146q-12 -52 -17.5 -102t-5.5 -95q-1 -148 58.5 -220.5t170.5 -72.5q57 0 111 16t99 40
q24 13 47 29l46 33l28 -149q-94 -62 -185 -93t-193 -32q-83 1 -154.5 27.5t-124 80.5t-82.5 137.5t-29 198.5z" />
    <glyph glyph-name="d" unicode="d" horiz-adv-x="1123" 
d="M651 1161q51 0 94 -16.5t77 -41.5t59 -55.5t40 -58.5l91 644l206 24l-237 -1657h-140l-10 179q-31 -42 -69.5 -78.5t-82.5 -63.5t-92 -42t-98 -15q-93 0 -157.5 34t-104.5 93t-58 138t-18 169q0 77 13 162.5t40 168.5t68 158t96.5 132.5t126 91.5t156.5 34zM350 446
q-2 -27 -1 -54.5t5 -53.5q5 -42 17 -79t33 -64.5t52.5 -43t75.5 -15.5q46 0 89.5 14.5t81 37t68 48.5t50.5 49l27.5 197l20 144.5l14.5 101.5t9.5 67.5t6 41.5t4.5 25l-23.5 28t-52 48.5t-77 45.5t-99.5 20q-58 0 -102.5 -29.5t-77.5 -77t-55.5 -107.5t-37 -122t-21 -120.5
t-7.5 -101.5z" />
    <glyph glyph-name="e" unicode="e" horiz-adv-x="1068" 
d="M394 665q129 13 217.5 25t146 23.5t89 22t46 20t17 18t2.5 15.5q0 109 -47.5 164.5t-132.5 55.5q-64 0 -119 -24t-98.5 -68.5t-74 -108.5t-46.5 -143zM948 95q-88 -57 -186 -86t-186 -29q-103 0 -182 30t-133 86t-81.5 137t-27.5 183q0 88 17 177.5t50.5 172t82.5 155
t113 126t143 84.5t172 31q186 0 272.5 -99t86.5 -286q0 -19 -4 -41t-25 -44.5t-65 -45t-123.5 -42.5t-200.5 -37t-296 -29q-5 -35 -8 -67t-3 -60q0 -140 68 -209t188 -69q78 0 149.5 31.5t143.5 85.5z" />
    <glyph glyph-name="f" unicode="f" horiz-adv-x="753" 
d="M758 1424q-29 0 -54.5 -11.5t-47.5 -43t-40 -86.5t-31 -142h291l-12 -97h-293l-149 -1044h-200l148 1044h-152l12 97h154q26 139 63 227t85 138t106 69t127 19q36 0 68 -11.5t57 -25.5t41.5 -26.5t22.5 -14.5l-64 -153q-3 1 -13.5 10.5t-27.5 20.5t-40 20.5t-51 9.5z" />
    <glyph glyph-name="g" unicode="g" horiz-adv-x="1108" 
d="M421 781q0 -47 17 -81.5t44 -58t59.5 -35.5t64.5 -13q75 4 128 22.5t86.5 50t49 75t15.5 99.5q0 42 -16 74.5t-44 54t-65.5 33t-79.5 11.5q-69 0 -118.5 -16.5t-80.5 -46.5t-45.5 -73t-14.5 -96zM226 -131q0 -78 73 -112.5t231 -34.5q175 0 262 45.5t87 142.5
q0 40 -20 68t-52.5 46.5t-74.5 30t-87 18.5l-236 33q-87 -57 -135 -118.5t-48 -118.5zM1063 837q0 -151 -101.5 -249t-303.5 -146l-252 -56q-92 -20 -102 -65q9 -30 47.5 -47.5t90 -28t109 -17t104.5 -13.5q101 -17 176 -40t125 -58t74.5 -85t24.5 -120q0 -64 -22.5 -114.5
t-62 -88.5t-93.5 -65.5t-115.5 -44.5t-129 -25t-134.5 -8q-101 0 -182.5 19t-140 53.5t-90 82t-31.5 103.5q4 77 30 129t67 90q18 17 40.5 33.5l43 30.5l36 24t19.5 14l-16 7q-17 6 -38 19t-41 30.5t-26 38.5q-18 43 -15 97q3 63 51 103.5t148 65.5l102 26q-38 7 -76.5 26
t-70 50.5t-51.5 74.5t-20 99q0 78 28.5 147t83.5 120.5t135 81.5t184 30q83 0 146.5 -17.5t120.5 -58.5q55 26 100 41.5t90 23.5q33 9 64 13.5t65 7.5l-7 -172h-246q34 -54 48 -92t14 -70z" />
    <glyph glyph-name="h" unicode="h" horiz-adv-x="1173" 
d="M571 1660l-97 -685q46 46 88.5 81t86 58.5t90 35t102.5 11.5q74 0 133 -19.5t99.5 -59.5t62 -100.5t21.5 -142.5q0 -31 -2.5 -63.5t-8.5 -69.5l-99 -706h-208l100 708q3 20 5 44t2 48q0 103 -40 153.5t-125 50.5q-53 0 -103 -15.5t-93 -38t-76 -47.5t-51 -44l-122 -859
h-208l231 1636z" />
    <glyph glyph-name="i" unicode="i" horiz-adv-x="561" 
d="M609 1488q-2 -31 -13 -58.5t-29.5 -47.5t-43 -32t-52.5 -12q-46 0 -74.5 31.5t-27.5 77.5q0 30 11.5 57.5t30.5 49t44.5 34.5t53.5 13q45 0 72.5 -30t27.5 -76v-7zM378 0h-203l161 1141h205z" />
    <glyph glyph-name="j" unicode="j" horiz-adv-x="607" 
d="M660 1488q-1 -31 -12 -58.5t-30 -47.5t-43.5 -32t-52.5 -12q-48 0 -75.5 31.5t-27.5 77.5q0 30 11 57.5t30.5 49t44.5 34.5t54 13q45 0 73 -30t28 -76q1 -2 0.5 -3.5t-0.5 -3.5zM30 -225q58 37 97.5 77t65.5 88.5t42 109t27 138.5l132 953h210l-135 -975
q-15 -105 -51 -194.5t-88.5 -158.5t-119.5 -116t-144 -66z" />
    <glyph glyph-name="k" unicode="k" horiz-adv-x="1042" 
d="M390 423l-62 -423h-200l232 1635l205 22l-146 -1033l532 517h230l-547 -531l387 -610h-210l-319 505z" />
    <glyph glyph-name="l" unicode="l" horiz-adv-x="512" 
d="M588 1657l-237 -1657h-200l232 1633z" />
    <glyph glyph-name="m" unicode="m" horiz-adv-x="1714" 
d="M1445 1161q132 0 193.5 -74.5t60.5 -226.5q0 -8 -1 -19.5t-4.5 -41t-10.5 -83.5l-20 -147l-32.5 -231.5l-47.5 -337.5h-201l49 337.5l33 231l20 146l10.5 82t4 38.5t0.5 17q0 76 -25.5 114t-90.5 38q-85 0 -166.5 -59.5t-145.5 -192.5l-4 -28l-105 -724h-198l43.5 304.5
l31.5 223l22 157l15 107.5q4 27 4.5 39.5t0.5 22.5q0 76 -25.5 113t-89.5 37q-41 0 -85 -17t-87 -50t-83.5 -81t-75.5 -110q-2 -8 -2.5 -16t-2.5 -16l-102 -714h-200l163 1142h150l9 -234q31 62 73 109.5t90.5 79.5t101 48t104.5 16q121 0 182.5 -63t69.5 -199q31 74 75 124
t94 81t103 44t102 13z" />
    <glyph glyph-name="n" unicode="n" horiz-adv-x="1164" 
d="M831 0l40 283.5l29.5 207.5l20.5 146.5t13 101.5q3 26 3.5 39t0.5 23q0 47 -8 84.5t-26 64t-48.5 40.5t-75.5 14q-39 0 -86 -16t-92.5 -39.5t-84 -49.5t-59.5 -46l-120 -853h-210l162 1141h153l8 -176q31 36 77.5 71t100.5 62.5t111 45t109 17.5q301 0 301 -317
q0 -11 -0.5 -21t-2 -23.5l-3.5 -31.5l-5 -43l-14.5 -113.5l-20.5 -152l-28 -200.5l-37 -259h-208z" />
    <glyph glyph-name="o" unicode="o" horiz-adv-x="1154" 
d="M153 429q0 84 15 171.5t46.5 168.5t79.5 152.5t114 125t150 84t188 30.5q118 0 197.5 -36.5t127.5 -98t68.5 -142t20.5 -168.5q0 -149 -42 -283t-119.5 -234.5t-187.5 -159.5t-245 -59q-95 0 -171 30.5t-130 88.5t-83 141.5t-29 188.5zM591 136q68 0 122 25.5t94.5 68.5
t69 100t46.5 120t26 128.5t8 125.5q0 64 -12 119t-39.5 95t-72 63t-110.5 23q-70 0 -124.5 -27.5t-95.5 -73t-69 -104.5t-45.5 -122.5t-25 -127t-7.5 -116.5q0 -63 12 -117.5t39.5 -94t72.5 -62.5t111 -23z" />
    <glyph glyph-name="p" unicode="p" horiz-adv-x="1171" 
d="M1176 714q0 -87 -14.5 -175t-43.5 -169.5t-73 -152.5t-103 -123.5t-133.5 -83t-165.5 -30.5q-45 0 -87 13t-78 36.5t-64.5 55t-47.5 67.5l-86 -602l-212 -17l228 1608h160l9 -184q36 43 77.5 80.5t86.5 65t91.5 43t91.5 15.5q82 0 149 -25.5t115 -79.5t74 -139t26 -203z
M968 679q3 75 -8 139q-16 96 -59.5 141t-115.5 45q-75 0 -157.5 -35.5t-161.5 -107.5l-81 -573q20 -31 52 -58.5t69 -48.5t76 -33t72 -12q62 0 109.5 26t82 69t57.5 99t37 116.5t20.5 121t7.5 111.5z" />
    <glyph glyph-name="q" unicode="q" horiz-adv-x="1136" 
d="M676 1161q57 0 103 -19t81 -48t59 -65t37 -69l59 182h154l-229 -1604l-202 -17l90 629q-29 -37 -65.5 -68t-77.5 -53.5t-84.5 -35.5t-85.5 -13q-97 0 -162.5 37.5t-105.5 99t-57 141t-17 162.5q0 66 10 139.5t31 147.5t52 144t73 128q60 82 143 132t194 50zM371 445
q-2 -32 -1 -62t4 -59q6 -40 18 -74.5t32.5 -59.5t50.5 -39.5t71 -14.5q46 0 90 14t83 36t72 48t56 50l79 563q-16 23 -41.5 50.5t-58.5 51t-73.5 39.5t-85.5 16t-84 -22t-71 -61t-57.5 -92t-43.5 -115.5t-28 -131t-12 -137.5z" />
    <glyph glyph-name="r" unicode="r" horiz-adv-x="722" 
d="M451 907q32 57 72.5 103.5t83 79t84.5 50.5t77 19q27 1 52.5 -2t31.5 -3l-21 -186q-5 2 -25.5 5.5t-40.5 3.5q-47 0 -93.5 -19.5t-89.5 -49.5t-80 -65t-64 -66l-110 -777h-200l162 1141h152z" />
    <glyph glyph-name="s" unicode="s" horiz-adv-x="925" 
d="M187 846q0 76 30.5 135t84.5 99t128 60.5t160 20.5q51 0 101 -10t96.5 -26.5t88 -37.5t74.5 -42l-65 -139q-23 13 -56.5 30t-73 32t-82.5 25t-86 10q-100 0 -158.5 -33t-58.5 -99q0 -27 6 -46.5t19.5 -34.5t35.5 -27.5t54 -25.5l140 -57q51 -21 99 -47t85 -61t59.5 -80
t22.5 -104q0 -96 -35.5 -172t-95.5 -128.5t-139.5 -80t-166.5 -27.5q-65 0 -122 10.5t-104 28t-84 39t-61 42.5l63 133q19 -15 49.5 -32t69.5 -31t85.5 -23.5t99.5 -9.5q54 0 99.5 14t78 40.5t51 66t18.5 90.5q0 23 -7 41.5t-22.5 35t-41 31.5t-62.5 31l-147 62
q-57 24 -100.5 51t-72 62t-43 79.5t-14.5 104.5z" />
    <glyph glyph-name="t" unicode="t" horiz-adv-x="759" 
d="M505 136q34 0 70 13t66 29q36 19 68 42l67 -121q-1 0 -27.5 -18t-70 -39.5t-99.5 -39.5t-116 -18q-50 0 -90.5 16t-70.5 46.5t-47 75t-20 101.5q-2 11 -1.5 24.5t2.5 37.5q1 36 12 104l94 655h-147l13 97h150l58 407l205 56l-66 -463h258l-15 -97h-256l-110 -787
q-8 -58 14.5 -89.5t58.5 -31.5z" />
    <glyph glyph-name="u" unicode="u" 
d="M495 1141q-2 -13 -8 -58l-15 -109l-19 -140.5l-20.5 -153.5l-20 -147.5l-16.5 -122.5l-5 -42.5t-2 -21.5q-1 -63 15 -105q16 -52 54 -78t95 -27q81 1 155.5 37t149.5 105l122 863h208l-160 -1141h-152q-3 45 -6.5 87t-5.5 87q-79 -94 -166 -144t-184 -50q-336 0 -336 334
q0 14 7 71.5l17 136.5l17 127l17.5 130.5l16.5 124.5l14.5 108.5t11.5 82.5t7 46h209z" />
    <glyph glyph-name="v" unicode="v" horiz-adv-x="966" 
d="M596 0h-233l-184 1141h189l135 -961l385 961h204z" />
    <glyph glyph-name="w" unicode="w" horiz-adv-x="1416" 
d="M884 0l-48 931l-327 -931h-214l-114 1140h183l73 -942l321 942h196l63 -941l339 941h187l-441 -1140h-218z" />
    <glyph glyph-name="x" unicode="x" horiz-adv-x="1003" 
d="M573 435l-306 -435h-222l447 571l-279 570h227l171 -423l308 423h220l-447 -570l267 -571h-216z" />
    <glyph glyph-name="y" unicode="y" horiz-adv-x="1029" 
d="M64 -309q35 7 65.5 15t56.5 20q84 35 144.5 114.5t108.5 193.5l-25 111l-228 996h198l175 -863l382 863h208l-507 -1080l-70.5 -146t-85.5 -142.5t-109 -122t-140 -84.5q-31 -11 -65 -19t-72 -12z" />
    <glyph glyph-name="z" unicode="z" horiz-adv-x="866" 
d="M730 985h-487l20 156h679l-24 -179l-629 -806h506l-6 -156h-706l23 181z" />
    <glyph glyph-name="braceleft" unicode="{" horiz-adv-x="895" 
d="M578 1002q-11 -79 -31.5 -139t-49 -103t-63.5 -70.5t-75 -41.5q55 -25 92 -86.5t38 -166.5q0 -48 -6.5 -95t-7.5 -98q-1 -42 3 -80.5t15 -68t29.5 -48.5t47.5 -23q4 -9 12 -12.5t17.5 -5t18 -1t12.5 0.5l-25 -175q-3 0 -10.5 -0.5t-17 -1.5t-19.5 -1.5t-17 -0.5
q-59 2 -108 29t-84 75t-55 114t-20 147q0 55 8 112.5t10 117.5q0 25 -2 46t-6 40q-18 87 -85 87l27 189q63 0 103 69.5t60 220.5q13 99 38 173t59 126.5t75.5 86.5t87.5 53.5t95 27t98 7.5l-23 -175q-28 0 -53.5 -1.5t-48.5 -11t-43.5 -29.5t-38 -56.5t-32 -92.5t-25.5 -138
z" />
    <glyph glyph-name="bar" unicode="|" horiz-adv-x="608" 
d="M232 -113l192 1813h195l-191 -1813h-196z" />
    <glyph glyph-name="braceright" unicode="}" horiz-adv-x="892" 
d="M475 878q0 37 4 73t9.5 73t9.5 74.5t4 76.5q0 51 -9 82t-27 47.5t-46 21.5t-65 5l27 175q58 0 112 -12.5t96 -47.5t67.5 -97.5t25.5 -162.5q0 -31 -4 -71t-9 -82t-9 -81t-4 -67q2 -143 82 -143l-28 -189q-59 0 -98 -69.5t-62 -220.5q-16 -101 -42 -175.5t-59 -127
t-72.5 -86t-82.5 -52.5t-88 -26t-89 -7l26 175q43 0 77.5 8t63 40.5t51 98.5t40.5 182q12 81 34.5 141.5t51 103.5t62 70t66.5 40q-54 23 -84.5 77.5t-30.5 152.5z" />
    <glyph glyph-name="asciitilde" unicode="~" horiz-adv-x="814" 
d="M630 131q-47 0 -94 20t-89 44l-76 44t-55 20q-35 0 -50.5 -28.5t-22.5 -88.5h-158q36 279 233 279q51 0 93 -20t78.5 -44.5t70 -44.5t68.5 -20q34 0 48 27.5t22 81.5h160q-36 -270 -228 -270z" />
    <glyph glyph-name="exclamdown" unicode="&#xa1;" horiz-adv-x="749" 
d="M654 1581q4 -44 -2 -96q-4 -57 -22 -106t-40 -87q-66 0 -126.5 9t-111.5 23q7 75 27.5 143t45.5 125q60 0 116 -3t113 -8zM187 2l235 1177h123l-80 -1177h-278z" />
    <glyph glyph-name="cent" unicode="&#xa2;" horiz-adv-x="1074" 
d="M165 442q-1 133 31.5 256t96 221t155.5 164t211 86q20 4 41.5 6.5t44.5 3.5l22 139l105 -4l-22 -143q57 -7 109.5 -25.5t95.5 -41.5l-18 -163q-3 2 -18.5 10.5t-42.5 19.5t-65.5 21t-86.5 15l-123 -861q37 4 76 14t71 21l68 24l-5 -156q-57 -23 -117 -41t-118 -24
l-21 -134l-103 5l18 126q-92 3 -166.5 34.5t-127 90t-81.5 143t-30 193.5zM717 1013q-5 -1 -18 -1t-22 -2q-75 -4 -132.5 -54t-96.5 -129t-59 -179t-20 -204q1 -141 58.5 -212t169.5 -83z" />
    <glyph glyph-name="sterling" unicode="&#xa3;" horiz-adv-x="1141" 
d="M704 1157q-71 0 -121.5 -20.5t-82.5 -55t-47 -80.5t-15 -98q0 -36 6.5 -69t16.5 -60.5t22 -49.5t23 -37h411l-15 -111h-394q-14 -104 -43 -180.5t-59 -127.5t-54.5 -78t-30.5 -32h587l-20 -158h-764l17 160q14 13 39.5 41.5t54.5 76.5q13 22 27.5 51t28 66t25.5 82t20 99
h-169l15 109h145q-36 54 -54 113.5t-19 116.5q-1 76 31.5 150t90.5 132.5t137.5 94.5t173.5 36q82 0 147.5 -15t114 -36.5t81 -44t49.5 -37.5l-85 -153l-47 33t-66.5 38t-82.5 31t-94 13z" />
    <glyph glyph-name="currency" unicode="&#xa4;" horiz-adv-x="1343" 
d="M1001 1036q0 48 -17.5 90t-47 72.5t-69 48.5t-83.5 18q-57 0 -112.5 -27.5t-99 -73t-70 -104t-26.5 -120.5q0 -51 17.5 -93t48 -73t71 -48t85.5 -17q57 0 111.5 28.5t97 74.5t68.5 104.5t26 119.5zM1113 1223q17 -33 24.5 -71t8.5 -83q0 -170 -108 -311l163 -204
l-134 -127l-164 206q-115 -76 -237 -76q-113 0 -195 61l-203 -191l-101 127l202 189q-37 78 -37 166q-2 168 106 307l-157 196l134 126l157 -196q112 78 239 78q115 0 204 -69l199 187l100 -126z" />
    <glyph glyph-name="yen" unicode="&#xa5;" horiz-adv-x="1159" 
d="M646 843l451 743h209l-518 -830h239l-18 -129h-269l-31 -130h283l-18 -129h-283l-50 -368h-212l50 368h-287l18 129h287l4 130h-273l17 129h244l-291 830h207z" />
    <glyph glyph-name="brokenbar" unicode="&#xa6;" horiz-adv-x="590" 
d="M162 -35l97 706h202l-96 -706h-203zM288 900l104 703h196l-96 -703h-204z" />
    <glyph glyph-name="section" unicode="&#xa7;" horiz-adv-x="1051" 
d="M259 1227q-1 74 27 138t80.5 111t128 73.5t170.5 26.5q54 0 108 -15t99.5 -35.5t79.5 -42t48 -34.5l-81 -152q-54 51 -124 81.5t-142 30.5q-66 0 -109.5 -14t-69 -36t-36 -50t-10.5 -56q0 -16 6 -29.5t20.5 -26.5t38 -25.5t58.5 -26.5l137 -56q76 -31 127 -62t82 -64.5
t44 -70.5t13 -80q1 -80 -24.5 -134t-64 -87.5t-83 -50t-81.5 -22.5q184 -75 185 -241q0 -71 -22 -135t-68 -114t-116.5 -83t-166.5 -42q-22 -2 -44.5 -3.5t-46.5 0.5q-33 1 -70.5 8.5t-73.5 19t-69 26.5t-57 32q-16 9 -28.5 18t-20.5 19l84 157q22 -24 44 -37
q20 -14 45.5 -27.5t54 -24.5t59 -18t60.5 -7q80 0 130 18.5t77.5 47t37.5 61.5t10 62q0 28 -8.5 49t-26 37.5t-44 30t-61.5 27.5l-142 55q-66 25 -110.5 51t-71.5 55.5t-38.5 64.5t-12.5 78q0 86 28.5 141.5t69 88.5t85 47.5t76.5 19.5q-53 22 -89 46.5t-58.5 52.5t-32.5 60
t-10 68zM587 895q-115 0 -172.5 -40t-57.5 -125q1 -118 191 -118q70 0 115 15t71.5 39t36.5 53.5t10 58.5q0 39 -18 62t-46.5 35t-62.5 16t-67 4z" />
    <glyph glyph-name="dieresis" unicode="&#xa8;" horiz-adv-x="1049" 
d="M426 288q-1 -32 -14 -60.5t-33 -50.5t-46 -35t-53 -13q-24 0 -45 9t-36 25t-23.5 37.5t-8.5 47.5q0 32 12 61.5t33 52.5t48 36.5t57 13.5q48 0 78 -33t31 -84v-7zM889 286q-1 -31 -14 -59.5t-33 -50.5t-46 -35t-53 -13q-49 0 -80 34t-32 85q0 31 12.5 61t33 52.5
t47.5 36.5t56 14q48 0 78 -34t31 -84v-7z" />
    <glyph glyph-name="copyright" unicode="&#xa9;" horiz-adv-x="1859" 
d="M861 112q95 0 186.5 28t173 79t150 123t118 160.5t77 190t26.5 212.5t-35.5 215.5t-103.5 185.5t-172.5 130t-242.5 49q-95 0 -186 -28t-172.5 -80t-150.5 -124.5t-119 -162t-77.5 -192.5t-26.5 -216q1 -124 41.5 -228.5t113.5 -180.5t174.5 -118.5t225.5 -42.5z
M1056 1629q114 0 209.5 -28.5t172 -78t134.5 -117.5t96.5 -146.5t58.5 -164.5t21 -172q0 -84 -15.5 -170t-48.5 -171t-83.5 -167t-120.5 -157q-60 -64 -132.5 -116.5t-155 -90.5t-172 -59t-182.5 -21q-145 0 -269.5 50.5t-217 142.5t-145.5 220.5t-54 283.5q-1 129 32.5 251
t94.5 229t145 195.5t185 152t214.5 99t232.5 35.5zM677 708q-1 -81 20 -141q23 -75 77.5 -109.5t139.5 -34.5q63 0 128 19.5t141 54.5l-24 -140q-75 -38 -139.5 -56.5t-124.5 -18.5q-105 0 -177 33.5t-116 89.5t-63.5 130t-20.5 154q-1 135 35.5 249.5t104 198t161.5 130.5
t208 47q51 0 104 -12t95 -30q14 -5 26 -11.5l24 -12.5l-12 -136q-5 3 -23 12.5t-48 19.5t-70.5 18.5t-90.5 10.5q-20 1 -40 0t-39 -5q-72 -13 -123.5 -54.5t-85 -103.5t-50 -139.5t-17.5 -162.5z" />
    <glyph glyph-name="ordfeminine" unicode="&#xaa;" horiz-adv-x="1114" 
d="M797 828q-130 -160 -301 -160q-129 0 -193.5 59t-64.5 174q0 79 27 144.5t76.5 113t119.5 73.5t157 26q25 0 55.5 -3.5t60.5 -9.5t56.5 -13t44.5 -14q9 68 12.5 103.5t3.5 58.5q0 38 -8 63.5t-27 41t-49 22t-74 6.5q-54 0 -105.5 -14.5t-91.5 -31.5t-63.5 -31t-22.5 -13
l-35 109q34 19 72 38t79.5 34t85.5 24.5t91 9.5q78 0 133 -15t90 -47t51 -82.5t16 -120.5q0 -9 -0.5 -21.5t-3.5 -38.5l-8.5 -70.5t-15.5 -117.5l-24.5 -180.5l-35.5 -258.5h-108v142zM824 1141q-48 8 -89.5 12.5t-76.5 4.5q-268 0 -268 -234q0 -143 157 -143
q63 0 121.5 32.5t122.5 89.5zM238 525h636l-18 -129h-636z" />
    <glyph glyph-name="guillemotleft" unicode="&#xab;" horiz-adv-x="1616" 
d="M1452 851l-460 -272l388 -276l-31 -239l-558 413l26 199l666 413zM841 851l-459 -272l387 -276l-30 -239l-559 413l26 199l666 413z" />
    <glyph glyph-name="logicalnot" unicode="&#xac;" horiz-adv-x="1597" 
d="M1429 1124l-112 -792h-55l103 732h-1141l9 60h1196z" />
    <glyph glyph-name="uni00AD" unicode="&#xad;" horiz-adv-x="901" 
d="M793 528h-638l21 162h638z" />
    <glyph glyph-name="registered" unicode="&#xae;" horiz-adv-x="1280" 
d="M761 1087l8.5 -13l14 -21l14 -20t7.5 -10l89 -164l-100 -50l-26.5 59.5l-23.5 55.5l-65 150h-42l-33 -243h-97l78 580h105q124 0 183.5 -30.5t60.5 -102.5q0 -82 -45.5 -126.5t-127.5 -64.5zM769 1543q-101 0 -188 -43t-150.5 -113.5t-99.5 -160t-35 -183.5
q0 -81 27.5 -147.5t76 -114t115.5 -73.5t147 -26q63 0 122.5 18t111.5 51t95.5 78.5t74.5 100.5t48 118.5t16 130.5q0 79 -27.5 145.5t-75.5 115t-114 76t-144 27.5zM698 1155q69 0 105 25t35 88q0 19 -8 31.5t-27 19.5t-51 9.5t-79 2.5l-23 -176h48zM198 1055
q1 78 23.5 152t62.5 139t94.5 119.5t119.5 93.5t137.5 61t149.5 22q96 0 177.5 -34.5t140.5 -95t92.5 -142.5t34.5 -178q1 -79 -19.5 -154.5t-58.5 -143t-91.5 -124.5t-119 -98.5t-141 -64.5t-157.5 -23q-97 0 -178.5 34.5t-140.5 95.5t-92.5 143.5t-34.5 178.5v9.5t1 9.5z
" />
    <glyph glyph-name="glyph112" unicode="&#xaf;" horiz-adv-x="937" 
d="M761 0h-673l21 172h673z" />
    <glyph glyph-name="degree" unicode="&#xb0;" horiz-adv-x="685" 
d="M393 889q-33 0 -62.5 -14t-51.5 -38t-34.5 -55t-12.5 -65q1 -54 34 -90t88 -36q32 0 61 14t50.5 38t34 55t12.5 66q-1 54 -33 89.5t-86 35.5zM138 703q0 57 21.5 107t58.5 87.5t85.5 59t101.5 21.5q43 0 80 -15t63.5 -41.5t41.5 -62.5t15 -78q1 -57 -19.5 -108
t-56.5 -88.5t-83.5 -59.5t-101.5 -22q-44 0 -81.5 15t-64.5 41.5t-43 63t-17 80.5z" />
    <glyph glyph-name="plusminus" unicode="&#xb1;" horiz-adv-x="1107" 
d="M868 -41h-693l22 166h693zM976 549h-284l-45 -337h-166l47 337h-284l21 162h284l47 337h163l-46 -337h286z" />
    <glyph glyph-name="uni00B2" unicode="&#xb2;" horiz-adv-x="1091" 
d="M805 984q0 58 -31 95q-45 72 -177 72q-31 0 -67 -7t-73 -17.5t-72 -23l-64 -23.5l-41 140q14 7 27.5 13t27.5 11q27 11 62.5 22t75.5 20t82 15t83 6q161 0 248 -78t89 -225q2 -118 -69 -227t-221 -224l-296 -226h467l-21 -166h-709l18 150l344 270l42 32l48 37
q48 37 89 77.5t71 83t47.5 86t19.5 87.5z" />
    <glyph glyph-name="uni00B3" unicode="&#xb3;" horiz-adv-x="1059" 
d="M501 758q93 0 151.5 23.5t92.5 59.5t46.5 78t12.5 80q-1 81 -51.5 115.5t-162.5 34.5q-33 0 -70 -6t-73 -15t-69.5 -20t-58.5 -22l-37 145l27 13q19 9 50 21t71 22.5t86 18t95 7.5q66 0 131 -13t117.5 -44.5t85.5 -84.5t34 -134q0 -95 -28 -160t-71 -106t-93 -62t-94 -28
q37 -10 78 -30.5t75.5 -55t57 -84t22.5 -116.5q0 -95 -37 -173t-101.5 -133t-151.5 -85t-187 -30q-60 0 -112 8.5t-95 21.5t-76 28t-55 28l31.5 66l18 40t9 22l4.5 13q12 -2 40 -12.5t67.5 -22t88 -21t100.5 -9.5q80 0 132.5 23t83.5 59.5t43.5 81t12.5 88.5
q-2 187 -261 213z" />
    <glyph glyph-name="acute" unicode="&#xb4;" horiz-adv-x="781" 
d="M360 128h-149l188 639h276z" />
    <glyph glyph-name="uni00B5" unicode="&#xb5;" horiz-adv-x="1146" 
d="M210 -290l-139 20l190 1380h145l-44 -311.5l-29.5 -215l-18 -137.5t-9.5 -79t-3.5 -39.5t-0.5 -19.5q0 -103 40 -150.5t125 -47.5q58 0 109 16.5t94 41t76 53t55 51.5l116 838h172l-156 -1106l-128 -16v168q-177 -188 -360 -188q-47 0 -80 10t-54.5 24t-33.5 30.5
t-18 29.5z" />
    <glyph glyph-name="paragraph" unicode="&#xb6;" horiz-adv-x="1193" 
d="M1174 1585l-223 -1585h-189l201 1435h-126l-201 -1435h-193l121 864q-83 0 -160 14.5t-135.5 49t-93.5 93t-35 146.5q0 96 26 164.5t70.5 115t103 74t124 42t134 18.5t132.5 4h444z" />
    <glyph glyph-name="periodcentered" unicode="&#xb7;" horiz-adv-x="527" 
d="M324 814q25 0 46.5 -9.5t37.5 -26.5t25 -39.5t9 -48.5q0 -32 -12 -60.5t-32 -50.5t-45.5 -35t-53.5 -13q-26 0 -48 10t-38.5 27t-26 40t-9.5 49q0 31 12 59t32 50t46.5 35t56.5 13z" />
    <glyph glyph-name="cedilla" unicode="&#xb8;" horiz-adv-x="500" 
d="M11 -510l6 89q29 -13 66.5 -27t79.5 -17q12 -2 23.5 -2t22.5 1q35 1 58.5 12t38 28t20.5 38.5t6 43.5q-1 49 -65 84t-195 35l71 263h114q-53 -136 -63 -175q23 0 53 -3t60.5 -11t59.5 -22t51.5 -35t36.5 -50t14 -68v-8q-2 -60 -24 -107.5t-59 -80.5t-87 -50.5t-107 -17.5
q-60 0 -105 15.5t-76 35.5v29z" />
    <glyph glyph-name="uni00B9" unicode="&#xb9;" horiz-adv-x="828" 
d="M312 162l139 984l-199 -80l-32 136l225 82h208l-157 -1122h-184z" />
    <glyph glyph-name="ordmasculine" unicode="&#xba;" horiz-adv-x="1175" 
d="M569 670q-84 0 -146.5 27t-104.5 76.5t-62.5 118.5t-20.5 153q0 53 9.5 117.5t31.5 130.5t58 128t88 110.5t122 77.5t161 29q84 0 146.5 -27.5t104.5 -77.5t63 -120t21 -155q0 -64 -11.5 -132t-36 -133.5t-62 -124t-90 -102.5t-120 -70t-151.5 -26zM587 795
q61 0 107.5 23t80.5 60.5t57 85.5t36.5 99t19.5 101t6 91q0 120 -50 188.5t-156 68.5q-60 0 -106 -22.5t-80.5 -60t-57.5 -85.5t-37.5 -99.5t-20.5 -102t-6 -92.5q0 -121 50.5 -188t156.5 -67zM232 515h636l-18 -129h-637z" />
    <glyph glyph-name="guillemotright" unicode="&#xbb;" horiz-adv-x="1576" 
d="M847 851l33 236l554 -413l-29 -197l-668 -413l33 239l466 277zM236 851l34 236l553 -413l-28 -197l-669 -413l33 239l466 277z" />
    <glyph glyph-name="onequarter" unicode="&#xbc;" horiz-adv-x="1826" 
d="M205 -30l1208 1443l127 -92l-1212 -1441zM1516 968l138 -36l-134 -749h147l-24 -134h-146l-46 -253l-168 -18l49 271h-502l-1 122zM1017 181h337l99 495zM352 534l147 818l-171 -68l-26 116l263 99l134 -29l-166 -936h-181z" />
    <glyph glyph-name="onehalf" unicode="&#xbd;" horiz-adv-x="2050" 
d="M238 -30l1208 1443l127 -92l-1211 -1441zM405 534l146 818l-170 -68l-26 116l263 99l134 -29l-167 -936h-180zM1452 250l90.5 68.5t87 75t65.5 83.5t26 95q-1 54 -41 80.5t-110 26.5q-30 0 -68 -6t-78 -15t-78 -19.5t-67 -19.5l11 157l57 20q54 16 119 29t149 13
q79 0 135.5 -19t93 -51t53.5 -74.5t17 -88.5q0 -57 -17 -107.5t-53.5 -100t-94 -101.5t-138.5 -112l-199 -149h377l-29 -167h-641l26 146z" />
    <glyph glyph-name="threequarters" unicode="&#xbe;" horiz-adv-x="2140" 
d="M317 745q23 -12 51 -25t61 -23.5t71.5 -17.5t82.5 -7q55 0 103 16.5t82.5 46.5t54.5 71.5t20 92.5q0 73 -53 116.5t-171 56.5l26 135q46 0 95.5 12.5t91 38t68 65.5t26.5 95q0 60 -47 91.5t-150 31.5q-28 0 -60.5 -4.5t-65.5 -12t-63.5 -18t-55.5 -22.5l-23 127q3 0 4 1
q9 4 36 14.5t67 21.5t89.5 20t102.5 9q50 0 107 -10.5t105 -36t80 -69t32 -110.5q0 -58 -17 -103t-44 -79.5t-60.5 -58.5t-67 -39t-63 -22t-48.5 -7q33 -7 72 -22t72 -43.5t55.5 -72t22.5 -107.5q0 -65 -20.5 -117t-55.5 -91.5t-81.5 -68t-98 -46t-105.5 -26t-103 -8.5
q-53 0 -99 8t-84 20t-67.5 25.5t-50.5 24.5z" />
    <glyph glyph-name="questiondown" unicode="&#xbf;" horiz-adv-x="1059" 
d="M354 336q0 -87 57 -124t178 -37q39 0 79 6.5t79.5 17t77 23.5t71.5 26l48 -165q-37 -17 -82 -33t-95 -28.5t-104.5 -20t-109.5 -7.5q-110 0 -186.5 23.5t-124 65t-69.5 99t-23 125.5q0 85 29 159t76 136.5t106.5 114t120.5 91.5t119 68.5t101 45.5l27 175h190l-31 -275
q-17 -7 -38 -17l-45 -21l-95 -47.5t-101 -58.5t-97 -69.5t-82 -80.5t-56 -91t-20 -101zM1023 1481q-8 -73 -27.5 -141.5t-45.5 -125.5q-66 0 -126 9t-112 23q7 75 27.5 142.5t44.5 124.5q66 0 126.5 -9t112.5 -23z" />
    <glyph glyph-name="Agrave" unicode="&#xc0;" horiz-adv-x="1317" 
d="M877 1403l-163 -362l-245 -538h531l-75 529zM757 1586h288l244 -1586h-215l-55 387h-600l-175 -387h-218zM1003 1708h-106l-231 643h297z" />
    <glyph glyph-name="Aacute" unicode="&#xc1;" horiz-adv-x="1317" 
d="M877 1403l-163 -362l-245 -538h531l-75 529zM757 1586h288l244 -1586h-215l-55 387h-600l-175 -387h-218zM796 1688h-149l188 639h276z" />
    <glyph glyph-name="Acircumflex" unicode="&#xc2;" horiz-adv-x="1317" 
d="M877 1403l-163 -362l-245 -538h531l-75 529zM757 1586h288l244 -1586h-215l-55 387h-600l-175 -387h-218zM932 2196h140l127 -557h-164l-64 318l-181 -318h-183z" />
    <glyph glyph-name="Atilde" unicode="&#xc3;" horiz-adv-x="1317" 
d="M877 1403l-163 -362l-245 -538h531l-75 529zM757 1586h288l244 -1586h-215l-55 387h-600l-175 -387h-218zM1069 1687q-52 0 -101 20t-93.5 44l-81.5 44t-65 20q-14 0 -26.5 -3.5t-22.5 -14t-16 -30.5t-7 -54h-158q2 67 20 117t48.5 83t72 49t90.5 16q52 0 96 -19.5
t83 -43.5t74.5 -43.5t70.5 -19.5q17 0 30 3.5t22 14t14 29.5t6 49h159q-2 -71 -19.5 -120.5t-46.5 -80.5t-67.5 -45.5t-81.5 -14.5z" />
    <glyph glyph-name="Adieresis" unicode="&#xc4;" horiz-adv-x="1317" 
d="M877 1403l-163 -362l-245 -538h531l-75 529zM757 1586h288l244 -1586h-215l-55 387h-600l-175 -387h-218zM786 1848q-1 -32 -14 -60.5t-33 -50.5t-46 -35t-53 -13q-24 0 -45 9t-36 25t-23.5 37.5t-8.5 47.5q0 32 12 61.5t33 52.5t48 36.5t57 13.5q48 0 78 -33t31 -84v-7z
M1249 1846q-1 -31 -14 -59.5t-33 -50.5t-46 -35t-53 -13q-49 0 -80 34t-32 85q0 31 12.5 61t33 52.5t47.5 36.5t56 14q48 0 78 -34t31 -84v-7z" />
    <glyph glyph-name="Aring" unicode="&#xc5;" horiz-adv-x="1317" 
d="M877 1403l-163 -362l-245 -538h531l-75 529zM757 1586h288l244 -1586h-215l-55 387h-600l-175 -387h-218zM910 2062q-30 0 -56 -13t-45.5 -35t-30.5 -50t-11 -59q1 -49 29.5 -82t79.5 -33q29 0 55 13t45.5 35t30.5 50.5t11 59.5q-1 48 -30.5 81t-77.5 33zM658 1887
q0 57 21.5 107t58.5 87.5t85.5 59.5t101.5 22q44 0 81 -15.5t64 -43t42.5 -64t16.5 -78.5q1 -57 -20.5 -107t-58 -87t-85 -58.5t-102.5 -21.5q-44 0 -81.5 15t-65 41t-43 62.5t-15.5 80.5z" />
    <glyph glyph-name="AE" unicode="&#xc6;" horiz-adv-x="1943" 
d="M1237 908h618l-17 -144h-619l-80 -590h711l-20 -174h-909l49 373h-480l-235 -373h-229l1023 1582h975l-23 -169h-697zM987 508l111 832l-515 -832h404z" />
    <glyph glyph-name="Ccedilla" unicode="&#xc7;" horiz-adv-x="1190" 
d="M197 541q0 138 21.5 271.5t64 253t106 220t147.5 174t189 114.5t230 41q54 0 102.5 -6t96 -17.5t97 -27.5l106.5 -36l-75 -174q-86 34 -162.5 56t-157.5 22q-94 0 -171 -33.5t-137.5 -93.5t-104.5 -142.5t-73 -179.5t-43 -205.5t-14 -220.5q0 -212 84 -313.5t249 -101.5
q38 0 82 9t91.5 24t96 34.5l96.5 40.5l36 -167l-100.5 -46t-103.5 -39.5t-110 -27.5t-119 -10q-254 0 -389 146.5t-135 434.5zM558 -510l6 89q29 -13 66.5 -27t79.5 -17q12 -2 23.5 -2t22.5 1q35 1 58.5 12t38 28t20.5 38.5t6 43.5q-1 49 -65 84t-195 35l71 263h114
q-53 -136 -63 -175q23 0 53 -3t60.5 -11t59.5 -22t51.5 -35t36.5 -50t14 -68v-8q-2 -60 -24 -107.5t-59 -80.5t-87 -50.5t-107 -17.5q-60 0 -105 15.5t-76 35.5v29z" />
    <glyph glyph-name="Egrave" unicode="&#xc8;" horiz-adv-x="1109" 
d="M1053 0h-927l223 1586h914l-25 -166h-698l-72 -513h614l-20 -143h-615l-85 -599h717zM989 1708h-106l-231 643h297z" />
    <glyph glyph-name="Eacute" unicode="&#xc9;" horiz-adv-x="1109" 
d="M1053 0h-927l223 1586h914l-25 -166h-698l-72 -513h614l-20 -143h-615l-85 -599h717zM782 1688h-149l188 639h276z" />
    <glyph glyph-name="Ecircumflex" unicode="&#xca;" horiz-adv-x="1109" 
d="M1053 0h-927l223 1586h914l-25 -166h-698l-72 -513h614l-20 -143h-615l-85 -599h717zM824 2221h140l127 -557h-164l-64 318l-181 -318h-183z" />
    <glyph glyph-name="Edieresis" unicode="&#xcb;" horiz-adv-x="1109" 
d="M1053 0h-927l223 1586h914l-25 -166h-698l-72 -513h614l-20 -143h-615l-85 -599h717zM948 1848q-1 -32 -14 -60.5t-33 -50.5t-46 -35t-53 -13q-24 0 -45 9t-36 25t-23.5 37.5t-8.5 47.5q0 32 12 61.5t33 52.5t48 36.5t57 13.5q48 0 78 -33t31 -84v-7zM1411 1846
q-1 -31 -14 -59.5t-33 -50.5t-46 -35t-53 -13q-49 0 -80 34t-32 85q0 31 12.5 61t33 52.5t47.5 36.5t56 14q48 0 78 -34t31 -84v-7z" />
    <glyph glyph-name="Igrave" unicode="&#xcc;" horiz-adv-x="860" 
d="M142 122h184l193 1335h-183l20 129h580l-20 -129h-186l-193 -1335h186l-20 -122h-579zM788 1708h-106l-231 643h297z" />
    <glyph glyph-name="Iacute" unicode="&#xcd;" horiz-adv-x="860" 
d="M142 122h184l193 1335h-183l20 129h580l-20 -129h-186l-193 -1335h186l-20 -122h-579zM581 1688h-149l188 639h276z" />
    <glyph glyph-name="Icircumflex" unicode="&#xce;" horiz-adv-x="860" 
d="M142 122h184l193 1335h-183l20 129h580l-20 -129h-186l-193 -1335h186l-20 -122h-579zM664 2222h140l127 -557h-164l-64 318l-181 -318h-183z" />
    <glyph glyph-name="Idieresis" unicode="&#xcf;" horiz-adv-x="860" 
d="M142 122h184l193 1335h-183l20 129h580l-20 -129h-186l-193 -1335h186l-20 -122h-579zM747 1848q-1 -32 -14 -60.5t-33 -50.5t-46 -35t-53 -13q-24 0 -45 9t-36 25t-23.5 37.5t-8.5 47.5q0 32 12 61.5t33 52.5t48 36.5t57 13.5q48 0 78 -33t31 -84v-7zM1210 1846
q-1 -31 -14 -59.5t-33 -50.5t-46 -35t-53 -13q-49 0 -80 34t-32 85q0 31 12.5 61t33 52.5t47.5 36.5t56 14q48 0 78 -34t31 -84v-7z" />
    <glyph glyph-name="Eth" unicode="&#xd0;" horiz-adv-x="1359" 
d="M1378 1014q0 -70 -7 -150.5t-23.5 -165t-44 -169t-69 -162t-98 -144.5t-131 -116.5t-168 -78t-209.5 -28.5h-524l104 737h-101l21 153h102l98 693h524q256 0 391.5 -140.5t134.5 -428.5zM1160 1011q0 106 -20.5 181.5t-61.5 124t-103 71t-146 22.5h-309l-74 -520h338
l-20 -153h-339l-80 -567h305q106 0 185.5 41t136 109t93 155.5t58 181t29.5 185.5t8 169z" />
    <glyph glyph-name="Ntilde" unicode="&#xd1;" horiz-adv-x="1507" 
d="M1359 0h-287l-183 452l-362 911l-191 -1363h-208l225 1586h289l181 -451l363 -912l190 1363h208zM1204 1687q-52 0 -101 20t-93.5 44l-81.5 44t-65 20q-14 0 -26.5 -3.5t-22.5 -14t-16 -30.5t-7 -54h-158q2 67 20 117t48.5 83t72 49t90.5 16q52 0 96 -19.5t83 -43.5
t74.5 -43.5t70.5 -19.5q17 0 30 3.5t22 14t14 29.5t6 49h159q-2 -71 -19.5 -120.5t-46.5 -80.5t-67.5 -45.5t-81.5 -14.5z" />
    <glyph glyph-name="Ograve" unicode="&#xd2;" horiz-adv-x="1457" 
d="M1476 1024q0 -236 -57 -431.5t-159 -336t-242 -218.5t-306 -78q-119 0 -214 34.5t-162 105.5t-103 178.5t-36 254.5q0 154 25.5 294.5t72.5 260.5t114.5 217t151.5 166t183.5 106t210.5 37q136 0 234.5 -41t162 -117.5t94 -186t30.5 -245.5zM1256 1027q0 89 -17 163.5
t-55 128t-99.5 83.5t-150.5 30q-87 0 -159 -35.5t-129.5 -98t-100 -147.5t-70.5 -184.5t-42 -208.5t-14 -220q0 -201 81 -298.5t239 -97.5q86 0 157.5 34.5t129 95.5t100.5 145t72 182t43.5 207t14.5 221zM1096 1708h-106l-231 643h297z" />
    <glyph glyph-name="Oacute" unicode="&#xd3;" horiz-adv-x="1457" 
d="M1476 1024q0 -236 -57 -431.5t-159 -336t-242 -218.5t-306 -78q-119 0 -214 34.5t-162 105.5t-103 178.5t-36 254.5q0 154 25.5 294.5t72.5 260.5t114.5 217t151.5 166t183.5 106t210.5 37q136 0 234.5 -41t162 -117.5t94 -186t30.5 -245.5zM1256 1027q0 89 -17 163.5
t-55 128t-99.5 83.5t-150.5 30q-87 0 -159 -35.5t-129.5 -98t-100 -147.5t-70.5 -184.5t-42 -208.5t-14 -220q0 -201 81 -298.5t239 -97.5q86 0 157.5 34.5t129 95.5t100.5 145t72 182t43.5 207t14.5 221zM889 1688h-149l188 639h276z" />
    <glyph glyph-name="Ocircumflex" unicode="&#xd4;" horiz-adv-x="1457" 
d="M1476 1024q0 -236 -57 -431.5t-159 -336t-242 -218.5t-306 -78q-119 0 -214 34.5t-162 105.5t-103 178.5t-36 254.5q0 154 25.5 294.5t72.5 260.5t114.5 217t151.5 166t183.5 106t210.5 37q136 0 234.5 -41t162 -117.5t94 -186t30.5 -245.5zM1256 1027q0 89 -17 163.5
t-55 128t-99.5 83.5t-150.5 30q-87 0 -159 -35.5t-129.5 -98t-100 -147.5t-70.5 -184.5t-42 -208.5t-14 -220q0 -201 81 -298.5t239 -97.5q86 0 157.5 34.5t129 95.5t100.5 145t72 182t43.5 207t14.5 221zM1025 2196h140l127 -557h-164l-64 318l-181 -318h-183z" />
    <glyph glyph-name="Otilde" unicode="&#xd5;" horiz-adv-x="1457" 
d="M1476 1024q0 -236 -57 -431.5t-159 -336t-242 -218.5t-306 -78q-119 0 -214 34.5t-162 105.5t-103 178.5t-36 254.5q0 154 25.5 294.5t72.5 260.5t114.5 217t151.5 166t183.5 106t210.5 37q136 0 234.5 -41t162 -117.5t94 -186t30.5 -245.5zM1256 1027q0 89 -17 163.5
t-55 128t-99.5 83.5t-150.5 30q-87 0 -159 -35.5t-129.5 -98t-100 -147.5t-70.5 -184.5t-42 -208.5t-14 -220q0 -201 81 -298.5t239 -97.5q86 0 157.5 34.5t129 95.5t100.5 145t72 182t43.5 207t14.5 221zM1162 1687q-52 0 -101 20t-93.5 44l-81.5 44t-65 20
q-14 0 -26.5 -3.5t-22.5 -14t-16 -30.5t-7 -54h-158q2 67 20 117t48.5 83t72 49t90.5 16q52 0 96 -19.5t83 -43.5t74.5 -43.5t70.5 -19.5q17 0 30 3.5t22 14t14 29.5t6 49h159q-2 -71 -19.5 -120.5t-46.5 -80.5t-67.5 -45.5t-81.5 -14.5z" />
    <glyph glyph-name="Odieresis" unicode="&#xd6;" horiz-adv-x="1457" 
d="M1476 1024q0 -236 -57 -431.5t-159 -336t-242 -218.5t-306 -78q-119 0 -214 34.5t-162 105.5t-103 178.5t-36 254.5q0 154 25.5 294.5t72.5 260.5t114.5 217t151.5 166t183.5 106t210.5 37q136 0 234.5 -41t162 -117.5t94 -186t30.5 -245.5zM1256 1027q0 89 -17 163.5
t-55 128t-99.5 83.5t-150.5 30q-87 0 -159 -35.5t-129.5 -98t-100 -147.5t-70.5 -184.5t-42 -208.5t-14 -220q0 -201 81 -298.5t239 -97.5q86 0 157.5 34.5t129 95.5t100.5 145t72 182t43.5 207t14.5 221zM879 1848q-1 -32 -14 -60.5t-33 -50.5t-46 -35t-53 -13q-24 0 -45 9
t-36 25t-23.5 37.5t-8.5 47.5q0 32 12 61.5t33 52.5t48 36.5t57 13.5q48 0 78 -33t31 -84v-7zM1342 1846q-1 -31 -14 -59.5t-33 -50.5t-46 -35t-53 -13q-49 0 -80 34t-32 85q0 31 12.5 61t33 52.5t47.5 36.5t56 14q48 0 78 -34t31 -84v-7z" />
    <glyph glyph-name="multiply" unicode="&#xd7;" horiz-adv-x="1224" 
d="M771 546l258 -335l-137 -118l-253 328l-345 -325l-109 125l353 333l-260 338l137 118l255 -331l352 333l109 -125z" />
    <glyph glyph-name="Oslash" unicode="&#xd8;" horiz-adv-x="1457" 
d="M1266 1030q-1 108 -25 191.5t-84 138.5l-526 -1209q24 -8 51.5 -11t59.5 -3q88 0 161.5 35t132 96.5t102.5 145.5t72.5 183.5t42.5 209.5t13 223zM1475 1024q2 -236 -53.5 -431.5t-156.5 -336t-240.5 -218.5t-305.5 -78q-86 0 -162 18l-56 -132l-113 49l54 127
q-115 63 -178 188t-65 323q-1 154 23 294.5t70.5 260.5t113 217t150.5 166t183 106t210 37q100 0 174 -21l62 142l112 -45l-62 -143q125 -71 181.5 -204t58.5 -319zM932 1438q-88 0 -161 -36t-131.5 -98.5t-102 -148.5t-72.5 -186.5t-43 -210.5t-13 -222q1 -118 28.5 -197
t84.5 -130l528 1211q-51 18 -118 18z" />
    <glyph glyph-name="Ugrave" unicode="&#xd9;" horiz-adv-x="1412" 
d="M723 131q102 0 175 29t124.5 97t85.5 180t58 278l124 871h214l-122 -867q-32 -226 -95.5 -372.5t-152 -232.5t-199 -120t-235.5 -34q-123 0 -218.5 37t-161.5 110.5t-100.5 182t-34.5 251.5v25.5t1 30t3.5 38t6.5 50.5q7 58 17.5 137l25.5 187l34.5 250l45.5 327h214
l-46 -331l-35 -254l-26 -190.5t-18 -140.5q-4 -31 -6.5 -53.5t-3.5 -39.5t-1.5 -30t-0.5 -25q0 -88 16.5 -160t54.5 -123.5t100.5 -79.5t155.5 -28zM1098 1708h-106l-231 643h297z" />
    <glyph glyph-name="Uacute" unicode="&#xda;" horiz-adv-x="1412" 
d="M723 131q102 0 175 29t124.5 97t85.5 180t58 278l124 871h214l-122 -867q-32 -226 -95.5 -372.5t-152 -232.5t-199 -120t-235.5 -34q-123 0 -218.5 37t-161.5 110.5t-100.5 182t-34.5 251.5v25.5t1 30t3.5 38t6.5 50.5q7 58 17.5 137l25.5 187l34.5 250l45.5 327h214
l-46 -331l-35 -254l-26 -190.5t-18 -140.5q-4 -31 -6.5 -53.5t-3.5 -39.5t-1.5 -30t-0.5 -25q0 -88 16.5 -160t54.5 -123.5t100.5 -79.5t155.5 -28zM891 1688h-149l188 639h276z" />
    <glyph glyph-name="Ucircumflex" unicode="&#xdb;" horiz-adv-x="1412" 
d="M723 131q102 0 175 29t124.5 97t85.5 180t58 278l124 871h214l-122 -867q-32 -226 -95.5 -372.5t-152 -232.5t-199 -120t-235.5 -34q-123 0 -218.5 37t-161.5 110.5t-100.5 182t-34.5 251.5v25.5t1 30t3.5 38t6.5 50.5q7 58 17.5 137l25.5 187l34.5 250l45.5 327h214
l-46 -331l-35 -254l-26 -190.5t-18 -140.5q-4 -31 -6.5 -53.5t-3.5 -39.5t-1.5 -30t-0.5 -25q0 -88 16.5 -160t54.5 -123.5t100.5 -79.5t155.5 -28zM1027 2196h140l127 -557h-164l-64 318l-181 -318h-183z" />
    <glyph glyph-name="Udieresis" unicode="&#xdc;" horiz-adv-x="1412" 
d="M723 131q102 0 175 29t124.5 97t85.5 180t58 278l124 871h214l-122 -867q-32 -226 -95.5 -372.5t-152 -232.5t-199 -120t-235.5 -34q-123 0 -218.5 37t-161.5 110.5t-100.5 182t-34.5 251.5v25.5t1 30t3.5 38t6.5 50.5q7 58 17.5 137l25.5 187l34.5 250l45.5 327h214
l-46 -331l-35 -254l-26 -190.5t-18 -140.5q-4 -31 -6.5 -53.5t-3.5 -39.5t-1.5 -30t-0.5 -25q0 -88 16.5 -160t54.5 -123.5t100.5 -79.5t155.5 -28zM881 1848q-1 -32 -14 -60.5t-33 -50.5t-46 -35t-53 -13q-24 0 -45 9t-36 25t-23.5 37.5t-8.5 47.5q0 32 12 61.5t33 52.5
t48 36.5t57 13.5q48 0 78 -33t31 -84v-7zM1344 1846q-1 -31 -14 -59.5t-33 -50.5t-46 -35t-53 -13q-49 0 -80 34t-32 85q0 31 12.5 61t33 52.5t47.5 36.5t56 14q48 0 78 -34t31 -84v-7z" />
    <glyph glyph-name="Yacute" unicode="&#xdd;" horiz-adv-x="1158" 
d="M657 713l491 869h219l-632 -1086l-69 -496h-211l72 519l-318 1063h204zM742 1688h-149l188 639h276z" />
    <glyph glyph-name="Thorn" unicode="&#xde;" horiz-adv-x="1317" 
d="M350 1587h215l-18 -134h161q161 0 274.5 -21t185.5 -66t105 -115t33 -168q0 -156 -47.5 -267t-143 -182.5t-239 -104.5t-335.5 -33h-129l-69 -496h-215zM1099 1040q2 41 -6 74q-9 44 -34.5 75.5t-73.5 51.5t-121.5 29.5t-178.5 9.5h-163l-86 -608h128q148 0 249.5 19
t164.5 62.5t91 114t30 172.5z" />
    <glyph glyph-name="germandbls" unicode="&#xdf;" horiz-adv-x="1345" 
d="M593 914q122 0 203 21t129 61t68 97.5t20 131.5q0 101 -58.5 149t-185.5 48q-83 0 -135 -37t-83.5 -95.5t-46.5 -130t-24 -141.5l-142 -1018h-210l139 998q18 126 52 234.5t94.5 188t153.5 125t228 45.5q105 0 181 -29t125 -78.5t72.5 -115t23.5 -137.5
q0 -82 -20.5 -149.5t-64 -117.5t-111.5 -80.5t-162 -37.5q91 -9 169 -36t135 -72.5t89.5 -109t32.5 -145.5q0 -116 -30 -207t-84 -159.5t-127.5 -117t-160 -79.5t-183 -47t-195.5 -20l5 184q164 14 274 52t176 96t93.5 134.5t27.5 167.5q0 143 -123 208.5t-368 65.5z" />
    <glyph glyph-name="agrave" unicode="&#xe0;" horiz-adv-x="1125" 
d="M1139 1049l-152 -1049h-153l-5 190q-26 -48 -60.5 -87t-76.5 -66.5t-90.5 -42t-100.5 -14.5q-95 0 -161 32.5t-108 89.5t-61 133.5t-19 165.5q0 80 20.5 168t59 172.5t93 160.5t122 133.5t147 91.5t167.5 34q46 0 94.5 -9t93.5 -22.5t82.5 -29t61.5 -28.5zM351 414
q0 -147 50.5 -212.5t154.5 -65.5q46 0 88 16.5t77.5 41.5t63 54t43.5 53l101 672q-3 2 -18 7t-37.5 10.5t-50 10t-54.5 4.5q-51 0 -101.5 -22t-97 -61.5t-86.5 -94.5t-69.5 -120.5t-46.5 -140t-17 -152.5zM818 1309h-106l-231 643h297z" />
    <glyph glyph-name="aacute" unicode="&#xe1;" horiz-adv-x="1125" 
d="M1139 1049l-152 -1049h-153l-5 190q-26 -48 -60.5 -87t-76.5 -66.5t-90.5 -42t-100.5 -14.5q-95 0 -161 32.5t-108 89.5t-61 133.5t-19 165.5q0 80 20.5 168t59 172.5t93 160.5t122 133.5t147 91.5t167.5 34q46 0 94.5 -9t93.5 -22.5t82.5 -29t61.5 -28.5zM351 414
q0 -147 50.5 -212.5t154.5 -65.5q46 0 88 16.5t77.5 41.5t63 54t43.5 53l101 672q-3 2 -18 7t-37.5 10.5t-50 10t-54.5 4.5q-51 0 -101.5 -22t-97 -61.5t-86.5 -94.5t-69.5 -120.5t-46.5 -140t-17 -152.5zM776 1289h-149l188 639h276z" />
    <glyph glyph-name="acircumflex" unicode="&#xe2;" horiz-adv-x="1125" 
d="M1139 1049l-152 -1049h-153l-5 190q-26 -48 -60.5 -87t-76.5 -66.5t-90.5 -42t-100.5 -14.5q-95 0 -161 32.5t-108 89.5t-61 133.5t-19 165.5q0 80 20.5 168t59 172.5t93 160.5t122 133.5t147 91.5t167.5 34q46 0 94.5 -9t93.5 -22.5t82.5 -29t61.5 -28.5zM351 414
q0 -147 50.5 -212.5t154.5 -65.5q46 0 88 16.5t77.5 41.5t63 54t43.5 53l101 672q-3 2 -18 7t-37.5 10.5t-50 10t-54.5 4.5q-51 0 -101.5 -22t-97 -61.5t-86.5 -94.5t-69.5 -120.5t-46.5 -140t-17 -152.5zM777 1797h140l127 -557h-164l-64 318l-181 -318h-183z" />
    <glyph glyph-name="atilde" unicode="&#xe3;" horiz-adv-x="1125" 
d="M1139 1049l-152 -1049h-153l-5 190q-26 -48 -60.5 -87t-76.5 -66.5t-90.5 -42t-100.5 -14.5q-95 0 -161 32.5t-108 89.5t-61 133.5t-19 165.5q0 80 20.5 168t59 172.5t93 160.5t122 133.5t147 91.5t167.5 34q46 0 94.5 -9t93.5 -22.5t82.5 -29t61.5 -28.5zM351 414
q0 -147 50.5 -212.5t154.5 -65.5q46 0 88 16.5t77.5 41.5t63 54t43.5 53l101 672q-3 2 -18 7t-37.5 10.5t-50 10t-54.5 4.5q-51 0 -101.5 -22t-97 -61.5t-86.5 -94.5t-69.5 -120.5t-46.5 -140t-17 -152.5zM944 1288q-52 0 -101 20t-93.5 44l-81.5 44t-65 20
q-14 0 -26.5 -3.5t-22.5 -14t-16 -30.5t-7 -54h-158q2 67 20 117t48.5 83t72 49t90.5 16q52 0 96 -19.5t83 -43.5t74.5 -43.5t70.5 -19.5q17 0 30 3.5t22 14t14 29.5t6 49h159q-2 -71 -19.5 -120.5t-46.5 -80.5t-67.5 -45.5t-81.5 -14.5z" />
    <glyph glyph-name="adieresis" unicode="&#xe4;" horiz-adv-x="1125" 
d="M1139 1049l-152 -1049h-153l-5 190q-26 -48 -60.5 -87t-76.5 -66.5t-90.5 -42t-100.5 -14.5q-95 0 -161 32.5t-108 89.5t-61 133.5t-19 165.5q0 80 20.5 168t59 172.5t93 160.5t122 133.5t147 91.5t167.5 34q46 0 94.5 -9t93.5 -22.5t82.5 -29t61.5 -28.5zM351 414
q0 -147 50.5 -212.5t154.5 -65.5q46 0 88 16.5t77.5 41.5t63 54t43.5 53l101 672q-3 2 -18 7t-37.5 10.5t-50 10t-54.5 4.5q-51 0 -101.5 -22t-97 -61.5t-86.5 -94.5t-69.5 -120.5t-46.5 -140t-17 -152.5zM640 1449q-1 -32 -14 -60.5t-33 -50.5t-46 -35t-53 -13q-24 0 -45 9
t-36 25t-23.5 37.5t-8.5 47.5q0 32 12 61.5t33 52.5t48 36.5t57 13.5q48 0 78 -33t31 -84v-7zM1103 1447q-1 -31 -14 -59.5t-33 -50.5t-46 -35t-53 -13q-49 0 -80 34t-32 85q0 31 12.5 61t33 52.5t47.5 36.5t56 14q48 0 78 -34t31 -84v-7z" />
    <glyph glyph-name="aring" unicode="&#xe5;" horiz-adv-x="1125" 
d="M1139 1049l-152 -1049h-153l-5 190q-26 -48 -60.5 -87t-76.5 -66.5t-90.5 -42t-100.5 -14.5q-95 0 -161 32.5t-108 89.5t-61 133.5t-19 165.5q0 80 20.5 168t59 172.5t93 160.5t122 133.5t147 91.5t167.5 34q46 0 94.5 -9t93.5 -22.5t82.5 -29t61.5 -28.5zM351 414
q0 -147 50.5 -212.5t154.5 -65.5q46 0 88 16.5t77.5 41.5t63 54t43.5 53l101 672q-3 2 -18 7t-37.5 10.5t-50 10t-54.5 4.5q-51 0 -101.5 -22t-97 -61.5t-86.5 -94.5t-69.5 -120.5t-46.5 -140t-17 -152.5zM851 1663q-30 0 -56 -13t-45.5 -35t-30.5 -50t-11 -59
q1 -49 29.5 -82t79.5 -33q29 0 55 13t45.5 35t30.5 50.5t11 59.5q-1 48 -30.5 81t-77.5 33zM599 1488q0 57 21.5 107t58.5 87.5t85.5 59.5t101.5 22q44 0 81 -15.5t64 -43t42.5 -64t16.5 -78.5q1 -57 -20.5 -107t-58 -87t-85 -58.5t-102.5 -21.5q-44 0 -81.5 15t-65 41
t-43 62.5t-15.5 80.5z" />
    <glyph glyph-name="ae" unicode="&#xe6;" horiz-adv-x="1744" 
d="M1623 95q-87 -57 -185 -86t-186 -29q-135 0 -221 50t-135 144q-34 -41 -83 -76t-103.5 -61.5t-109 -41.5t-99.5 -15q-93 0 -159 31.5t-108.5 88t-62 133.5t-19.5 168q0 83 20.5 171.5t59 173t93.5 160t124.5 132.5t151.5 90t175 33q80 0 142 -14t106.5 -32t70 -34
t33.5 -20q63 48 136.5 74.5t160.5 26.5q167 0 253 -97.5t86 -287.5q0 -19 -4 -41t-25 -44.5t-64.5 -45t-123 -42.5t-200.5 -37t-296 -29q-5 -35 -8 -67t-3 -60q0 -140 68 -209t188 -69q78 0 149.5 31.5t143.5 85.5zM351 407q1 -143 51.5 -207t153.5 -64q39 0 82.5 14.5
t84 37t75 49t57.5 51.5q-6 29 -8.5 60t-2.5 66q0 69 12 140.5t34.5 140.5t55.5 133.5t75 119.5q-3 1 -20.5 10t-48.5 19.5t-75.5 19t-101.5 8.5q-80 0 -156.5 -48.5t-136 -130.5t-95.5 -190.5t-36 -228.5zM1070 665q129 13 217.5 25t146 23.5t89 22t46 20t17 18t2.5 15.5
q0 109 -47.5 164t-132.5 56q-64 0 -119 -24t-98.5 -68.5t-74 -108.5t-46.5 -143z" />
    <glyph glyph-name="ccedilla" unicode="&#xe7;" horiz-adv-x="973" 
d="M153 424q0 168 48 304t128.5 232.5t186 148.5t219.5 52q103 0 184 -29t153 -87l-78 -152q-16 20 -44 40t-62 35.5t-72 25.5t-75 10q-78 0 -137.5 -30t-103 -81.5t-72 -120.5t-44.5 -146q-12 -52 -17.5 -102t-5.5 -95q-1 -148 58.5 -220.5t170.5 -72.5q57 0 111 16t99 40
q24 13 47 29l46 33l28 -149q-94 -62 -185 -93t-193 -32q-83 1 -154.5 27.5t-124 80.5t-82.5 137.5t-29 198.5zM390 -511l6 89q29 -13 66.5 -27t79.5 -17q12 -2 23.5 -2t22.5 1q35 1 58.5 12t38 28t20.5 38.5t6 43.5q-1 49 -65 84t-195 35l71 263h114q-53 -136 -63 -175
q23 0 53 -3t60.5 -11t59.5 -22t51.5 -35t36.5 -50t14 -68v-8q-2 -60 -24 -107.5t-59 -80.5t-87 -50.5t-107 -17.5q-60 0 -105 15.5t-76 35.5v29z" />
    <glyph glyph-name="egrave" unicode="&#xe8;" horiz-adv-x="1046" 
d="M394 665q129 13 217.5 25t146 23.5t89 22t46 20t17 18t2.5 15.5q0 109 -47.5 164.5t-132.5 55.5q-64 0 -119 -24t-98.5 -68.5t-74 -108.5t-46.5 -143zM948 95q-88 -57 -186 -86t-186 -29q-103 0 -182 30t-133 86t-81.5 137t-27.5 183q0 88 17 177.5t50.5 172t82.5 155
t113 126t143 84.5t172 31q186 0 272.5 -99t86.5 -286q0 -19 -4 -41t-25 -44.5t-65 -45t-123.5 -42.5t-200.5 -37t-296 -29q-5 -35 -8 -67t-3 -60q0 -140 68 -209t188 -69q78 0 149.5 31.5t143.5 85.5zM786 1309h-106l-231 643h297z" />
    <glyph glyph-name="eacute" unicode="&#xe9;" horiz-adv-x="1046" 
d="M394 665q129 13 217.5 25t146 23.5t89 22t46 20t17 18t2.5 15.5q0 109 -47.5 164.5t-132.5 55.5q-64 0 -119 -24t-98.5 -68.5t-74 -108.5t-46.5 -143zM948 95q-88 -57 -186 -86t-186 -29q-103 0 -182 30t-133 86t-81.5 137t-27.5 183q0 88 17 177.5t50.5 172t82.5 155
t113 126t143 84.5t172 31q186 0 272.5 -99t86.5 -286q0 -19 -4 -41t-25 -44.5t-65 -45t-123.5 -42.5t-200.5 -37t-296 -29q-5 -35 -8 -67t-3 -60q0 -140 68 -209t188 -69q78 0 149.5 31.5t143.5 85.5zM744 1289h-149l188 639h276z" />
    <glyph glyph-name="ecircumflex" unicode="&#xea;" horiz-adv-x="1046" 
d="M394 665q129 13 217.5 25t146 23.5t89 22t46 20t17 18t2.5 15.5q0 109 -47.5 164.5t-132.5 55.5q-64 0 -119 -24t-98.5 -68.5t-74 -108.5t-46.5 -143zM948 95q-88 -57 -186 -86t-186 -29q-103 0 -182 30t-133 86t-81.5 137t-27.5 183q0 88 17 177.5t50.5 172t82.5 155
t113 126t143 84.5t172 31q186 0 272.5 -99t86.5 -286q0 -19 -4 -41t-25 -44.5t-65 -45t-123.5 -42.5t-200.5 -37t-296 -29q-5 -35 -8 -67t-3 -60q0 -140 68 -209t188 -69q78 0 149.5 31.5t143.5 85.5zM745 1797h140l127 -557h-164l-64 318l-181 -318h-183z" />
    <glyph glyph-name="edieresis" unicode="&#xeb;" horiz-adv-x="1046" 
d="M394 665q129 13 217.5 25t146 23.5t89 22t46 20t17 18t2.5 15.5q0 109 -47.5 164.5t-132.5 55.5q-64 0 -119 -24t-98.5 -68.5t-74 -108.5t-46.5 -143zM948 95q-88 -57 -186 -86t-186 -29q-103 0 -182 30t-133 86t-81.5 137t-27.5 183q0 88 17 177.5t50.5 172t82.5 155
t113 126t143 84.5t172 31q186 0 272.5 -99t86.5 -286q0 -19 -4 -41t-25 -44.5t-65 -45t-123.5 -42.5t-200.5 -37t-296 -29q-5 -35 -8 -67t-3 -60q0 -140 68 -209t188 -69q78 0 149.5 31.5t143.5 85.5zM608 1449q-1 -32 -14 -60.5t-33 -50.5t-46 -35t-53 -13q-24 0 -45 9
t-36 25t-23.5 37.5t-8.5 47.5q0 32 12 61.5t33 52.5t48 36.5t57 13.5q48 0 78 -33t31 -84v-7zM1071 1447q-1 -31 -14 -59.5t-33 -50.5t-46 -35t-53 -13q-49 0 -80 34t-32 85q0 31 12.5 61t33 52.5t47.5 36.5t56 14q48 0 78 -34t31 -84v-7z" />
    <glyph glyph-name="igrave" unicode="&#xec;" horiz-adv-x="599" 
d="M386 0h-203l162 1159h203zM518 1255l-98 -20l-219 593l277 69z" />
    <glyph glyph-name="iacute" unicode="&#xed;" horiz-adv-x="599" 
d="M386 0h-203l162 1159h203zM468 1220l-85 20l229 631l246 -70z" />
    <glyph glyph-name="icircumflex" unicode="&#xee;" horiz-adv-x="561" 
d="M378 0h-203l161 1141h205zM477 1786h140l127 -557h-164l-64 318l-181 -318h-183z" />
    <glyph glyph-name="idieresis" unicode="&#xef;" horiz-adv-x="599" 
d="M386 0h-203l162 1159h203zM360 1397q-1 -31 -14 -59.5t-33 -50.5t-46 -35t-53 -13q-24 0 -44.5 9t-35.5 25t-23.5 37.5t-8.5 46.5q0 31 12.5 61t33 53t47.5 37t56 14q48 0 78 -33.5t32 -84.5q0 -2 -0.5 -3.5t-0.5 -3.5zM824 1395q-1 -31 -14 -59.5t-33 -50.5t-46 -35
t-53 -13q-24 0 -45 9t-36 25t-23.5 37.5t-8.5 47.5q0 31 12.5 61t33 52.5t47.5 36.5t56 14q24 0 44 -9t34.5 -25t23 -37.5t8.5 -45.5v-8z" />
    <glyph glyph-name="eth" unicode="&#xf0;" horiz-adv-x="1181" 
d="M351 445q-1 -36 1 -67t7 -58q33 -174 183 -174q59 0 113 27t98 79t75.5 128t45.5 174q6 45 10 91t6 95q-5 69 -28.5 114t-56.5 71.5t-71 37.5t-71 11q-65 0 -112.5 -25t-82 -67t-57 -96.5t-35.5 -113t-18.5 -117.5t-6.5 -110zM153 414q-1 85 12.5 171.5t41 167t68.5 151
t95 122.5t121 82t146 30q49 0 93 -13t80.5 -35t65 -50t46.5 -58q-18 172 -119 359l-206 -75l-32 110l176 64q-78 114 -157 181l103 132q69 -51 126 -112t105 -136l243 87l31 -109l-215 -78q58 -121 88 -251t31 -275q2 -189 -34 -352.5t-109.5 -285t-183.5 -191t-256 -69.5
q-96 0 -164 33.5t-111 92t-63.5 137.5t-21.5 170z" />
    <glyph glyph-name="ntilde" unicode="&#xf1;" horiz-adv-x="1164" 
d="M831 0l40 283.5l29.5 207.5l20.5 146.5t13 101.5q3 26 3.5 39t0.5 23q0 47 -8 84.5t-26 64t-48.5 40.5t-75.5 14q-39 0 -86 -16t-92.5 -39.5t-84 -49.5t-59.5 -46l-120 -853h-210l162 1141h153l8 -176q31 36 77.5 71t100.5 62.5t111 45t109 17.5q301 0 301 -317
q0 -11 -0.5 -21t-2 -23.5l-3.5 -31.5l-5 -43l-14.5 -113.5l-20.5 -152l-28 -200.5l-37 -259h-208zM959 1288q-52 0 -101 20t-93.5 44l-81.5 44t-65 20q-14 0 -26.5 -3.5t-22.5 -14t-16 -30.5t-7 -54h-158q2 67 20 117t48.5 83t72 49t90.5 16q52 0 96 -19.5t83 -43.5
t74.5 -43.5t70.5 -19.5q17 0 30 3.5t22 14t14 29.5t6 49h159q-2 -71 -19.5 -120.5t-46.5 -80.5t-67.5 -45.5t-81.5 -14.5z" />
    <glyph glyph-name="ograve" unicode="&#xf2;" horiz-adv-x="1154" 
d="M153 429q0 84 15 171.5t46.5 168.5t79.5 152.5t114 125t150 84t188 30.5q118 0 197.5 -36.5t127.5 -98t68.5 -142t20.5 -168.5q0 -149 -42 -283t-119.5 -234.5t-187.5 -159.5t-245 -59q-95 0 -171 30.5t-130 88.5t-83 141.5t-29 188.5zM591 136q68 0 122 25.5t94.5 68.5
t69 100t46.5 120t26 128.5t8 125.5q0 64 -12 119t-39.5 95t-72 63t-110.5 23q-70 0 -124.5 -27.5t-95.5 -73t-69 -104.5t-45.5 -122.5t-25 -127t-7.5 -116.5q0 -63 12 -117.5t39.5 -94t72.5 -62.5t111 -23zM823 1309h-106l-231 643h297z" />
    <glyph glyph-name="oacute" unicode="&#xf3;" horiz-adv-x="1154" 
d="M153 429q0 84 15 171.5t46.5 168.5t79.5 152.5t114 125t150 84t188 30.5q118 0 197.5 -36.5t127.5 -98t68.5 -142t20.5 -168.5q0 -149 -42 -283t-119.5 -234.5t-187.5 -159.5t-245 -59q-95 0 -171 30.5t-130 88.5t-83 141.5t-29 188.5zM591 136q68 0 122 25.5t94.5 68.5
t69 100t46.5 120t26 128.5t8 125.5q0 64 -12 119t-39.5 95t-72 63t-110.5 23q-70 0 -124.5 -27.5t-95.5 -73t-69 -104.5t-45.5 -122.5t-25 -127t-7.5 -116.5q0 -63 12 -117.5t39.5 -94t72.5 -62.5t111 -23zM781 1289h-149l188 639h276z" />
    <glyph glyph-name="ocircumflex" unicode="&#xf4;" horiz-adv-x="1154" 
d="M153 429q0 84 15 171.5t46.5 168.5t79.5 152.5t114 125t150 84t188 30.5q118 0 197.5 -36.5t127.5 -98t68.5 -142t20.5 -168.5q0 -149 -42 -283t-119.5 -234.5t-187.5 -159.5t-245 -59q-95 0 -171 30.5t-130 88.5t-83 141.5t-29 188.5zM591 136q68 0 122 25.5t94.5 68.5
t69 100t46.5 120t26 128.5t8 125.5q0 64 -12 119t-39.5 95t-72 63t-110.5 23q-70 0 -124.5 -27.5t-95.5 -73t-69 -104.5t-45.5 -122.5t-25 -127t-7.5 -116.5q0 -63 12 -117.5t39.5 -94t72.5 -62.5t111 -23zM782 1797h140l127 -557h-164l-64 318l-181 -318h-183z" />
    <glyph glyph-name="otilde" unicode="&#xf5;" horiz-adv-x="1154" 
d="M153 429q0 84 15 171.5t46.5 168.5t79.5 152.5t114 125t150 84t188 30.5q118 0 197.5 -36.5t127.5 -98t68.5 -142t20.5 -168.5q0 -149 -42 -283t-119.5 -234.5t-187.5 -159.5t-245 -59q-95 0 -171 30.5t-130 88.5t-83 141.5t-29 188.5zM591 136q68 0 122 25.5t94.5 68.5
t69 100t46.5 120t26 128.5t8 125.5q0 64 -12 119t-39.5 95t-72 63t-110.5 23q-70 0 -124.5 -27.5t-95.5 -73t-69 -104.5t-45.5 -122.5t-25 -127t-7.5 -116.5q0 -63 12 -117.5t39.5 -94t72.5 -62.5t111 -23zM950 1288q-52 0 -101 20t-93.5 44l-81.5 44t-65 20
q-14 0 -26.5 -3.5t-22.5 -14t-16 -30.5t-7 -54h-158q2 67 20 117t48.5 83t72 49t90.5 16q52 0 96 -19.5t83 -43.5t74.5 -43.5t70.5 -19.5q17 0 30 3.5t22 14t14 29.5t6 49h159q-2 -71 -19.5 -120.5t-46.5 -80.5t-67.5 -45.5t-81.5 -14.5z" />
    <glyph glyph-name="odieresis" unicode="&#xf6;" horiz-adv-x="1154" 
d="M153 429q0 84 15 171.5t46.5 168.5t79.5 152.5t114 125t150 84t188 30.5q118 0 197.5 -36.5t127.5 -98t68.5 -142t20.5 -168.5q0 -149 -42 -283t-119.5 -234.5t-187.5 -159.5t-245 -59q-95 0 -171 30.5t-130 88.5t-83 141.5t-29 188.5zM591 136q68 0 122 25.5t94.5 68.5
t69 100t46.5 120t26 128.5t8 125.5q0 64 -12 119t-39.5 95t-72 63t-110.5 23q-70 0 -124.5 -27.5t-95.5 -73t-69 -104.5t-45.5 -122.5t-25 -127t-7.5 -116.5q0 -63 12 -117.5t39.5 -94t72.5 -62.5t111 -23zM645 1449q-1 -32 -14 -60.5t-33 -50.5t-46 -35t-53 -13
q-24 0 -45 9t-36 25t-23.5 37.5t-8.5 47.5q0 32 12 61.5t33 52.5t48 36.5t57 13.5q48 0 78 -33t31 -84v-7zM1108 1447q-1 -31 -14 -59.5t-33 -50.5t-46 -35t-53 -13q-49 0 -80 34t-32 85q0 31 12.5 61t33 52.5t47.5 36.5t56 14q48 0 78 -34t31 -84v-7z" />
    <glyph glyph-name="divide" unicode="&#xf7;" horiz-adv-x="840" 
d="M246 644l47 304h290l-47 -304h-290zM157 0l47 305h289l-46 -305h-290z" />
    <glyph glyph-name="oslash" unicode="&#xf8;" horiz-adv-x="1100" 
d="M518 132q15 -4 29.5 -5t29.5 -1q80 0 137 36t96 94.5t61.5 132.5t33.5 149q6 45 8.5 83.5t1.5 67.5q0 163 -65 235zM153 428q-1 62 9 138t35 154.5t66.5 152.5t103.5 132t145.5 93t193.5 35q70 0 135 -20l70 174l72 -32l-69 -172q93 -55 138.5 -153t50.5 -225
q1 -27 0.5 -54.5t-2.5 -55.5q-7 -72 -25 -146t-48.5 -142t-74.5 -128t-102.5 -104t-132.5 -69.5t-165 -25.5q-50 0 -92 9l-70 -170l-76 34l67 159q-59 24 -102 64t-70.5 93.5t-41.5 118.5t-15 140zM783 969q-48 17 -88 17q-75 0 -131.5 -30.5t-97 -82.5t-66 -119.5
t-39.5 -142.5q-11 -51 -15 -99t-4 -87q2 -189 101 -263z" />
    <glyph glyph-name="ugrave" unicode="&#xf9;" 
d="M495 1141q-2 -13 -8 -58l-15 -109l-19 -140.5l-20.5 -153.5l-20 -147.5l-16.5 -122.5l-5 -42.5t-2 -21.5q-1 -63 15 -105q16 -52 54 -78t95 -27q81 1 155.5 37t149.5 105l122 863h208l-160 -1141h-152q-3 45 -6.5 87t-5.5 87q-79 -94 -166 -144t-184 -50q-336 0 -336 334
q0 14 7 71.5l17 136.5l17 127l17.5 130.5l16.5 124.5l14.5 108.5t11.5 82.5t7 46h209zM845 1305h-106l-231 643h297z" />
    <glyph glyph-name="uacute" unicode="&#xfa;" 
d="M495 1141q-2 -13 -8 -58l-15 -109l-19 -140.5l-20.5 -153.5l-20 -147.5l-16.5 -122.5l-5 -42.5t-2 -21.5q-1 -63 15 -105q16 -52 54 -78t95 -27q81 1 155.5 37t149.5 105l122 863h208l-160 -1141h-152q-3 45 -6.5 87t-5.5 87q-79 -94 -166 -144t-184 -50q-336 0 -336 334
q0 14 7 71.5l17 136.5l17 127l17.5 130.5l16.5 124.5l14.5 108.5t11.5 82.5t7 46h209zM804 1285h-149l188 639h276z" />
    <glyph glyph-name="ucircumflex" unicode="&#xfb;" 
d="M495 1141q-2 -13 -8 -58l-15 -109l-19 -140.5l-20.5 -153.5l-20 -147.5l-16.5 -122.5l-5 -42.5t-2 -21.5q-1 -63 15 -105q16 -52 54 -78t95 -27q81 1 155.5 37t149.5 105l122 863h208l-160 -1141h-152q-3 45 -6.5 87t-5.5 87q-79 -94 -166 -144t-184 -50q-336 0 -336 334
q0 14 7 71.5l17 136.5l17 127l17.5 130.5l16.5 124.5l14.5 108.5t11.5 82.5t7 46h209zM712 1816h140l127 -557h-164l-64 318l-181 -318h-183z" />
    <glyph glyph-name="udieresis" unicode="&#xfc;" 
d="M495 1141q-2 -13 -8 -58l-15 -109l-19 -140.5l-20.5 -153.5l-20 -147.5l-16.5 -122.5l-5 -42.5t-2 -21.5q-1 -63 15 -105q16 -52 54 -78t95 -27q81 1 155.5 37t149.5 105l122 863h208l-160 -1141h-152q-3 45 -6.5 87t-5.5 87q-79 -94 -166 -144t-184 -50q-336 0 -336 334
q0 14 7 71.5l17 136.5l17 127l17.5 130.5l16.5 124.5l14.5 108.5t11.5 82.5t7 46h209zM581 1468q-1 -32 -14 -60.5t-33 -50.5t-46 -35t-53 -13q-24 0 -45 9t-36 25t-23.5 37.5t-8.5 47.5q0 32 12 61.5t33 52.5t48 36.5t57 13.5q48 0 78 -33t31 -84v-7zM1044 1466
q-1 -31 -14 -59.5t-33 -50.5t-46 -35t-53 -13q-49 0 -80 34t-32 85q0 31 12.5 61t33 52.5t47.5 36.5t56 14q48 0 78 -34t31 -84v-7z" />
    <glyph glyph-name="yacute" unicode="&#xfd;" horiz-adv-x="1029" 
d="M64 -309q35 7 65.5 15t56.5 20q84 35 144.5 114.5t108.5 193.5l-25 111l-228 996h198l175 -863l382 863h208l-507 -1080l-70.5 -146t-85.5 -142.5t-109 -122t-140 -84.5q-31 -11 -65 -19t-72 -12zM847 1308h-149l188 639h276z" />
    <glyph glyph-name="thorn" unicode="&#xfe;" horiz-adv-x="1160" 
d="M1166 697q0 -72 -12.5 -153.5t-38.5 -161t-66.5 -152t-96.5 -128t-128.5 -88.5t-162.5 -33q-195 0 -270 114l-77 -548l-200 -26l287 2039h194l-81 -581q66 72 146 113.5t165 41.5q95 0 160 -36t105.5 -97t58 -140t17.5 -164zM683 151q60 0 104.5 27.5t77 73t53.5 103.5
t33.5 119t17.5 120.5t5 107.5q0 262 -178 262q-43 0 -85.5 -15t-81.5 -37t-72.5 -48t-58.5 -48l-78 -550l30.5 -27t55 -38.5t78 -34.5t99.5 -15z" />
    <glyph glyph-name="ydieresis" unicode="&#xff;" horiz-adv-x="1029" 
d="M64 -309q35 7 65.5 15t56.5 20q84 35 144.5 114.5t108.5 193.5l-25 111l-228 996h198l175 -863l382 863h208l-507 -1080l-70.5 -146t-85.5 -142.5t-109 -122t-140 -84.5q-31 -11 -65 -19t-72 -12zM504 1468q-1 -32 -14 -60.5t-33 -50.5t-46 -35t-53 -13q-24 0 -45 9
t-36 25t-23.5 37.5t-8.5 47.5q0 32 12 61.5t33 52.5t48 36.5t57 13.5q48 0 78 -33t31 -84v-7zM967 1466q-1 -31 -14 -59.5t-33 -50.5t-46 -35t-53 -13q-49 0 -80 34t-32 85q0 31 12.5 61t33 52.5t47.5 36.5t56 14q48 0 78 -34t31 -84v-7z" />
    <glyph glyph-name="Amacron" unicode="&#x100;" horiz-adv-x="1317" 
d="M877 1403l-163 -362l-245 -538h531l-75 529zM757 1586h288l244 -1586h-215l-55 387h-600l-175 -387h-218zM1350 1730h-672l24 169h671z" />
    <glyph glyph-name="amacron" unicode="&#x101;" horiz-adv-x="1125" 
d="M1139 1049l-152 -1049h-153l-5 190q-26 -48 -60.5 -87t-76.5 -66.5t-90.5 -42t-100.5 -14.5q-95 0 -161 32.5t-108 89.5t-61 133.5t-19 165.5q0 80 20.5 168t59 172.5t93 160.5t122 133.5t147 91.5t167.5 34q46 0 94.5 -9t93.5 -22.5t82.5 -29t61.5 -28.5zM351 414
q0 -147 50.5 -212.5t154.5 -65.5q46 0 88 16.5t77.5 41.5t63 54t43.5 53l101 672q-3 2 -18 7t-37.5 10.5t-50 10t-54.5 4.5q-51 0 -101.5 -22t-97 -61.5t-86.5 -94.5t-69.5 -120.5t-46.5 -140t-17 -152.5zM1119 1295h-672l24 169h671z" />
    <glyph glyph-name="Abreve" unicode="&#x102;" horiz-adv-x="1317" 
d="M877 1403l-163 -362l-245 -538h531l-75 529zM757 1586h288l244 -1586h-215l-55 387h-600l-175 -387h-218zM1317 1966q-2 -9 -3.5 -17.5t-4.5 -17.5q-25 -109 -97.5 -167.5t-201.5 -58.5q-120 0 -174.5 51t-55.5 147q-1 14 0.5 30t3.5 33h134q-3 -17 -3 -30
q-1 -22 5.5 -38.5t17.5 -29.5q24 -45 92 -45q64 0 104 36.5t51 106.5h132z" />
    <glyph glyph-name="abreve" unicode="&#x103;" horiz-adv-x="1125" 
d="M1139 1049l-152 -1049h-153l-5 190q-26 -48 -60.5 -87t-76.5 -66.5t-90.5 -42t-100.5 -14.5q-95 0 -161 32.5t-108 89.5t-61 133.5t-19 165.5q0 80 20.5 168t59 172.5t93 160.5t122 133.5t147 91.5t167.5 34q46 0 94.5 -9t93.5 -22.5t82.5 -29t61.5 -28.5zM351 414
q0 -147 50.5 -212.5t154.5 -65.5q46 0 88 16.5t77.5 41.5t63 54t43.5 53l101 672q-3 2 -18 7t-37.5 10.5t-50 10t-54.5 4.5q-51 0 -101.5 -22t-97 -61.5t-86.5 -94.5t-69.5 -120.5t-46.5 -140t-17 -152.5zM1086 1531q-2 -9 -3.5 -17.5t-4.5 -17.5q-25 -109 -97.5 -167.5
t-201.5 -58.5q-120 0 -174.5 51t-55.5 147q-1 14 0.5 30t3.5 33h134q-3 -17 -3 -30q-1 -22 5.5 -38.5t17.5 -29.5q24 -45 92 -45q64 0 104 36.5t51 106.5h132z" />
    <glyph glyph-name="Aogonek" unicode="&#x104;" horiz-adv-x="1317" 
d="M877 1403l-163 -362l-245 -538h531l-75 529zM757 1586h288l244 -1586h-215l-55 387h-600l-175 -387h-218zM1238 -519q-25 -8 -55 -13q-26 -5 -59 -9t-69 -4q-47 0 -95 10t-86.5 36t-63 72.5t-24.5 120.5q0 36 12.5 69.5t32.5 63t46.5 55.5t53.5 47q64 50 146 90h106
q-73 -49 -130 -104q-24 -23 -47.5 -50t-42 -56t-29.5 -59t-11 -60q0 -35 13.5 -57t35.5 -35t50 -18t57 -5t57.5 3.5t51.5 8.5q26 5 50 12v-118z" />
    <glyph glyph-name="aogonek" unicode="&#x105;" horiz-adv-x="1125" 
d="M1139 1049l-152 -1049h-153l-5 190q-26 -48 -60.5 -87t-76.5 -66.5t-90.5 -42t-100.5 -14.5q-95 0 -161 32.5t-108 89.5t-61 133.5t-19 165.5q0 80 20.5 168t59 172.5t93 160.5t122 133.5t147 91.5t167.5 34q46 0 94.5 -9t93.5 -22.5t82.5 -29t61.5 -28.5zM351 414
q0 -147 50.5 -212.5t154.5 -65.5q46 0 88 16.5t77.5 41.5t63 54t43.5 53l101 672q-3 2 -18 7t-37.5 10.5t-50 10t-54.5 4.5q-51 0 -101.5 -22t-97 -61.5t-86.5 -94.5t-69.5 -120.5t-46.5 -140t-17 -152.5zM1014 -519q-25 -8 -55 -13q-26 -5 -59 -9t-69 -4q-47 0 -95 10
t-86.5 36t-63 72.5t-24.5 120.5q0 36 12.5 69.5t32.5 63t46.5 55.5t53.5 47q64 50 146 90h106q-73 -49 -130 -104q-24 -23 -47.5 -50t-42 -56t-29.5 -59t-11 -60q0 -35 13.5 -57t35.5 -35t50 -18t57 -5t57.5 3.5t51.5 8.5q26 5 50 12v-118z" />
    <glyph glyph-name="Cacute" unicode="&#x106;" horiz-adv-x="1190" 
d="M197 541q0 138 21.5 271.5t64 253t106 220t147.5 174t189 114.5t230 41q54 0 102.5 -6t96 -17.5t97 -27.5l106.5 -36l-75 -174q-86 34 -162.5 56t-157.5 22q-94 0 -171 -33.5t-137.5 -93.5t-104.5 -142.5t-73 -179.5t-43 -205.5t-14 -220.5q0 -212 84 -313.5t249 -101.5
q38 0 82 9t91.5 24t96 34.5l96.5 40.5l36 -167l-100.5 -46t-103.5 -39.5t-110 -27.5t-119 -10q-254 0 -389 146.5t-135 434.5zM1184 1743h-149l188 639h276z" />
    <glyph glyph-name="cacute" unicode="&#x107;" horiz-adv-x="973" 
d="M153 424q0 168 48 304t128.5 232.5t186 148.5t219.5 52q103 0 184 -29t153 -87l-78 -152q-16 20 -44 40t-62 35.5t-72 25.5t-75 10q-78 0 -137.5 -30t-103 -81.5t-72 -120.5t-44.5 -146q-12 -52 -17.5 -102t-5.5 -95q-1 -148 58.5 -220.5t170.5 -72.5q57 0 111 16t99 40
q24 13 47 29l46 33l28 -149q-94 -62 -185 -93t-193 -32q-83 1 -154.5 27.5t-124 80.5t-82.5 137.5t-29 198.5zM853 1308h-149l188 639h276z" />
    <glyph glyph-name="Ccircumflex" unicode="&#x108;" horiz-adv-x="1190" 
d="M197 541q0 138 21.5 271.5t64 253t106 220t147.5 174t189 114.5t230 41q54 0 102.5 -6t96 -17.5t97 -27.5l106.5 -36l-75 -174q-86 34 -162.5 56t-157.5 22q-94 0 -171 -33.5t-137.5 -93.5t-104.5 -142.5t-73 -179.5t-43 -205.5t-14 -220.5q0 -212 84 -313.5t249 -101.5
q38 0 82 9t91.5 24t96 34.5l96.5 40.5l36 -167l-100.5 -46t-103.5 -39.5t-110 -27.5t-119 -10q-254 0 -389 146.5t-135 434.5zM972 2251h140l127 -557h-164l-64 318l-181 -318h-183z" />
    <glyph glyph-name="ccircumflex" unicode="&#x109;" horiz-adv-x="973" 
d="M153 424q0 168 48 304t128.5 232.5t186 148.5t219.5 52q103 0 184 -29t153 -87l-78 -152q-16 20 -44 40t-62 35.5t-72 25.5t-75 10q-78 0 -137.5 -30t-103 -81.5t-72 -120.5t-44.5 -146q-12 -52 -17.5 -102t-5.5 -95q-1 -148 58.5 -220.5t170.5 -72.5q57 0 111 16t99 40
q24 13 47 29l46 33l28 -149q-94 -62 -185 -93t-193 -32q-83 1 -154.5 27.5t-124 80.5t-82.5 137.5t-29 198.5zM641 1816h140l127 -557h-164l-64 318l-181 -318h-183z" />
    <glyph glyph-name="Cdotaccent" unicode="&#x10a;" horiz-adv-x="1190" 
d="M197 541q0 138 21.5 271.5t64 253t106 220t147.5 174t189 114.5t230 41q54 0 102.5 -6t96 -17.5t97 -27.5l106.5 -36l-75 -174q-86 34 -162.5 56t-157.5 22q-94 0 -171 -33.5t-137.5 -93.5t-104.5 -142.5t-73 -179.5t-43 -205.5t-14 -220.5q0 -212 84 -313.5t249 -101.5
q38 0 82 9t91.5 24t96 34.5l96.5 40.5l36 -167l-100.5 -46t-103.5 -39.5t-110 -27.5t-119 -10q-254 0 -389 146.5t-135 434.5zM1195 1767h-300l46 326h298z" />
    <glyph glyph-name="cdotaccent" unicode="&#x10b;" horiz-adv-x="973" 
d="M153 424q0 168 48 304t128.5 232.5t186 148.5t219.5 52q103 0 184 -29t153 -87l-78 -152q-16 20 -44 40t-62 35.5t-72 25.5t-75 10q-78 0 -137.5 -30t-103 -81.5t-72 -120.5t-44.5 -146q-12 -52 -17.5 -102t-5.5 -95q-1 -148 58.5 -220.5t170.5 -72.5q57 0 111 16t99 40
q24 13 47 29l46 33l28 -149q-94 -62 -185 -93t-193 -32q-83 1 -154.5 27.5t-124 80.5t-82.5 137.5t-29 198.5zM864 1332h-300l46 326h298z" />
    <glyph glyph-name="Ccaron" unicode="&#x10c;" horiz-adv-x="1190" 
d="M197 541q0 138 21.5 271.5t64 253t106 220t147.5 174t189 114.5t230 41q54 0 102.5 -6t96 -17.5t97 -27.5l106.5 -36l-75 -174q-86 34 -162.5 56t-157.5 22q-94 0 -171 -33.5t-137.5 -93.5t-104.5 -142.5t-73 -179.5t-43 -205.5t-14 -220.5q0 -212 84 -313.5t249 -101.5
q38 0 82 9t91.5 24t96 34.5l96.5 40.5l36 -167l-100.5 -46t-103.5 -39.5t-110 -27.5t-119 -10q-254 0 -389 146.5t-135 434.5zM1124 1723h-140l-118 558h163l65 -318l181 318h183z" />
    <glyph glyph-name="ccaron" unicode="&#x10d;" horiz-adv-x="973" 
d="M153 424q0 168 48 304t128.5 232.5t186 148.5t219.5 52q103 0 184 -29t153 -87l-78 -152q-16 20 -44 40t-62 35.5t-72 25.5t-75 10q-78 0 -137.5 -30t-103 -81.5t-72 -120.5t-44.5 -146q-12 -52 -17.5 -102t-5.5 -95q-1 -148 58.5 -220.5t170.5 -72.5q57 0 111 16t99 40
q24 13 47 29l46 33l28 -149q-94 -62 -185 -93t-193 -32q-83 1 -154.5 27.5t-124 80.5t-82.5 137.5t-29 198.5zM793 1288h-140l-118 558h163l65 -318l181 318h183z" />
    <glyph glyph-name="Dcaron" unicode="&#x10e;" horiz-adv-x="1371" 
d="M1172 993q0 220 -82 323.5t-254 103.5h-292l-180 -1255h307q104 0 181.5 39.5t133 105t92 151t57.5 177.5t29 184t8 171zM1391 994q0 -96 -13 -207t-44.5 -221.5t-85.5 -212.5t-136 -180.5t-195.5 -125.5t-263.5 -47h-527l225 1586h506q129 0 228.5 -35.5t167.5 -108
t103 -184t35 -264.5zM939 1723h-140l-118 558h163l65 -318l181 318h183z" />
    <glyph glyph-name="dcaron" unicode="&#x10f;" horiz-adv-x="1875" 
d="M651 1161q51 0 94 -16.5t77 -41.5t59 -55.5t40 -58.5l91 644l206 24l-237 -1657h-140l-10 179q-31 -42 -69.5 -78.5t-82.5 -63.5t-92 -42t-98 -15q-93 0 -157.5 34t-104.5 93t-58 138t-18 169q0 77 13 162.5t40 168.5t68 158t96.5 132.5t126 91.5t156.5 34zM350 446
q-2 -27 -1 -54.5t5 -53.5q5 -42 17 -79t33 -64.5t52.5 -43t75.5 -15.5q46 0 89.5 14.5t81 37t68 48.5t50.5 49l27.5 197l20 144.5l14.5 101.5t9.5 67.5t6 41.5t4.5 25l-23.5 28t-52 48.5t-77 45.5t-99.5 20q-58 0 -102.5 -29.5t-77.5 -77t-55.5 -107.5t-37 -122t-21 -120.5
t-7.5 -101.5zM1311 1265l30 326h300l-30 -324q-6 -63 -28.5 -109t-57.5 -78.5t-81 -54t-99 -36.5l-46 101q60 20 99 64.5t50 110.5h-137z" />
    <glyph glyph-name="Dcroat" unicode="&#x110;" horiz-adv-x="1371" 
d="M1172 993q0 220 -82 323.5t-254 103.5h-292l-180 -1255h307q104 0 181.5 39.5t133 105t92 151t57.5 177.5t29 184t8 171zM1391 994q0 -96 -13 -207t-44.5 -221.5t-85.5 -212.5t-136 -180.5t-195.5 -125.5t-263.5 -47h-527l225 1586h506q129 0 228.5 -35.5t167.5 -108
t103 -184t35 -264.5zM784 772h-672l24 169h671z" />
    <glyph glyph-name="dcroat" unicode="&#x111;" horiz-adv-x="1123" 
d="M651 1161q51 0 94 -16.5t77 -41.5t59 -55.5t40 -58.5l91 644l206 24l-237 -1657h-140l-10 179q-31 -42 -69.5 -78.5t-82.5 -63.5t-92 -42t-98 -15q-93 0 -157.5 34t-104.5 93t-58 138t-18 169q0 77 13 162.5t40 168.5t68 158t96.5 132.5t126 91.5t156.5 34zM350 446
q-2 -27 -1 -54.5t5 -53.5q5 -42 17 -79t33 -64.5t52.5 -43t75.5 -15.5q46 0 89.5 14.5t81 37t68 48.5t50.5 49l27.5 197l20 144.5l14.5 101.5t9.5 67.5t6 41.5t4.5 25l-23.5 28t-52 48.5t-77 45.5t-99.5 20q-58 0 -102.5 -29.5t-77.5 -77t-55.5 -107.5t-37 -122t-21 -120.5
t-7.5 -101.5zM1275 1285h-612l22 154h611z" />
    <glyph glyph-name="Emacron" unicode="&#x112;" horiz-adv-x="1109" 
d="M1053 0h-927l223 1586h914l-25 -166h-698l-72 -513h614l-20 -143h-615l-85 -599h717zM1168 1730h-672l24 169h671z" />
    <glyph glyph-name="emacron" unicode="&#x113;" horiz-adv-x="1068" 
d="M394 665q129 13 217.5 25t146 23.5t89 22t46 20t17 18t2.5 15.5q0 109 -47.5 164.5t-132.5 55.5q-64 0 -119 -24t-98.5 -68.5t-74 -108.5t-46.5 -143zM948 95q-88 -57 -186 -86t-186 -29q-103 0 -182 30t-133 86t-81.5 137t-27.5 183q0 88 17 177.5t50.5 172t82.5 155
t113 126t143 84.5t172 31q186 0 272.5 -99t86.5 -286q0 -19 -4 -41t-25 -44.5t-65 -45t-123.5 -42.5t-200.5 -37t-296 -29q-5 -35 -8 -67t-3 -60q0 -140 68 -209t188 -69q78 0 149.5 31.5t143.5 85.5zM1094 1295h-672l24 169h671z" />
    <glyph glyph-name="Ebreve" unicode="&#x114;" horiz-adv-x="1109" 
d="M1053 0h-927l223 1586h914l-25 -166h-698l-72 -513h614l-20 -143h-615l-85 -599h717zM1135 1966q-2 -9 -3.5 -17.5t-4.5 -17.5q-25 -109 -97.5 -167.5t-201.5 -58.5q-120 0 -174.5 51t-55.5 147q-1 14 0.5 30t3.5 33h134q-3 -17 -3 -30q-1 -22 5.5 -38.5t17.5 -29.5
q24 -45 92 -45q64 0 104 36.5t51 106.5h132z" />
    <glyph glyph-name="ebreve" unicode="&#x115;" horiz-adv-x="1068" 
d="M394 665q129 13 217.5 25t146 23.5t89 22t46 20t17 18t2.5 15.5q0 109 -47.5 164.5t-132.5 55.5q-64 0 -119 -24t-98.5 -68.5t-74 -108.5t-46.5 -143zM948 95q-88 -57 -186 -86t-186 -29q-103 0 -182 30t-133 86t-81.5 137t-27.5 183q0 88 17 177.5t50.5 172t82.5 155
t113 126t143 84.5t172 31q186 0 272.5 -99t86.5 -286q0 -19 -4 -41t-25 -44.5t-65 -45t-123.5 -42.5t-200.5 -37t-296 -29q-5 -35 -8 -67t-3 -60q0 -140 68 -209t188 -69q78 0 149.5 31.5t143.5 85.5zM1061 1531q-2 -9 -3.5 -17.5t-4.5 -17.5q-25 -109 -97.5 -167.5
t-201.5 -58.5q-120 0 -174.5 51t-55.5 147q-1 14 0.5 30t3.5 33h134q-3 -17 -3 -30q-1 -22 5.5 -38.5t17.5 -29.5q24 -45 92 -45q64 0 104 36.5t51 106.5h132z" />
    <glyph glyph-name="Edotaccent" unicode="&#x116;" horiz-adv-x="1109" 
d="M1053 0h-927l223 1586h914l-25 -166h-698l-72 -513h614l-20 -143h-615l-85 -599h717zM946 1767h-300l46 326h298z" />
    <glyph glyph-name="edotaccent" unicode="&#x117;" horiz-adv-x="1068" 
d="M394 665q129 13 217.5 25t146 23.5t89 22t46 20t17 18t2.5 15.5q0 109 -47.5 164.5t-132.5 55.5q-64 0 -119 -24t-98.5 -68.5t-74 -108.5t-46.5 -143zM948 95q-88 -57 -186 -86t-186 -29q-103 0 -182 30t-133 86t-81.5 137t-27.5 183q0 88 17 177.5t50.5 172t82.5 155
t113 126t143 84.5t172 31q186 0 272.5 -99t86.5 -286q0 -19 -4 -41t-25 -44.5t-65 -45t-123.5 -42.5t-200.5 -37t-296 -29q-5 -35 -8 -67t-3 -60q0 -140 68 -209t188 -69q78 0 149.5 31.5t143.5 85.5zM872 1332h-300l46 326h298z" />
    <glyph glyph-name="Eogonek" unicode="&#x118;" horiz-adv-x="1109" 
d="M1053 0h-927l223 1586h914l-25 -166h-698l-72 -513h614l-20 -143h-615l-85 -599h717zM917 -519q-25 -8 -55 -13q-26 -5 -59 -9t-69 -4q-47 0 -95 10t-86.5 36t-63 72.5t-24.5 120.5q0 36 12.5 69.5t32.5 63t46.5 55.5t53.5 47q64 50 146 90h106q-73 -49 -130 -104
q-24 -23 -47.5 -50t-42 -56t-29.5 -59t-11 -60q0 -35 13.5 -57t35.5 -35t50 -18t57 -5t57.5 3.5t51.5 8.5q26 5 50 12v-118z" />
    <glyph glyph-name="eogonek" unicode="&#x119;" horiz-adv-x="1068" 
d="M394 665q129 13 217.5 25t146 23.5t89 22t46 20t17 18t2.5 15.5q0 109 -47.5 164.5t-132.5 55.5q-64 0 -119 -24t-98.5 -68.5t-74 -108.5t-46.5 -143zM948 95q-88 -57 -186 -86t-186 -29q-103 0 -182 30t-133 86t-81.5 137t-27.5 183q0 88 17 177.5t50.5 172t82.5 155
t113 126t143 84.5t172 31q186 0 272.5 -99t86.5 -286q0 -19 -4 -41t-25 -44.5t-65 -45t-123.5 -42.5t-200.5 -37t-296 -29q-5 -35 -8 -67t-3 -60q0 -140 68 -209t188 -69q78 0 149.5 31.5t143.5 85.5zM843 -519q-25 -8 -55 -13q-26 -5 -59 -9t-69 -4q-47 0 -95 10t-86.5 36
t-63 72.5t-24.5 120.5q0 36 12.5 69.5t32.5 63t46.5 55.5t53.5 47q64 50 146 90h106q-73 -49 -130 -104q-24 -23 -47.5 -50t-42 -56t-29.5 -59t-11 -60q0 -35 13.5 -57t35.5 -35t50 -18t57 -5t57.5 3.5t51.5 8.5q26 5 50 12v-118z" />
    <glyph glyph-name="Ecaron" unicode="&#x11a;" horiz-adv-x="1109" 
d="M1053 0h-927l223 1586h914l-25 -166h-698l-72 -513h614l-20 -143h-615l-85 -599h717zM875 1723h-140l-118 558h163l65 -318l181 318h183z" />
    <glyph glyph-name="ecaron" unicode="&#x11b;" horiz-adv-x="1068" 
d="M394 665q129 13 217.5 25t146 23.5t89 22t46 20t17 18t2.5 15.5q0 109 -47.5 164.5t-132.5 55.5q-64 0 -119 -24t-98.5 -68.5t-74 -108.5t-46.5 -143zM948 95q-88 -57 -186 -86t-186 -29q-103 0 -182 30t-133 86t-81.5 137t-27.5 183q0 88 17 177.5t50.5 172t82.5 155
t113 126t143 84.5t172 31q186 0 272.5 -99t86.5 -286q0 -19 -4 -41t-25 -44.5t-65 -45t-123.5 -42.5t-200.5 -37t-296 -29q-5 -35 -8 -67t-3 -60q0 -140 68 -209t188 -69q78 0 149.5 31.5t143.5 85.5zM801 1288h-140l-118 558h163l65 -318l181 318h183z" />
    <glyph glyph-name="Gcircumflex" unicode="&#x11c;" horiz-adv-x="1401" 
d="M197 555q0 117 18.5 241t58 241.5t101.5 222.5t149.5 184t202.5 125t259 46q97 -1 203 -32.5t217 -103.5l-77 -158q-101 50 -186.5 80.5t-171.5 30.5q-109 0 -192 -41t-145 -109t-103.5 -157.5t-66.5 -185.5t-36 -193t-11 -181q0 -113 22.5 -193.5t66 -131.5t108.5 -75
t149 -24q80 0 145.5 19t113.5 51t78.5 74.5t40.5 89.5q2 6 2.5 11.5t1.5 11.5l37 277h-364l23 154h551l-117 -829h-123l-4 164q-21 -33 -56 -69t-86.5 -66t-120.5 -49.5t-158 -19.5q-257 0 -393.5 146.5t-136.5 448.5zM1032 2251h140l127 -557h-164l-64 318l-181 -318h-183z
" />
    <glyph glyph-name="gcircumflex" unicode="&#x11d;" horiz-adv-x="1108" 
d="M421 781q0 -47 17 -81.5t44 -58t59.5 -35.5t64.5 -13q75 4 128 22.5t86.5 50t49 75t15.5 99.5q0 42 -16 74.5t-44 54t-65.5 33t-79.5 11.5q-69 0 -118.5 -16.5t-80.5 -46.5t-45.5 -73t-14.5 -96zM226 -131q0 -78 73 -112.5t231 -34.5q175 0 262 45.5t87 142.5
q0 40 -20 68t-52.5 46.5t-74.5 30t-87 18.5l-236 33q-87 -57 -135 -118.5t-48 -118.5zM1063 837q0 -151 -101.5 -249t-303.5 -146l-252 -56q-92 -20 -102 -65q9 -30 47.5 -47.5t90 -28t109 -17t104.5 -13.5q101 -17 176 -40t125 -58t74.5 -85t24.5 -120q0 -64 -22.5 -114.5
t-62 -88.5t-93.5 -65.5t-115.5 -44.5t-129 -25t-134.5 -8q-101 0 -182.5 19t-140 53.5t-90 82t-31.5 103.5q4 77 30 129t67 90q18 17 40.5 33.5l43 30.5l36 24t19.5 14l-16 7q-17 6 -38 19t-41 30.5t-26 38.5q-18 43 -15 97q3 63 51 103.5t148 65.5l102 26q-38 7 -76.5 26
t-70 50.5t-51.5 74.5t-20 99q0 78 28.5 147t83.5 120.5t135 81.5t184 30q83 0 146.5 -17.5t120.5 -58.5q55 26 100 41.5t90 23.5q33 9 64 13.5t65 7.5l-7 -172h-246q34 -54 48 -92t14 -70zM683 1816h140l127 -557h-164l-64 318l-181 -318h-183z" />
    <glyph glyph-name="Gbreve" unicode="&#x11e;" horiz-adv-x="1401" 
d="M197 555q0 117 18.5 241t58 241.5t101.5 222.5t149.5 184t202.5 125t259 46q97 -1 203 -32.5t217 -103.5l-77 -158q-101 50 -186.5 80.5t-171.5 30.5q-109 0 -192 -41t-145 -109t-103.5 -157.5t-66.5 -185.5t-36 -193t-11 -181q0 -113 22.5 -193.5t66 -131.5t108.5 -75
t149 -24q80 0 145.5 19t113.5 51t78.5 74.5t40.5 89.5q2 6 2.5 11.5t1.5 11.5l37 277h-364l23 154h551l-117 -829h-123l-4 164q-21 -33 -56 -69t-86.5 -66t-120.5 -49.5t-158 -19.5q-257 0 -393.5 146.5t-136.5 448.5zM1242 1966q-2 -9 -3.5 -17.5t-4.5 -17.5
q-25 -109 -97.5 -167.5t-201.5 -58.5q-120 0 -174.5 51t-55.5 147q-1 14 0.5 30t3.5 33h134q-3 -17 -3 -30q-1 -22 5.5 -38.5t17.5 -29.5q24 -45 92 -45q64 0 104 36.5t51 106.5h132z" />
    <glyph glyph-name="gbreve" unicode="&#x11f;" horiz-adv-x="1108" 
d="M421 781q0 -47 17 -81.5t44 -58t59.5 -35.5t64.5 -13q75 4 128 22.5t86.5 50t49 75t15.5 99.5q0 42 -16 74.5t-44 54t-65.5 33t-79.5 11.5q-69 0 -118.5 -16.5t-80.5 -46.5t-45.5 -73t-14.5 -96zM226 -131q0 -78 73 -112.5t231 -34.5q175 0 262 45.5t87 142.5
q0 40 -20 68t-52.5 46.5t-74.5 30t-87 18.5l-236 33q-87 -57 -135 -118.5t-48 -118.5zM1063 837q0 -151 -101.5 -249t-303.5 -146l-252 -56q-92 -20 -102 -65q9 -30 47.5 -47.5t90 -28t109 -17t104.5 -13.5q101 -17 176 -40t125 -58t74.5 -85t24.5 -120q0 -64 -22.5 -114.5
t-62 -88.5t-93.5 -65.5t-115.5 -44.5t-129 -25t-134.5 -8q-101 0 -182.5 19t-140 53.5t-90 82t-31.5 103.5q4 77 30 129t67 90q18 17 40.5 33.5l43 30.5l36 24t19.5 14l-16 7q-17 6 -38 19t-41 30.5t-26 38.5q-18 43 -15 97q3 63 51 103.5t148 65.5l102 26q-38 7 -76.5 26
t-70 50.5t-51.5 74.5t-20 99q0 78 28.5 147t83.5 120.5t135 81.5t184 30q83 0 146.5 -17.5t120.5 -58.5q55 26 100 41.5t90 23.5q33 9 64 13.5t65 7.5l-7 -172h-246q34 -54 48 -92t14 -70zM1095 1531q-2 -9 -3.5 -17.5t-4.5 -17.5q-25 -109 -97.5 -167.5t-201.5 -58.5
q-120 0 -174.5 51t-55.5 147q-1 14 0.5 30t3.5 33h134q-3 -17 -3 -30q-1 -22 5.5 -38.5t17.5 -29.5q24 -45 92 -45q64 0 104 36.5t51 106.5h132z" />
    <glyph glyph-name="Gdotaccent" unicode="&#x120;" horiz-adv-x="1401" 
d="M197 555q0 117 18.5 241t58 241.5t101.5 222.5t149.5 184t202.5 125t259 46q97 -1 203 -32.5t217 -103.5l-77 -158q-101 50 -186.5 80.5t-171.5 30.5q-109 0 -192 -41t-145 -109t-103.5 -157.5t-66.5 -185.5t-36 -193t-11 -181q0 -113 22.5 -193.5t66 -131.5t108.5 -75
t149 -24q80 0 145.5 19t113.5 51t78.5 74.5t40.5 89.5q2 6 2.5 11.5t1.5 11.5l37 277h-364l23 154h551l-117 -829h-123l-4 164q-21 -33 -56 -69t-86.5 -66t-120.5 -49.5t-158 -19.5q-257 0 -393.5 146.5t-136.5 448.5zM1154 1767h-300l46 326h298z" />
    <glyph glyph-name="gdotaccent" unicode="&#x121;" horiz-adv-x="1108" 
d="M421 781q0 -47 17 -81.5t44 -58t59.5 -35.5t64.5 -13q75 4 128 22.5t86.5 50t49 75t15.5 99.5q0 42 -16 74.5t-44 54t-65.5 33t-79.5 11.5q-69 0 -118.5 -16.5t-80.5 -46.5t-45.5 -73t-14.5 -96zM226 -131q0 -78 73 -112.5t231 -34.5q175 0 262 45.5t87 142.5
q0 40 -20 68t-52.5 46.5t-74.5 30t-87 18.5l-236 33q-87 -57 -135 -118.5t-48 -118.5zM1063 837q0 -151 -101.5 -249t-303.5 -146l-252 -56q-92 -20 -102 -65q9 -30 47.5 -47.5t90 -28t109 -17t104.5 -13.5q101 -17 176 -40t125 -58t74.5 -85t24.5 -120q0 -64 -22.5 -114.5
t-62 -88.5t-93.5 -65.5t-115.5 -44.5t-129 -25t-134.5 -8q-101 0 -182.5 19t-140 53.5t-90 82t-31.5 103.5q4 77 30 129t67 90q18 17 40.5 33.5l43 30.5l36 24t19.5 14l-16 7q-17 6 -38 19t-41 30.5t-26 38.5q-18 43 -15 97q3 63 51 103.5t148 65.5l102 26q-38 7 -76.5 26
t-70 50.5t-51.5 74.5t-20 99q0 78 28.5 147t83.5 120.5t135 81.5t184 30q83 0 146.5 -17.5t120.5 -58.5q55 26 100 41.5t90 23.5q33 9 64 13.5t65 7.5l-7 -172h-246q34 -54 48 -92t14 -70zM906 1332h-300l46 326h298z" />
    <glyph glyph-name="Gcommaaccent" unicode="&#x122;" horiz-adv-x="1401" 
d="M197 555q0 117 18.5 241t58 241.5t101.5 222.5t149.5 184t202.5 125t259 46q97 -1 203 -32.5t217 -103.5l-77 -158q-101 50 -186.5 80.5t-171.5 30.5q-109 0 -192 -41t-145 -109t-103.5 -157.5t-66.5 -185.5t-36 -193t-11 -181q0 -113 22.5 -193.5t66 -131.5t108.5 -75
t149 -24q80 0 145.5 19t113.5 51t78.5 74.5t40.5 89.5q2 6 2.5 11.5t1.5 11.5l37 277h-364l23 154h551l-117 -829h-123l-4 164q-21 -33 -56 -69t-86.5 -66t-120.5 -49.5t-158 -19.5q-257 0 -393.5 146.5t-136.5 448.5zM515 -473l46 326h298l-44 -324q-6 -63 -29 -109
t-58 -78.5t-81 -54t-98 -36.5l-46 100q58 20 99 65t50 111h-137z" />
    <glyph glyph-name="gcommaaccent" unicode="&#x123;" horiz-adv-x="1108" 
d="M421 781q0 -47 17 -81.5t44 -58t59.5 -35.5t64.5 -13q75 4 128 22.5t86.5 50t49 75t15.5 99.5q0 42 -16 74.5t-44 54t-65.5 33t-79.5 11.5q-69 0 -118.5 -16.5t-80.5 -46.5t-45.5 -73t-14.5 -96zM226 -131q0 -78 73 -112.5t231 -34.5q175 0 262 45.5t87 142.5
q0 40 -20 68t-52.5 46.5t-74.5 30t-87 18.5l-236 33q-87 -57 -135 -118.5t-48 -118.5zM1063 837q0 -151 -101.5 -249t-303.5 -146l-252 -56q-92 -20 -102 -65q9 -30 47.5 -47.5t90 -28t109 -17t104.5 -13.5q101 -17 176 -40t125 -58t74.5 -85t24.5 -120q0 -64 -22.5 -114.5
t-62 -88.5t-93.5 -65.5t-115.5 -44.5t-129 -25t-134.5 -8q-101 0 -182.5 19t-140 53.5t-90 82t-31.5 103.5q4 77 30 129t67 90q18 17 40.5 33.5l43 30.5l36 24t19.5 14l-16 7q-17 6 -38 19t-41 30.5t-26 38.5q-18 43 -15 97q3 63 51 103.5t148 65.5l102 26q-38 7 -76.5 26
t-70 50.5t-51.5 74.5t-20 99q0 78 28.5 147t83.5 120.5t135 81.5t184 30q83 0 146.5 -17.5t120.5 -58.5q55 26 100 41.5t90 23.5q33 9 64 13.5t65 7.5l-7 -172h-246q34 -54 48 -92t14 -70zM838 1561l-26 -326h-300l27 324q5 63 27 108.5t57 78.5t80.5 54.5t98.5 36.5
l46 -101q-66 -30 -102.5 -70.5t-44.5 -104.5h137z" />
    <glyph glyph-name="Hcircumflex" unicode="&#x124;" horiz-adv-x="1425" 
d="M1065 0l107 754h-725l-107 -754h-215l227 1586h214l-98 -689h724l99 689h214l-227 -1586h-213zM976 2251h140l127 -557h-164l-64 318l-181 -318h-183z" />
    <glyph glyph-name="hcircumflex" unicode="&#x125;" horiz-adv-x="1173" 
d="M571 1660l-97 -685q46 46 88.5 81t86 58.5t90 35t102.5 11.5q74 0 133 -19.5t99.5 -59.5t62 -100.5t21.5 -142.5q0 -31 -2.5 -63.5t-8.5 -69.5l-99 -706h-208l100 708q3 20 5 44t2 48q0 103 -40 153.5t-125 50.5q-53 0 -103 -15.5t-93 -38t-76 -47.5t-51 -44l-122 -859
h-208l231 1636zM893 1816h140l127 -557h-164l-64 318l-181 -318h-183z" />
    <glyph glyph-name="Hbar" unicode="&#x126;" horiz-adv-x="1425" 
d="M1583 1230h-1422l24 169h1421zM1065 0l107 754h-725l-107 -754h-215l227 1586h214l-98 -689h724l99 689h214l-227 -1586h-213z" />
    <glyph glyph-name="hbar" unicode="&#x127;" horiz-adv-x="1173" 
d="M571 1660l-97 -685q46 46 88.5 81t86 58.5t90 35t102.5 11.5q74 0 133 -19.5t99.5 -59.5t62 -100.5t21.5 -142.5q0 -31 -2.5 -63.5t-8.5 -69.5l-99 -706h-208l100 708q3 20 5 44t2 48q0 103 -40 153.5t-125 50.5q-53 0 -103 -15.5t-93 -38t-76 -47.5t-51 -44l-122 -859
h-208l231 1636zM854 1295h-672l24 169h671z" />
    <glyph glyph-name="Itilde" unicode="&#x128;" horiz-adv-x="860" 
d="M142 122h184l193 1335h-183l20 129h580l-20 -129h-186l-193 -1335h186l-20 -122h-579zM832 1713q-52 0 -101 20t-93.5 44l-81.5 44t-65 20q-14 0 -26.5 -3.5t-22.5 -14t-16 -30.5t-7 -54h-158q2 67 20 117t48.5 83t72 49t90.5 16q52 0 96 -19.5t83 -43.5t74.5 -43.5
t70.5 -19.5q17 0 30 3.5t22 14t14 29.5t6 49h159q-2 -71 -19.5 -120.5t-46.5 -80.5t-67.5 -45.5t-81.5 -14.5z" />
    <glyph glyph-name="itilde" unicode="&#x129;" horiz-adv-x="561" 
d="M378 0h-203l161 1141h205zM630 1216q-52 0 -101 20t-93.5 44l-81.5 44t-65 20q-14 0 -26.5 -3.5t-22.5 -14t-16 -30.5t-7 -54h-158q2 67 20 117t48.5 83t72 49t90.5 16q52 0 96 -19.5t83 -43.5t74.5 -43.5t70.5 -19.5q17 0 30 3.5t22 14t14 29.5t6 49h159
q-2 -71 -19.5 -120.5t-46.5 -80.5t-67.5 -45.5t-81.5 -14.5z" />
    <glyph glyph-name="Imacron" unicode="&#x12a;" horiz-adv-x="860" 
d="M142 122h184l193 1335h-183l20 129h580l-20 -129h-186l-193 -1335h186l-20 -122h-579zM1004 1730h-672l24 169h671z" />
    <glyph glyph-name="imacron" unicode="&#x12b;" horiz-adv-x="561" 
d="M378 0h-203l161 1141h205zM763 1245h-672l24 169h671z" />
    <glyph glyph-name="Ibreve" unicode="&#x12c;" horiz-adv-x="860" 
d="M142 122h184l193 1335h-183l20 129h580l-20 -129h-186l-193 -1335h186l-20 -122h-579zM971 1966q-2 -9 -3.5 -17.5t-4.5 -17.5q-25 -109 -97.5 -167.5t-201.5 -58.5q-120 0 -174.5 51t-55.5 147q-1 14 0.5 30t3.5 33h134q-3 -17 -3 -30q-1 -22 5.5 -38.5t17.5 -29.5
q24 -45 92 -45q64 0 104 36.5t51 106.5h132z" />
    <glyph glyph-name="Iogonek" unicode="&#x12e;" horiz-adv-x="860" 
d="M142 122h184l193 1335h-183l20 129h580l-20 -129h-186l-193 -1335h186l-20 -122h-579zM753 -519q-25 -8 -55 -13q-26 -5 -59 -9t-69 -4q-47 0 -95 10t-86.5 36t-63 72.5t-24.5 120.5q0 36 12.5 69.5t32.5 63t46.5 55.5t53.5 47q64 50 146 90h106q-73 -49 -130 -104
q-24 -23 -47.5 -50t-42 -56t-29.5 -59t-11 -60q0 -35 13.5 -57t35.5 -35t50 -18t57 -5t57.5 3.5t51.5 8.5q26 5 50 12v-118z" />
    <glyph glyph-name="iogonek" unicode="&#x12f;" horiz-adv-x="539" 
d="M609 1488q-2 -31 -13 -58.5t-29.5 -47.5t-43 -32t-52.5 -12q-46 0 -74.5 31.5t-27.5 77.5q0 30 11.5 57.5t30.5 49t44.5 34.5t53.5 13q45 0 72.5 -30t27.5 -76v-7zM378 0h-203l161 1141h205z" />
    <glyph glyph-name="Idotaccent" unicode="&#x130;" horiz-adv-x="860" 
d="M142 122h184l193 1335h-183l20 129h580l-20 -129h-186l-193 -1335h186l-20 -122h-579zM806 1679h-300l46 326h298z" />
    <glyph glyph-name="dotlessi" unicode="&#x131;" horiz-adv-x="561" 
d="M378 0h-203l161 1141h205z" />
    <glyph glyph-name="Jcircumflex" unicode="&#x134;" horiz-adv-x="667" 
d="M61 63q77 17 131.5 36.5t92 43.5t60 54t37 68.5t22.5 86.5t16 108l159 1126h213l-149 -1064q-14 -98 -31 -179t-43.5 -146t-64.5 -114.5t-94 -85t-133 -57t-180 -30.5zM695 2183h140l127 -557h-164l-64 318l-181 -318h-183z" />
    <glyph glyph-name="jcircumflex" unicode="&#x135;" horiz-adv-x="607" 
d="M30 -225q58 37 97.5 77t65.5 88.5t42 109t27 138.5l132 953h210l-135 -975q-15 -105 -51 -194.5t-88.5 -158.5t-119.5 -116t-144 -66zM530 1816h140l127 -557h-164l-64 318l-181 -318h-183z" />
    <glyph glyph-name="Kcommaaccent" unicode="&#x136;" horiz-adv-x="1222" 
d="M1189 1586h224l-606 -787l79 -146l364 -653h-233l-405 734h-167l-102 -734h-215l223 1586h214l-100 -715h174zM484 -473l46 326h298l-44 -324q-6 -63 -29 -109t-58 -78.5t-81 -54t-98 -36.5l-46 100q58 20 99 65t50 111h-137z" />
    <glyph glyph-name="kcommaaccent" unicode="&#x137;" horiz-adv-x="1042" 
d="M390 423l-62 -423h-200l232 1635l205 22l-146 -1033l532 517h230l-547 -531l387 -610h-210l-319 505zM368 -473l46 326h298l-44 -324q-6 -63 -29 -109t-58 -78.5t-81 -54t-98 -36.5l-46 100q58 20 99 65t50 111h-137z" />
    <glyph glyph-name="Lacute" unicode="&#x139;" horiz-adv-x="1049" 
d="M1017 0h-889l223 1586h214l-200 -1421h673zM824 1743h-149l188 639h276z" />
    <glyph glyph-name="lacute" unicode="&#x13a;" horiz-adv-x="512" 
d="M588 1657l-237 -1657h-200l232 1633zM569 1712h-149l188 639h276z" />
    <glyph glyph-name="Lcommaaccent" unicode="&#x13b;" horiz-adv-x="1049" 
d="M1017 0h-889l223 1586h214l-200 -1421h673zM297 -473l46 326h298l-44 -324q-6 -63 -29 -109t-58 -78.5t-81 -54t-98 -36.5l-46 100q58 20 99 65t50 111h-137z" />
    <glyph glyph-name="lcommaaccent" unicode="&#x13c;" horiz-adv-x="512" 
d="M588 1657l-237 -1657h-200l232 1633zM83 -473l46 326h298l-44 -324q-6 -63 -29 -109t-58 -78.5t-81 -54t-98 -36.5l-46 100q58 20 99 65t50 111h-137z" />
    <glyph glyph-name="Lcaron" unicode="&#x13d;" horiz-adv-x="1049" 
d="M1017 0h-889l223 1586h214l-200 -1421h673zM662 1259l30 326h300l-30 -324q-6 -63 -28.5 -109t-57.5 -78.5t-81 -54t-99 -36.5l-46 101q60 20 99 64.5t50 110.5h-137z" />
    <glyph glyph-name="lcaron" unicode="&#x13e;" horiz-adv-x="1264" 
d="M588 1657l-237 -1657h-200l232 1633zM700 1265l30 326h300l-30 -324q-6 -63 -28.5 -109t-57.5 -78.5t-81 -54t-99 -36.5l-46 101q60 20 99 64.5t50 110.5h-137z" />
    <glyph glyph-name="Ldot" unicode="&#x13f;" horiz-adv-x="1039" 
d="M1017 0h-889l223 1586h214l-200 -1421h673zM978 1100h-300l46 326h298z" />
    <glyph glyph-name="ldot" unicode="&#x140;" horiz-adv-x="490" 
d="M588 1657l-237 -1657h-200l232 1633z" />
    <glyph glyph-name="Lslash" unicode="&#x141;" horiz-adv-x="1049" 
d="M1017 0h-889l223 1586h214l-200 -1421h673zM68 780l-2 154h787l2 -154h-787z" />
    <glyph glyph-name="lslash" unicode="&#x142;" horiz-adv-x="512" 
d="M588 1657l-237 -1657h-200l232 1633zM1 1093l-2 154h787l2 -154h-787z" />
    <glyph glyph-name="Nacute" unicode="&#x143;" horiz-adv-x="1507" 
d="M1359 0h-287l-183 452l-362 911l-191 -1363h-208l225 1586h289l181 -451l363 -912l190 1363h208zM1097 1743h-149l188 639h276z" />
    <glyph glyph-name="nacute" unicode="&#x144;" horiz-adv-x="1168" 
d="M831 0l40 283.5l29.5 207.5l20.5 146.5t13 101.5q3 26 3.5 39t0.5 23q0 47 -8 84.5t-26 64t-48.5 40.5t-75.5 14q-39 0 -86 -16t-92.5 -39.5t-84 -49.5t-59.5 -46l-120 -853h-210l162 1141h153l8 -176q31 36 77.5 71t100.5 62.5t111 45t109 17.5q301 0 301 -317
q0 -11 -0.5 -21t-2 -23.5l-3.5 -31.5l-5 -43l-14.5 -113.5l-20.5 -152l-28 -200.5l-37 -259h-208zM822 1295h-149l188 639h276z" />
    <glyph glyph-name="Ncommaaccent" unicode="&#x145;" horiz-adv-x="1507" 
d="M1359 0h-287l-183 452l-362 911l-191 -1363h-208l225 1586h289l181 -451l363 -912l190 1363h208zM570 -473l46 326h298l-44 -324q-6 -63 -29 -109t-58 -78.5t-81 -54t-98 -36.5l-46 100q58 20 99 65t50 111h-137z" />
    <glyph glyph-name="ncommaaccent" unicode="&#x146;" horiz-adv-x="1164" 
d="M831 0l40 283.5l29.5 207.5l20.5 146.5t13 101.5q3 26 3.5 39t0.5 23q0 47 -8 84.5t-26 64t-48.5 40.5t-75.5 14q-39 0 -86 -16t-92.5 -39.5t-84 -49.5t-59.5 -46l-120 -853h-210l162 1141h153l8 -176q31 36 77.5 71t100.5 62.5t111 45t109 17.5q301 0 301 -317
q0 -11 -0.5 -21t-2 -23.5l-3.5 -31.5l-5 -43l-14.5 -113.5l-20.5 -152l-28 -200.5l-37 -259h-208zM353 -473l46 326h298l-44 -324q-6 -63 -29 -109t-58 -78.5t-81 -54t-98 -36.5l-46 100q58 20 99 65t50 111h-137z" />
    <glyph glyph-name="Ncaron" unicode="&#x147;" horiz-adv-x="1507" 
d="M1359 0h-287l-183 452l-362 911l-191 -1363h-208l225 1586h289l181 -451l363 -912l190 1363h208zM1037 1723h-140l-118 558h163l65 -318l181 318h183z" />
    <glyph glyph-name="ncaron" unicode="&#x148;" horiz-adv-x="1168" 
d="M831 0l40 283.5l29.5 207.5l20.5 146.5t13 101.5q3 26 3.5 39t0.5 23q0 47 -8 84.5t-26 64t-48.5 40.5t-75.5 14q-39 0 -86 -16t-92.5 -39.5t-84 -49.5t-59.5 -46l-120 -853h-210l162 1141h153l8 -176q31 36 77.5 71t100.5 62.5t111 45t109 17.5q301 0 301 -317
q0 -11 -0.5 -21t-2 -23.5l-3.5 -31.5l-5 -43l-14.5 -113.5l-20.5 -152l-28 -200.5l-37 -259h-208zM754 1275h-140l-118 558h163l65 -318l181 318h183z" />
    <glyph glyph-name="Eng" unicode="&#x14a;" horiz-adv-x="1507" 
d="M780 -437q101 22 164 49t101 63.5t56.5 85.5t31.5 116l-244 575l-362 911l-191 -1363h-208l225 1586h289l181 -451l363 -912l190 1363h208l-225 -1586q-14 -94 -31.5 -172t-44 -140.5t-65 -110.5t-94 -82t-131.5 -55t-177 -30z" />
    <glyph glyph-name="eng" unicode="&#x14b;" horiz-adv-x="1164" 
d="M624 -225q58 37 97.5 77t65.5 88.5t42 109t27 138.5l31 218.5l22.5 158.5l15.5 108t9 66q3 26 3.5 39t0.5 23q0 47 -8 84.5t-26 64t-48.5 40.5t-75.5 14q-39 0 -86 -16t-92.5 -39.5t-84 -49.5t-59.5 -46l-120 -853h-210l162 1141h153l8 -176q31 36 77.5 71t100.5 62.5
t111 45t109 17.5q301 0 301 -317q0 -11 -0.5 -21t-2 -23.5l-3.5 -31.5l-5 -43l-10.5 -83l-14.5 -107l-16 -116.5l-15 -110.5l-12.5 -89.5l-7.5 -52.5q-15 -105 -51 -194.5t-88.5 -158.5t-119.5 -116t-144 -66z" />
    <glyph glyph-name="Omacron" unicode="&#x14c;" horiz-adv-x="1457" 
d="M1476 1024q0 -236 -57 -431.5t-159 -336t-242 -218.5t-306 -78q-119 0 -214 34.5t-162 105.5t-103 178.5t-36 254.5q0 154 25.5 294.5t72.5 260.5t114.5 217t151.5 166t183.5 106t210.5 37q136 0 234.5 -41t162 -117.5t94 -186t30.5 -245.5zM1256 1027q0 89 -17 163.5
t-55 128t-99.5 83.5t-150.5 30q-87 0 -159 -35.5t-129.5 -98t-100 -147.5t-70.5 -184.5t-42 -208.5t-14 -220q0 -201 81 -298.5t239 -97.5q86 0 157.5 34.5t129 95.5t100.5 145t72 182t43.5 207t14.5 221zM1310 1730h-672l24 169h671z" />
    <glyph glyph-name="omacron" unicode="&#x14d;" horiz-adv-x="1154" 
d="M153 429q0 84 15 171.5t46.5 168.5t79.5 152.5t114 125t150 84t188 30.5q118 0 197.5 -36.5t127.5 -98t68.5 -142t20.5 -168.5q0 -149 -42 -283t-119.5 -234.5t-187.5 -159.5t-245 -59q-95 0 -171 30.5t-130 88.5t-83 141.5t-29 188.5zM591 136q68 0 122 25.5t94.5 68.5
t69 100t46.5 120t26 128.5t8 125.5q0 64 -12 119t-39.5 95t-72 63t-110.5 23q-70 0 -124.5 -27.5t-95.5 -73t-69 -104.5t-45.5 -122.5t-25 -127t-7.5 -116.5q0 -63 12 -117.5t39.5 -94t72.5 -62.5t111 -23zM1130 1295h-672l24 169h671z" />
    <glyph glyph-name="Obreve" unicode="&#x14e;" horiz-adv-x="1457" 
d="M1476 1024q0 -236 -57 -431.5t-159 -336t-242 -218.5t-306 -78q-119 0 -214 34.5t-162 105.5t-103 178.5t-36 254.5q0 154 25.5 294.5t72.5 260.5t114.5 217t151.5 166t183.5 106t210.5 37q136 0 234.5 -41t162 -117.5t94 -186t30.5 -245.5zM1256 1027q0 89 -17 163.5
t-55 128t-99.5 83.5t-150.5 30q-87 0 -159 -35.5t-129.5 -98t-100 -147.5t-70.5 -184.5t-42 -208.5t-14 -220q0 -201 81 -298.5t239 -97.5q86 0 157.5 34.5t129 95.5t100.5 145t72 182t43.5 207t14.5 221zM1277 1966q-2 -9 -3.5 -17.5t-4.5 -17.5q-25 -109 -97.5 -167.5
t-201.5 -58.5q-120 0 -174.5 51t-55.5 147q-1 14 0.5 30t3.5 33h134q-3 -17 -3 -30q-1 -22 5.5 -38.5t17.5 -29.5q24 -45 92 -45q64 0 104 36.5t51 106.5h132z" />
    <glyph glyph-name="obreve" unicode="&#x14f;" horiz-adv-x="1154" 
d="M153 429q0 84 15 171.5t46.5 168.5t79.5 152.5t114 125t150 84t188 30.5q118 0 197.5 -36.5t127.5 -98t68.5 -142t20.5 -168.5q0 -149 -42 -283t-119.5 -234.5t-187.5 -159.5t-245 -59q-95 0 -171 30.5t-130 88.5t-83 141.5t-29 188.5zM591 136q68 0 122 25.5t94.5 68.5
t69 100t46.5 120t26 128.5t8 125.5q0 64 -12 119t-39.5 95t-72 63t-110.5 23q-70 0 -124.5 -27.5t-95.5 -73t-69 -104.5t-45.5 -122.5t-25 -127t-7.5 -116.5q0 -63 12 -117.5t39.5 -94t72.5 -62.5t111 -23zM1097 1531q-2 -9 -3.5 -17.5t-4.5 -17.5q-25 -109 -97.5 -167.5
t-201.5 -58.5q-120 0 -174.5 51t-55.5 147q-1 14 0.5 30t3.5 33h134q-3 -17 -3 -30q-1 -22 5.5 -38.5t17.5 -29.5q24 -45 92 -45q64 0 104 36.5t51 106.5h132z" />
    <glyph glyph-name="Ohungarumlaut" unicode="&#x150;" horiz-adv-x="1457" 
d="M1476 1024q0 -236 -57 -431.5t-159 -336t-242 -218.5t-306 -78q-119 0 -214 34.5t-162 105.5t-103 178.5t-36 254.5q0 154 25.5 294.5t72.5 260.5t114.5 217t151.5 166t183.5 106t210.5 37q136 0 234.5 -41t162 -117.5t94 -186t30.5 -245.5zM1256 1027q0 89 -17 163.5
t-55 128t-99.5 83.5t-150.5 30q-87 0 -159 -35.5t-129.5 -98t-100 -147.5t-70.5 -184.5t-42 -208.5t-14 -220q0 -201 81 -298.5t239 -97.5q86 0 157.5 34.5t129 95.5t100.5 145t72 182t43.5 207t14.5 221zM804 1743h-149l188 639h276zM1190 1743h-149l288 639h276z" />
    <glyph glyph-name="ohungarumlaut" unicode="&#x151;" horiz-adv-x="1154" 
d="M153 429q0 84 15 171.5t46.5 168.5t79.5 152.5t114 125t150 84t188 30.5q118 0 197.5 -36.5t127.5 -98t68.5 -142t20.5 -168.5q0 -149 -42 -283t-119.5 -234.5t-187.5 -159.5t-245 -59q-95 0 -171 30.5t-130 88.5t-83 141.5t-29 188.5zM591 136q68 0 122 25.5t94.5 68.5
t69 100t46.5 120t26 128.5t8 125.5q0 64 -12 119t-39.5 95t-72 63t-110.5 23q-70 0 -124.5 -27.5t-95.5 -73t-69 -104.5t-45.5 -122.5t-25 -127t-7.5 -116.5q0 -63 12 -117.5t39.5 -94t72.5 -62.5t111 -23zM624 1308h-149l188 639h276zM1010 1308h-149l288 639h276z" />
    <glyph glyph-name="OE" unicode="&#x152;" horiz-adv-x="2465" 
d="M2059 0h-926l29 203q-27 -62 -76.5 -108t-110.5 -76t-128 -44.5t-128 -14.5q-123 0 -220 36t-164 110t-102.5 187t-35.5 267q0 151 25 288t71 254.5t112 212t148.5 161t180 102.5t206.5 36q69 0 131.5 -16t113.5 -47.5t88.5 -79t56.5 -111.5l23 226h914l-25 -166h-698
l-72 -513h614l-19 -143h-615l-84 -599h717zM1249 1004q0 93 -16 171.5t-54.5 135.5t-101.5 89t-156 32q-85 0 -155 -34t-126 -94t-97.5 -142t-69 -178.5t-41 -203.5t-13.5 -216q0 -422 325 -422q84 0 154.5 33.5t126.5 92.5t98 140t70 177t42 202.5t14 216.5z" />
    <glyph glyph-name="oe" unicode="&#x153;" horiz-adv-x="1830" 
d="M1152 528q-5 -42 -6 -77.5t1 -66.5q3 -64 21 -108.5t49 -72.5t75 -41t99 -13q149 0 286 108l40 -157q-45 -29 -95.5 -51.5t-100.5 -37.5t-96.5 -23t-83.5 -8q-65 0 -123.5 16.5t-103.5 48.5t-73.5 78t-33.5 105q-76 -105 -161 -161.5t-184 -74.5q-33 -5 -66 -7t-66 0
q-86 4 -155.5 36.5t-119 89.5t-76.5 137.5t-27 180.5q0 74 12.5 157t41 164.5t74 155.5t111.5 131t154 90.5t201 33.5q77 0 136.5 -21.5t102.5 -57t68.5 -80.5t34.5 -93q36 66 85 114t104 78.5t112.5 45t110.5 14.5q180 0 265 -89.5t85 -267.5q0 -54 -7.5 -97.5t-18.5 -80.5
q-135 -48 -303 -72t-369 -26zM591 141q68 4 121.5 30.5t94 69t69 98t46.5 116.5t26 125t8 124q0 64 -12 118t-39.5 93.5t-72 61.5t-110.5 22q-70 0 -124.5 -27t-95.5 -72t-69 -103.5t-45.5 -121.5t-25 -126t-7.5 -116q0 -63 12 -116t39.5 -92t73 -61t111.5 -23zM1170 655
q54 0 115.5 1t126 3.5t129 8t123.5 14.5q10 44 14 71.5t4 50.5q0 99 -44.5 151t-125.5 52q-148 0 -233 -93.5t-109 -258.5z" />
    <glyph glyph-name="Racute" unicode="&#x154;" horiz-adv-x="1287" 
d="M963 0l21 156.5l15.5 117.5t11.5 84t8 58t4.5 39t2.5 27q0 56 -13 94q-14 57 -52.5 85.5t-107.5 42.5q-46 14 -107.5 20t-142.5 6h-158l-106 -730h-214l228 1586h387q81 0 152.5 -3.5t132.5 -14.5q66 -12 121 -35t94.5 -61t62 -93t22.5 -132q0 -120 -41 -203.5
t-105.5 -136.5t-143 -78t-153.5 -26q87 -9 153 -30.5t111 -58.5t68.5 -90.5t24.5 -126.5q0 -9 -2 -28.5l-7 -65.5q-8 -65 -21 -161.5l-33 -241.5h-213zM582 874q117 0 217 10.5t173.5 45.5t115.5 101t42 178q0 72 -31 113.5t-84.5 63.5t-124 28t-149.5 6h-198l-78 -546h117z
M966 1743h-149l188 639h276z" />
    <glyph glyph-name="racute" unicode="&#x155;" horiz-adv-x="722" 
d="M451 907q32 57 72.5 103.5t83 79t84.5 50.5t77 19q27 1 52.5 -2t31.5 -3l-21 -186q-5 2 -25.5 5.5t-40.5 3.5q-47 0 -93.5 -19.5t-89.5 -49.5t-80 -65t-64 -66l-110 -777h-200l162 1141h152zM731 1308h-149l188 639h276z" />
    <glyph glyph-name="Rcommaaccent" unicode="&#x156;" horiz-adv-x="1287" 
d="M963 0l21 156.5l15.5 117.5t11.5 84t8 58t4.5 39t2.5 27q0 56 -13 94q-14 57 -52.5 85.5t-107.5 42.5q-46 14 -107.5 20t-142.5 6h-158l-106 -730h-214l228 1586h387q81 0 152.5 -3.5t132.5 -14.5q66 -12 121 -35t94.5 -61t62 -93t22.5 -132q0 -120 -41 -203.5
t-105.5 -136.5t-143 -78t-153.5 -26q87 -9 153 -30.5t111 -58.5t68.5 -90.5t24.5 -126.5q0 -9 -2 -28.5l-7 -65.5q-8 -65 -21 -161.5l-33 -241.5h-213zM582 874q117 0 217 10.5t173.5 45.5t115.5 101t42 178q0 72 -31 113.5t-84.5 63.5t-124 28t-149.5 6h-198l-78 -546h117z
M439 -473l46 326h298l-44 -324q-6 -63 -29 -109t-58 -78.5t-81 -54t-98 -36.5l-46 100q58 20 99 65t50 111h-137z" />
    <glyph glyph-name="rcommaaccent" unicode="&#x157;" horiz-adv-x="722" 
d="M451 907q32 57 72.5 103.5t83 79t84.5 50.5t77 19q27 1 52.5 -2t31.5 -3l-21 -186q-5 2 -25.5 5.5t-40.5 3.5q-47 0 -93.5 -19.5t-89.5 -49.5t-80 -65t-64 -66l-110 -777h-200l162 1141h152zM204 -473l46 326h298l-44 -324q-6 -63 -29 -109t-58 -78.5t-81 -54t-98 -36.5
l-46 100q58 20 99 65t50 111h-137z" />
    <glyph glyph-name="Rcaron" unicode="&#x158;" horiz-adv-x="1287" 
d="M963 0l21 156.5l15.5 117.5t11.5 84t8 58t4.5 39t2.5 27q0 56 -13 94q-14 57 -52.5 85.5t-107.5 42.5q-46 14 -107.5 20t-142.5 6h-158l-106 -730h-214l228 1586h387q81 0 152.5 -3.5t132.5 -14.5q66 -12 121 -35t94.5 -61t62 -93t22.5 -132q0 -120 -41 -203.5
t-105.5 -136.5t-143 -78t-153.5 -26q87 -9 153 -30.5t111 -58.5t68.5 -90.5t24.5 -126.5q0 -9 -2 -28.5l-7 -65.5q-8 -65 -21 -161.5l-33 -241.5h-213zM582 874q117 0 217 10.5t173.5 45.5t115.5 101t42 178q0 72 -31 113.5t-84.5 63.5t-124 28t-149.5 6h-198l-78 -546h117z
M906 1723h-140l-118 558h163l65 -318l181 318h183z" />
    <glyph glyph-name="rcaron" unicode="&#x159;" horiz-adv-x="722" 
d="M451 907q32 57 72.5 103.5t83 79t84.5 50.5t77 19q27 1 52.5 -2t31.5 -3l-21 -186q-5 2 -25.5 5.5t-40.5 3.5q-47 0 -93.5 -19.5t-89.5 -49.5t-80 -65t-64 -66l-110 -777h-200l162 1141h152zM671 1288h-140l-118 558h163l65 -318l181 318h183z" />
    <glyph glyph-name="Sacute" unicode="&#x15a;" horiz-adv-x="1239" 
d="M1207 1320q-22 17 -61.5 36.5t-88.5 36.5t-104 28t-107 11q-100 0 -170 -18t-114.5 -51t-64.5 -80t-20 -105q0 -40 12 -68.5t36 -50.5t59.5 -40t82.5 -36l234 -91q71 -28 125.5 -63.5t91.5 -81t56 -103t19 -129.5q0 -110 -36 -210.5t-111 -177t-190 -122t-272 -45.5
q-70 0 -137 10t-124.5 25t-100.5 33t-65 35l44 184q37 -23 77.5 -42.5t87 -33.5t99.5 -21.5t115 -7.5q200 0 298 81t98 250q0 42 -11.5 74t-34 57.5t-54.5 45t-74 36.5l-252 106q-68 28 -124 63q-82 51 -123 122.5t-41 161.5q0 112 46 200t122 149.5t175 94t205 32.5
q69 0 134 -8.5t122.5 -24t105.5 -36t84 -44.5zM947 1743h-149l188 639h276z" />
    <glyph glyph-name="sacute" unicode="&#x15b;" horiz-adv-x="925" 
d="M187 846q0 76 30.5 135t84.5 99t128 60.5t160 20.5q51 0 101 -10t96.5 -26.5t88 -37.5t74.5 -42l-65 -139q-23 13 -56.5 30t-73 32t-82.5 25t-86 10q-100 0 -158.5 -33t-58.5 -99q0 -27 6 -46.5t19.5 -34.5t35.5 -27.5t54 -25.5l140 -57q51 -21 99 -47t85 -61t59.5 -80
t22.5 -104q0 -96 -35.5 -172t-95.5 -128.5t-139.5 -80t-166.5 -27.5q-65 0 -122 10.5t-104 28t-84 39t-61 42.5l63 133q19 -15 49.5 -32t69.5 -31t85.5 -23.5t99.5 -9.5q54 0 99.5 14t78 40.5t51 66t18.5 90.5q0 23 -7 41.5t-22.5 35t-41 31.5t-62.5 31l-147 62
q-57 24 -100.5 51t-72 62t-43 79.5t-14.5 104.5zM757 1308h-149l188 639h276z" />
    <glyph glyph-name="Scircumflex" unicode="&#x15c;" horiz-adv-x="1239" 
d="M1207 1320q-22 17 -61.5 36.5t-88.5 36.5t-104 28t-107 11q-100 0 -170 -18t-114.5 -51t-64.5 -80t-20 -105q0 -40 12 -68.5t36 -50.5t59.5 -40t82.5 -36l234 -91q71 -28 125.5 -63.5t91.5 -81t56 -103t19 -129.5q0 -110 -36 -210.5t-111 -177t-190 -122t-272 -45.5
q-70 0 -137 10t-124.5 25t-100.5 33t-65 35l44 184q37 -23 77.5 -42.5t87 -33.5t99.5 -21.5t115 -7.5q200 0 298 81t98 250q0 42 -11.5 74t-34 57.5t-54.5 45t-74 36.5l-252 106q-68 28 -124 63q-82 51 -123 122.5t-41 161.5q0 112 46 200t122 149.5t175 94t205 32.5
q69 0 134 -8.5t122.5 -24t105.5 -36t84 -44.5zM735 2251h140l127 -557h-164l-64 318l-181 -318h-183z" />
    <glyph glyph-name="scircumflex" unicode="&#x15d;" horiz-adv-x="925" 
d="M187 846q0 76 30.5 135t84.5 99t128 60.5t160 20.5q51 0 101 -10t96.5 -26.5t88 -37.5t74.5 -42l-65 -139q-23 13 -56.5 30t-73 32t-82.5 25t-86 10q-100 0 -158.5 -33t-58.5 -99q0 -27 6 -46.5t19.5 -34.5t35.5 -27.5t54 -25.5l140 -57q51 -21 99 -47t85 -61t59.5 -80
t22.5 -104q0 -96 -35.5 -172t-95.5 -128.5t-139.5 -80t-166.5 -27.5q-65 0 -122 10.5t-104 28t-84 39t-61 42.5l63 133q19 -15 49.5 -32t69.5 -31t85.5 -23.5t99.5 -9.5q54 0 99.5 14t78 40.5t51 66t18.5 90.5q0 23 -7 41.5t-22.5 35t-41 31.5t-62.5 31l-147 62
q-57 24 -100.5 51t-72 62t-43 79.5t-14.5 104.5zM545 1816h140l127 -557h-164l-64 318l-181 -318h-183z" />
    <glyph glyph-name="Scedilla" unicode="&#x15e;" horiz-adv-x="1239" 
d="M1207 1320q-22 17 -61.5 36.5t-88.5 36.5t-104 28t-107 11q-100 0 -170 -18t-114.5 -51t-64.5 -80t-20 -105q0 -40 12 -68.5t36 -50.5t59.5 -40t82.5 -36l234 -91q71 -28 125.5 -63.5t91.5 -81t56 -103t19 -129.5q0 -110 -36 -210.5t-111 -177t-190 -122t-272 -45.5
q-70 0 -137 10t-124.5 25t-100.5 33t-65 35l44 184q37 -23 77.5 -42.5t87 -33.5t99.5 -21.5t115 -7.5q200 0 298 81t98 250q0 42 -11.5 74t-34 57.5t-54.5 45t-74 36.5l-252 106q-68 28 -124 63q-82 51 -123 122.5t-41 161.5q0 112 46 200t122 149.5t175 94t205 32.5
q69 0 134 -8.5t122.5 -24t105.5 -36t84 -44.5zM477 -510l6 89q29 -13 66.5 -27t79.5 -17q12 -2 23.5 -2t22.5 1q35 1 58.5 12t38 28t20.5 38.5t6 43.5q-1 49 -65 84t-195 35l71 263h114q-53 -136 -63 -175q23 0 53 -3t60.5 -11t59.5 -22t51.5 -35t36.5 -50t14 -68v-8
q-2 -60 -24 -107.5t-59 -80.5t-87 -50.5t-107 -17.5q-60 0 -105 15.5t-76 35.5v29z" />
    <glyph glyph-name="scedilla" unicode="&#x15f;" horiz-adv-x="925" 
d="M187 846q0 76 30.5 135t84.5 99t128 60.5t160 20.5q51 0 101 -10t96.5 -26.5t88 -37.5t74.5 -42l-65 -139q-23 13 -56.5 30t-73 32t-82.5 25t-86 10q-100 0 -158.5 -33t-58.5 -99q0 -27 6 -46.5t19.5 -34.5t35.5 -27.5t54 -25.5l140 -57q51 -21 99 -47t85 -61t59.5 -80
t22.5 -104q0 -96 -35.5 -172t-95.5 -128.5t-139.5 -80t-166.5 -27.5q-65 0 -122 10.5t-104 28t-84 39t-61 42.5l63 133q19 -15 49.5 -32t69.5 -31t85.5 -23.5t99.5 -9.5q54 0 99.5 14t78 40.5t51 66t18.5 90.5q0 23 -7 41.5t-22.5 35t-41 31.5t-62.5 31l-147 62
q-57 24 -100.5 51t-72 62t-43 79.5t-14.5 104.5zM287 -510l6 89q29 -13 66.5 -27t79.5 -17q12 -2 23.5 -2t22.5 1q35 1 58.5 12t38 28t20.5 38.5t6 43.5q-1 49 -65 84t-195 35l71 263h114q-53 -136 -63 -175q23 0 53 -3t60.5 -11t59.5 -22t51.5 -35t36.5 -50t14 -68v-8
q-2 -60 -24 -107.5t-59 -80.5t-87 -50.5t-107 -17.5q-60 0 -105 15.5t-76 35.5v29z" />
    <glyph glyph-name="Scaron" unicode="&#x160;" horiz-adv-x="1239" 
d="M1207 1320q-22 17 -61.5 36.5t-88.5 36.5t-104 28t-107 11q-100 0 -170 -18t-114.5 -51t-64.5 -80t-20 -105q0 -40 12 -68.5t36 -50.5t59.5 -40t82.5 -36l234 -91q71 -28 125.5 -63.5t91.5 -81t56 -103t19 -129.5q0 -110 -36 -210.5t-111 -177t-190 -122t-272 -45.5
q-70 0 -137 10t-124.5 25t-100.5 33t-65 35l44 184q37 -23 77.5 -42.5t87 -33.5t99.5 -21.5t115 -7.5q200 0 298 81t98 250q0 42 -11.5 74t-34 57.5t-54.5 45t-74 36.5l-252 106q-68 28 -124 63q-82 51 -123 122.5t-41 161.5q0 112 46 200t122 149.5t175 94t205 32.5
q69 0 134 -8.5t122.5 -24t105.5 -36t84 -44.5zM887 1723h-140l-118 558h163l65 -318l181 318h183z" />
    <glyph glyph-name="scaron" unicode="&#x161;" horiz-adv-x="925" 
d="M187 846q0 76 30.5 135t84.5 99t128 60.5t160 20.5q51 0 101 -10t96.5 -26.5t88 -37.5t74.5 -42l-65 -139q-23 13 -56.5 30t-73 32t-82.5 25t-86 10q-100 0 -158.5 -33t-58.5 -99q0 -27 6 -46.5t19.5 -34.5t35.5 -27.5t54 -25.5l140 -57q51 -21 99 -47t85 -61t59.5 -80
t22.5 -104q0 -96 -35.5 -172t-95.5 -128.5t-139.5 -80t-166.5 -27.5q-65 0 -122 10.5t-104 28t-84 39t-61 42.5l63 133q19 -15 49.5 -32t69.5 -31t85.5 -23.5t99.5 -9.5q54 0 99.5 14t78 40.5t51 66t18.5 90.5q0 23 -7 41.5t-22.5 35t-41 31.5t-62.5 31l-147 62
q-57 24 -100.5 51t-72 62t-43 79.5t-14.5 104.5zM697 1288h-140l-118 558h163l65 -318l181 318h183z" />
    <glyph glyph-name="Tcommaaccent" unicode="&#x162;" horiz-adv-x="1027" 
d="M1227 1420h-418l-199 -1420h-213l199 1420h-420l24 166h1050zM427 -473l46 326h298l-44 -324q-6 -63 -29 -109t-58 -78.5t-81 -54t-98 -36.5l-46 100q58 20 99 65t50 111h-137z" />
    <glyph glyph-name="tcommaaccent" unicode="&#x163;" horiz-adv-x="759" 
d="M505 136q34 0 70 13t66 29q36 19 68 42l67 -121q-1 0 -27.5 -18t-70 -39.5t-99.5 -39.5t-116 -18q-50 0 -90.5 16t-70.5 46.5t-47 75t-20 101.5q-2 11 -1.5 24.5t2.5 37.5q1 36 12 104l94 655h-147l13 97h150l58 407l205 56l-66 -463h258l-15 -97h-256l-110 -787
q-8 -58 14.5 -89.5t58.5 -31.5zM218 -473l46 326h298l-44 -324q-6 -63 -29 -109t-58 -78.5t-81 -54t-98 -36.5l-46 100q58 20 99 65t50 111h-137z" />
    <glyph glyph-name="Tcaron" unicode="&#x164;" horiz-adv-x="1027" 
d="M1227 1420h-418l-199 -1420h-213l199 1420h-420l24 166h1050zM894 1723h-140l-118 558h163l65 -318l181 318h183z" />
    <glyph glyph-name="tcaron" unicode="&#x165;" horiz-adv-x="1511" 
d="M505 136q34 0 70 13t66 29q36 19 68 42l67 -121q-1 0 -27.5 -18t-70 -39.5t-99.5 -39.5t-116 -18q-50 0 -90.5 16t-70.5 46.5t-47 75t-20 101.5q-2 11 -1.5 24.5t2.5 37.5q1 36 12 104l94 655h-147l13 97h150l58 407l205 56l-66 -463h258l-15 -97h-256l-110 -787
q-8 -58 14.5 -89.5t58.5 -31.5zM947 1265l30 326h300l-30 -324q-6 -63 -28.5 -109t-57.5 -78.5t-81 -54t-99 -36.5l-46 101q60 20 99 64.5t50 110.5h-137z" />
    <glyph glyph-name="Tbar" unicode="&#x166;" horiz-adv-x="1027" 
d="M1227 1420h-418l-199 -1420h-213l199 1420h-420l24 166h1050zM965 787h-672l24 169h671z" />
    <glyph glyph-name="tbar" unicode="&#x167;" horiz-adv-x="759" 
d="M505 136q34 0 70 13t66 29q36 19 68 42l67 -121q-1 0 -27.5 -18t-70 -39.5t-99.5 -39.5t-116 -18q-50 0 -90.5 16t-70.5 46.5t-47 75t-20 101.5q-2 11 -1.5 24.5t2.5 37.5q1 36 12 104l94 655h-147l13 97h150l58 407l205 56l-66 -463h258l-15 -97h-256l-110 -787
q-8 -58 14.5 -89.5t58.5 -31.5zM752 654h-672l24 169h671z" />
    <glyph glyph-name="Utilde" unicode="&#x168;" horiz-adv-x="1412" 
d="M723 131q102 0 175 29t124.5 97t85.5 180t58 278l124 871h214l-122 -867q-32 -226 -95.5 -372.5t-152 -232.5t-199 -120t-235.5 -34q-123 0 -218.5 37t-161.5 110.5t-100.5 182t-34.5 251.5v25.5t1 30t3.5 38t6.5 50.5q7 58 17.5 137l25.5 187l34.5 250l45.5 327h214
l-46 -331l-35 -254l-26 -190.5t-18 -140.5q-4 -31 -6.5 -53.5t-3.5 -39.5t-1.5 -30t-0.5 -25q0 -88 16.5 -160t54.5 -123.5t100.5 -79.5t155.5 -28zM1164 1687q-52 0 -101 20t-93.5 44l-81.5 44t-65 20q-14 0 -26.5 -3.5t-22.5 -14t-16 -30.5t-7 -54h-158q2 67 20 117
t48.5 83t72 49t90.5 16q52 0 96 -19.5t83 -43.5t74.5 -43.5t70.5 -19.5q17 0 30 3.5t22 14t14 29.5t6 49h159q-2 -71 -19.5 -120.5t-46.5 -80.5t-67.5 -45.5t-81.5 -14.5z" />
    <glyph glyph-name="utilde" unicode="&#x169;" 
d="M495 1141q-2 -13 -8 -58l-15 -109l-19 -140.5l-20.5 -153.5l-20 -147.5l-16.5 -122.5l-5 -42.5t-2 -21.5q-1 -63 15 -105q16 -52 54 -78t95 -27q81 1 155.5 37t149.5 105l122 863h208l-160 -1141h-152q-3 45 -6.5 87t-5.5 87q-79 -94 -166 -144t-184 -50q-336 0 -336 334
q0 14 7 71.5l17 136.5l17 127l17.5 130.5l16.5 124.5l14.5 108.5t11.5 82.5t7 46h209zM972 1284q-52 0 -101 20t-93.5 44l-81.5 44t-65 20q-14 0 -26.5 -3.5t-22.5 -14t-16 -30.5t-7 -54h-158q2 67 20 117t48.5 83t72 49t90.5 16q52 0 96 -19.5t83 -43.5t74.5 -43.5
t70.5 -19.5q17 0 30 3.5t22 14t14 29.5t6 49h159q-2 -71 -19.5 -120.5t-46.5 -80.5t-67.5 -45.5t-81.5 -14.5z" />
    <glyph glyph-name="Umacron" unicode="&#x16a;" horiz-adv-x="1412" 
d="M723 131q102 0 175 29t124.5 97t85.5 180t58 278l124 871h214l-122 -867q-32 -226 -95.5 -372.5t-152 -232.5t-199 -120t-235.5 -34q-123 0 -218.5 37t-161.5 110.5t-100.5 182t-34.5 251.5v25.5t1 30t3.5 38t6.5 50.5q7 58 17.5 137l25.5 187l34.5 250l45.5 327h214
l-46 -331l-35 -254l-26 -190.5t-18 -140.5q-4 -31 -6.5 -53.5t-3.5 -39.5t-1.5 -30t-0.5 -25q0 -88 16.5 -160t54.5 -123.5t100.5 -79.5t155.5 -28zM1318 1730h-672l24 169h671z" />
    <glyph glyph-name="umacron" unicode="&#x16b;" 
d="M495 1141q-2 -13 -8 -58l-15 -109l-19 -140.5l-20.5 -153.5l-20 -147.5l-16.5 -122.5l-5 -42.5t-2 -21.5q-1 -63 15 -105q16 -52 54 -78t95 -27q81 1 155.5 37t149.5 105l122 863h208l-160 -1141h-152q-3 45 -6.5 87t-5.5 87q-79 -94 -166 -144t-184 -50q-336 0 -336 334
q0 14 7 71.5l17 136.5l17 127l17.5 130.5l16.5 124.5l14.5 108.5t11.5 82.5t7 46h209zM1157 1295h-672l24 169h671z" />
    <glyph glyph-name="Ubreve" unicode="&#x16c;" horiz-adv-x="1412" 
d="M723 131q102 0 175 29t124.5 97t85.5 180t58 278l124 871h214l-122 -867q-32 -226 -95.5 -372.5t-152 -232.5t-199 -120t-235.5 -34q-123 0 -218.5 37t-161.5 110.5t-100.5 182t-34.5 251.5v25.5t1 30t3.5 38t6.5 50.5q7 58 17.5 137l25.5 187l34.5 250l45.5 327h214
l-46 -331l-35 -254l-26 -190.5t-18 -140.5q-4 -31 -6.5 -53.5t-3.5 -39.5t-1.5 -30t-0.5 -25q0 -88 16.5 -160t54.5 -123.5t100.5 -79.5t155.5 -28zM1285 1966q-2 -9 -3.5 -17.5t-4.5 -17.5q-25 -109 -97.5 -167.5t-201.5 -58.5q-120 0 -174.5 51t-55.5 147q-1 14 0.5 30
t3.5 33h134q-3 -17 -3 -30q-1 -22 5.5 -38.5t17.5 -29.5q24 -45 92 -45q64 0 104 36.5t51 106.5h132z" />
    <glyph glyph-name="ubreve" unicode="&#x16d;" 
d="M495 1141q-2 -13 -8 -58l-15 -109l-19 -140.5l-20.5 -153.5l-20 -147.5l-16.5 -122.5l-5 -42.5t-2 -21.5q-1 -63 15 -105q16 -52 54 -78t95 -27q81 1 155.5 37t149.5 105l122 863h208l-160 -1141h-152q-3 45 -6.5 87t-5.5 87q-79 -94 -166 -144t-184 -50q-336 0 -336 334
q0 14 7 71.5l17 136.5l17 127l17.5 130.5l16.5 124.5l14.5 108.5t11.5 82.5t7 46h209zM1124 1531q-2 -9 -3.5 -17.5t-4.5 -17.5q-25 -109 -97.5 -167.5t-201.5 -58.5q-120 0 -174.5 51t-55.5 147q-1 14 0.5 30t3.5 33h134q-3 -17 -3 -30q-1 -22 5.5 -38.5t17.5 -29.5
q24 -45 92 -45q64 0 104 36.5t51 106.5h132z" />
    <glyph glyph-name="Uring" unicode="&#x16e;" horiz-adv-x="1412" 
d="M723 131q102 0 175 29t124.5 97t85.5 180t58 278l124 871h214l-122 -867q-32 -226 -95.5 -372.5t-152 -232.5t-199 -120t-235.5 -34q-123 0 -218.5 37t-161.5 110.5t-100.5 182t-34.5 251.5v25.5t1 30t3.5 38t6.5 50.5q7 58 17.5 137l25.5 187l34.5 250l45.5 327h214
l-46 -331l-35 -254l-26 -190.5t-18 -140.5q-4 -31 -6.5 -53.5t-3.5 -39.5t-1.5 -30t-0.5 -25q0 -88 16.5 -160t54.5 -123.5t100.5 -79.5t155.5 -28zM1015 2117q-30 0 -56 -13t-45.5 -35t-30.5 -50t-11 -59q1 -49 29.5 -82t79.5 -33q29 0 55 13t45.5 35t30.5 50.5t11 59.5
q-1 48 -30.5 81t-77.5 33zM763 1942q0 57 21.5 107t58.5 87.5t85.5 59.5t101.5 22q44 0 81 -15.5t64 -43t42.5 -64t16.5 -78.5q1 -57 -20.5 -107t-58 -87t-85 -58.5t-102.5 -21.5q-44 0 -81.5 15t-65 41t-43 62.5t-15.5 80.5z" />
    <glyph glyph-name="uring" unicode="&#x16f;" 
d="M495 1141q-2 -13 -8 -58l-15 -109l-19 -140.5l-20.5 -153.5l-20 -147.5l-16.5 -122.5l-5 -42.5t-2 -21.5q-1 -63 15 -105q16 -52 54 -78t95 -27q81 1 155.5 37t149.5 105l122 863h208l-160 -1141h-152q-3 45 -6.5 87t-5.5 87q-79 -94 -166 -144t-184 -50q-336 0 -336 334
q0 14 7 71.5l17 136.5l17 127l17.5 130.5l16.5 124.5l14.5 108.5t11.5 82.5t7 46h209zM854 1682q-30 0 -56 -13t-45.5 -35t-30.5 -50t-11 -59q1 -49 29.5 -82t79.5 -33q29 0 55 13t45.5 35t30.5 50.5t11 59.5q-1 48 -30.5 81t-77.5 33zM602 1507q0 57 21.5 107t58.5 87.5
t85.5 59.5t101.5 22q44 0 81 -15.5t64 -43t42.5 -64t16.5 -78.5q1 -57 -20.5 -107t-58 -87t-85 -58.5t-102.5 -21.5q-44 0 -81.5 15t-65 41t-43 62.5t-15.5 80.5z" />
    <glyph glyph-name="Uhungarumlaut" unicode="&#x170;" horiz-adv-x="1412" 
d="M723 131q102 0 175 29t124.5 97t85.5 180t58 278l124 871h214l-122 -867q-32 -226 -95.5 -372.5t-152 -232.5t-199 -120t-235.5 -34q-123 0 -218.5 37t-161.5 110.5t-100.5 182t-34.5 251.5v25.5t1 30t3.5 38t6.5 50.5q7 58 17.5 137l25.5 187l34.5 250l45.5 327h214
l-46 -331l-35 -254l-26 -190.5t-18 -140.5q-4 -31 -6.5 -53.5t-3.5 -39.5t-1.5 -30t-0.5 -25q0 -88 16.5 -160t54.5 -123.5t100.5 -79.5t155.5 -28zM812 1743h-149l188 639h276zM1198 1743h-149l288 639h276z" />
    <glyph glyph-name="uhungarumlaut" unicode="&#x171;" 
d="M495 1141q-2 -13 -8 -58l-15 -109l-19 -140.5l-20.5 -153.5l-20 -147.5l-16.5 -122.5l-5 -42.5t-2 -21.5q-1 -63 15 -105q16 -52 54 -78t95 -27q81 1 155.5 37t149.5 105l122 863h208l-160 -1141h-152q-3 45 -6.5 87t-5.5 87q-79 -94 -166 -144t-184 -50q-336 0 -336 334
q0 14 7 71.5l17 136.5l17 127l17.5 130.5l16.5 124.5l14.5 108.5t11.5 82.5t7 46h209zM651 1308h-149l188 639h276zM1037 1308h-149l288 639h276z" />
    <glyph glyph-name="Uogonek" unicode="&#x172;" horiz-adv-x="1412" 
d="M723 131q102 0 175 29t124.5 97t85.5 180t58 278l124 871h214l-122 -867q-32 -226 -95.5 -372.5t-152 -232.5t-199 -120t-235.5 -34q-123 0 -218.5 37t-161.5 110.5t-100.5 182t-34.5 251.5v25.5t1 30t3.5 38t6.5 50.5q7 58 17.5 137l25.5 187l34.5 250l45.5 327h214
l-46 -331l-35 -254l-26 -190.5t-18 -140.5q-4 -31 -6.5 -53.5t-3.5 -39.5t-1.5 -30t-0.5 -25q0 -88 16.5 -160t54.5 -123.5t100.5 -79.5t155.5 -28zM1032 -519q-25 -8 -55 -13q-26 -5 -59 -9t-69 -4q-47 0 -95 10t-86.5 36t-63 72.5t-24.5 120.5q0 36 12.5 69.5t32.5 63
t46.5 55.5t53.5 47q64 50 146 90h106q-73 -49 -130 -104q-24 -23 -47.5 -50t-42 -56t-29.5 -59t-11 -60q0 -35 13.5 -57t35.5 -35t50 -18t57 -5t57.5 3.5t51.5 8.5q26 5 50 12v-118z" />
    <glyph glyph-name="uogonek" unicode="&#x173;" 
d="M495 1141q-2 -13 -8 -58l-15 -109l-19 -140.5l-20.5 -153.5l-20 -147.5l-16.5 -122.5l-5 -42.5t-2 -21.5q-1 -63 15 -105q16 -52 54 -78t95 -27q81 1 155.5 37t149.5 105l122 863h208l-160 -1141h-152q-3 45 -6.5 87t-5.5 87q-79 -94 -166 -144t-184 -50q-336 0 -336 334
q0 14 7 71.5l17 136.5l17 127l17.5 130.5l16.5 124.5l14.5 108.5t11.5 82.5t7 46h209zM1052 -519q-25 -8 -55 -13q-26 -5 -59 -9t-69 -4q-47 0 -95 10t-86.5 36t-63 72.5t-24.5 120.5q0 36 12.5 69.5t32.5 63t46.5 55.5t53.5 47q64 50 146 90h106q-73 -49 -130 -104
q-24 -23 -47.5 -50t-42 -56t-29.5 -59t-11 -60q0 -35 13.5 -57t35.5 -35t50 -18t57 -5t57.5 3.5t51.5 8.5q26 5 50 12v-118z" />
    <glyph glyph-name="Wcircumflex" unicode="&#x174;" horiz-adv-x="1977" 
d="M953 1583h299l71 -1395l463 1398h205l-551 -1586h-289l-58 1406l-493 -1406h-300l-23 1586h195l14 -1401zM1163 2251h140l127 -557h-164l-64 318l-181 -318h-183z" />
    <glyph glyph-name="wcircumflex" unicode="&#x175;" horiz-adv-x="1416" 
d="M884 0l-48 931l-327 -931h-214l-114 1140h183l73 -942l321 942h196l63 -941l339 941h187l-441 -1140h-218zM891 1816h140l127 -557h-164l-64 318l-181 -318h-183z" />
    <glyph glyph-name="Ycircumflex" unicode="&#x176;" horiz-adv-x="1158" 
d="M657 713l491 869h219l-632 -1086l-69 -496h-211l72 519l-318 1063h204zM817 2251h140l127 -557h-164l-64 318l-181 -318h-183z" />
    <glyph glyph-name="ycircumflex" unicode="&#x177;" horiz-adv-x="1029" 
d="M64 -309q35 7 65.5 15t56.5 20q84 35 144.5 114.5t108.5 193.5l-25 111l-228 996h198l175 -863l382 863h208l-507 -1080l-70.5 -146t-85.5 -142.5t-109 -122t-140 -84.5q-31 -11 -65 -19t-72 -12zM635 1816h140l127 -557h-164l-64 318l-181 -318h-183z" />
    <glyph glyph-name="Ydieresis" unicode="&#x178;" horiz-adv-x="1158" 
d="M657 713l491 869h219l-632 -1086l-69 -496h-211l72 519l-318 1063h204zM686 1903q-1 -32 -14 -60.5t-33 -50.5t-46 -35t-53 -13q-24 0 -45 9t-36 25t-23.5 37.5t-8.5 47.5q0 32 12 61.5t33 52.5t48 36.5t57 13.5q48 0 78 -33t31 -84v-7zM1149 1901q-1 -31 -14 -59.5
t-33 -50.5t-46 -35t-53 -13q-49 0 -80 34t-32 85q0 31 12.5 61t33 52.5t47.5 36.5t56 14q48 0 78 -34t31 -84v-7z" />
    <glyph glyph-name="Zacute" unicode="&#x179;" horiz-adv-x="1130" 
d="M1289 1582l-24 -173l-934 -1243h760l-22 -166h-980l27 197l923 1223h-751l22 162h979zM930 1743h-149l188 639h276z" />
    <glyph glyph-name="zacute" unicode="&#x17a;" horiz-adv-x="866" 
d="M730 985h-487l20 156h679l-24 -179l-629 -806h506l-6 -156h-706l23 181zM753 1308h-149l188 639h276z" />
    <glyph glyph-name="Zdotaccent" unicode="&#x17b;" horiz-adv-x="1130" 
d="M1289 1582l-24 -173l-934 -1243h760l-22 -166h-980l27 197l923 1223h-751l22 162h979zM941 1767h-300l46 326h298z" />
    <glyph glyph-name="zdotaccent" unicode="&#x17c;" horiz-adv-x="866" 
d="M730 985h-487l20 156h679l-24 -179l-629 -806h506l-6 -156h-706l23 181zM764 1332h-300l46 326h298z" />
    <glyph glyph-name="Zcaron" unicode="&#x17d;" horiz-adv-x="1130" 
d="M1289 1582l-24 -173l-934 -1243h760l-22 -166h-980l27 197l923 1223h-751l22 162h979zM929 1776h-140l-118 558h163l65 -318l181 318h183z" />
    <glyph glyph-name="zcaron" unicode="&#x17e;" horiz-adv-x="866" 
d="M730 985h-487l20 156h679l-24 -179l-629 -806h506l-6 -156h-706l23 181zM648 1265h-140l-118 558h163l65 -318l181 318h183z" />
    <glyph glyph-name="florin" unicode="&#x192;" horiz-adv-x="753" 
d="M757 1424q-33 0 -60 -12t-49.5 -48t-40 -101.5t-31.5 -172.5h292l-12 -97h-293l-107 -737q-24 -167 -60.5 -274.5t-85 -169t-110 -85t-136.5 -23.5q-40 0 -73 14t-57 30.5t-37 31t-13 15.5l64 141q12 -14 29.5 -27t36.5 -23t38 -15.5t33 -5.5q32 0 56 13t44 53
t36.5 113.5t33.5 195.5l107 753h-152l12 97h154q20 146 55.5 243t85 155t111.5 82t135 24q36 0 68 -11t57 -25t41.5 -26.5t22.5 -15.5l-63 -153q-58 61 -132 61z" />
    <glyph glyph-name="uni01CD" unicode="&#x1cd;" horiz-adv-x="1317" 
d="M877 1403l-163 -362l-245 -538h531l-75 529zM757 1586h288l244 -1586h-215l-55 387h-600l-175 -387h-218zM862 1668h-140l-118 558h163l65 -318l181 318h183z" />
    <glyph glyph-name="uni01CE" unicode="&#x1ce;" horiz-adv-x="1125" 
d="M1139 1049l-152 -1049h-153l-5 190q-26 -48 -60.5 -87t-76.5 -66.5t-90.5 -42t-100.5 -14.5q-95 0 -161 32.5t-108 89.5t-61 133.5t-19 165.5q0 80 20.5 168t59 172.5t93 160.5t122 133.5t147 91.5t167.5 34q46 0 94.5 -9t93.5 -22.5t82.5 -29t61.5 -28.5zM351 414
q0 -147 50.5 -212.5t154.5 -65.5q46 0 88 16.5t77.5 41.5t63 54t43.5 53l101 672q-3 2 -18 7t-37.5 10.5t-50 10t-54.5 4.5q-51 0 -101.5 -22t-97 -61.5t-86.5 -94.5t-69.5 -120.5t-46.5 -140t-17 -152.5zM782 1269h-140l-118 558h163l65 -318l181 318h183z" />
    <glyph glyph-name="uni01CF" unicode="&#x1cf;" horiz-adv-x="860" 
d="M142 122h184l193 1335h-183l20 129h580l-20 -129h-186l-193 -1335h186l-20 -122h-579zM669 1694h-140l-118 558h163l65 -318l181 318h183z" />
    <glyph glyph-name="uni01D1" unicode="&#x1d1;" horiz-adv-x="1457" 
d="M1476 1024q0 -236 -57 -431.5t-159 -336t-242 -218.5t-306 -78q-119 0 -214 34.5t-162 105.5t-103 178.5t-36 254.5q0 154 25.5 294.5t72.5 260.5t114.5 217t151.5 166t183.5 106t210.5 37q136 0 234.5 -41t162 -117.5t94 -186t30.5 -245.5zM1256 1027q0 89 -17 163.5
t-55 128t-99.5 83.5t-150.5 30q-87 0 -159 -35.5t-129.5 -98t-100 -147.5t-70.5 -184.5t-42 -208.5t-14 -220q0 -201 81 -298.5t239 -97.5q86 0 157.5 34.5t129 95.5t100.5 145t72 182t43.5 207t14.5 221zM955 1668h-140l-118 558h163l65 -318l181 318h183z" />
    <glyph glyph-name="uni01D2" unicode="&#x1d2;" horiz-adv-x="1154" 
d="M153 429q0 84 15 171.5t46.5 168.5t79.5 152.5t114 125t150 84t188 30.5q118 0 197.5 -36.5t127.5 -98t68.5 -142t20.5 -168.5q0 -149 -42 -283t-119.5 -234.5t-187.5 -159.5t-245 -59q-95 0 -171 30.5t-130 88.5t-83 141.5t-29 188.5zM591 136q68 0 122 25.5t94.5 68.5
t69 100t46.5 120t26 128.5t8 125.5q0 64 -12 119t-39.5 95t-72 63t-110.5 23q-70 0 -124.5 -27.5t-95.5 -73t-69 -104.5t-45.5 -122.5t-25 -127t-7.5 -116.5q0 -63 12 -117.5t39.5 -94t72.5 -62.5t111 -23zM787 1269h-140l-118 558h163l65 -318l181 318h183z" />
    <glyph glyph-name="uni01D3" unicode="&#x1d3;" horiz-adv-x="1412" 
d="M723 131q102 0 175 29t124.5 97t85.5 180t58 278l124 871h214l-122 -867q-32 -226 -95.5 -372.5t-152 -232.5t-199 -120t-235.5 -34q-123 0 -218.5 37t-161.5 110.5t-100.5 182t-34.5 251.5v25.5t1 30t3.5 38t6.5 50.5q7 58 17.5 137l25.5 187l34.5 250l45.5 327h214
l-46 -331l-35 -254l-26 -190.5t-18 -140.5q-4 -31 -6.5 -53.5t-3.5 -39.5t-1.5 -30t-0.5 -25q0 -88 16.5 -160t54.5 -123.5t100.5 -79.5t155.5 -28zM957 1668h-140l-118 558h163l65 -318l181 318h183z" />
    <glyph glyph-name="uni01D4" unicode="&#x1d4;" 
d="M495 1141q-2 -13 -8 -58l-15 -109l-19 -140.5l-20.5 -153.5l-20 -147.5l-16.5 -122.5l-5 -42.5t-2 -21.5q-1 -63 15 -105q16 -52 54 -78t95 -27q81 1 155.5 37t149.5 105l122 863h208l-160 -1141h-152q-3 45 -6.5 87t-5.5 87q-79 -94 -166 -144t-184 -50q-336 0 -336 334
q0 14 7 71.5l17 136.5l17 127l17.5 130.5l16.5 124.5l14.5 108.5t11.5 82.5t7 46h209zM810 1265h-140l-118 558h163l65 -318l181 318h183z" />
    <glyph glyph-name="Aringacute" unicode="&#x1fa;" horiz-adv-x="1317" 
d="M877 1403l-163 -362l-245 -538h531l-75 529zM757 1586h288l244 -1586h-215l-55 387h-600l-175 -387h-218zM941 2062q-30 0 -56 -13t-45.5 -35t-30.5 -50t-11 -59q1 -49 29.5 -82t79.5 -33q29 0 55 13t45.5 35t30.5 50.5t11 59.5q-1 48 -30.5 81t-77.5 33zM689 1887
q0 57 21.5 107t58.5 87.5t85.5 59.5t101.5 22q44 0 81 -15.5t64 -43t42.5 -64t16.5 -78.5q1 -57 -20.5 -107t-58 -87t-85 -58.5t-102.5 -21.5q-44 0 -81.5 15t-65 41t-43 62.5t-15.5 80.5zM993 2226h-149l188 639h276z" />
    <glyph glyph-name="aringacute" unicode="&#x1fb;" horiz-adv-x="1125" 
d="M1139 1049l-152 -1049h-153l-5 190q-26 -48 -60.5 -87t-76.5 -66.5t-90.5 -42t-100.5 -14.5q-95 0 -161 32.5t-108 89.5t-61 133.5t-19 165.5q0 80 20.5 168t59 172.5t93 160.5t122 133.5t147 91.5t167.5 34q46 0 94.5 -9t93.5 -22.5t82.5 -29t61.5 -28.5zM351 414
q0 -147 50.5 -212.5t154.5 -65.5q46 0 88 16.5t77.5 41.5t63 54t43.5 53l101 672q-3 2 -18 7t-37.5 10.5t-50 10t-54.5 4.5q-51 0 -101.5 -22t-97 -61.5t-86.5 -94.5t-69.5 -120.5t-46.5 -140t-17 -152.5zM851 1663q-30 0 -56 -13t-45.5 -35t-30.5 -50t-11 -59
q1 -49 29.5 -82t79.5 -33q29 0 55 13t45.5 35t30.5 50.5t11 59.5q-1 48 -30.5 81t-77.5 33zM599 1488q0 57 21.5 107t58.5 87.5t85.5 59.5t101.5 22q44 0 81 -15.5t64 -43t42.5 -64t16.5 -78.5q1 -57 -20.5 -107t-58 -87t-85 -58.5t-102.5 -21.5q-44 0 -81.5 15t-65 41
t-43 62.5t-15.5 80.5zM958 1877h-149l188 639h276z" />
    <glyph glyph-name="AEacute" unicode="&#x1fc;" horiz-adv-x="1972" 
d="M1237 908h618l-17 -144h-619l-80 -590h711l-20 -174h-909l49 373h-480l-235 -373h-229l1023 1582h975l-23 -169h-697zM987 508l111 832l-515 -832h404z" />
    <glyph glyph-name="aeacute" unicode="&#x1fd;" horiz-adv-x="1700" 
d="M1623 95q-87 -57 -185 -86t-186 -29q-135 0 -221 50t-135 144q-34 -41 -83 -76t-103.5 -61.5t-109 -41.5t-99.5 -15q-93 0 -159 31.5t-108.5 88t-62 133.5t-19.5 168q0 83 20.5 171.5t59 173t93.5 160t124.5 132.5t151.5 90t175 33q80 0 142 -14t106.5 -32t70 -34
t33.5 -20q63 48 136.5 74.5t160.5 26.5q167 0 253 -97.5t86 -287.5q0 -19 -4 -41t-25 -44.5t-64.5 -45t-123 -42.5t-200.5 -37t-296 -29q-5 -35 -8 -67t-3 -60q0 -140 68 -209t188 -69q78 0 149.5 31.5t143.5 85.5zM351 407q1 -143 51.5 -207t153.5 -64q39 0 82.5 14.5
t84 37t75 49t57.5 51.5q-6 29 -8.5 60t-2.5 66q0 69 12 140.5t34.5 140.5t55.5 133.5t75 119.5q-3 1 -20.5 10t-48.5 19.5t-75.5 19t-101.5 8.5q-80 0 -156.5 -48.5t-136 -130.5t-95.5 -190.5t-36 -228.5zM1070 665q129 13 217.5 25t146 23.5t89 22t46 20t17 18t2.5 15.5
q0 109 -47.5 164t-132.5 56q-64 0 -119 -24t-98.5 -68.5t-74 -108.5t-46.5 -143z" />
    <glyph glyph-name="Oslashacute" unicode="&#x1fe;" horiz-adv-x="1448" 
d="M1266 1030q-1 108 -25 191.5t-84 138.5l-526 -1209q24 -8 51.5 -11t59.5 -3q88 0 161.5 35t132 96.5t102.5 145.5t72.5 183.5t42.5 209.5t13 223zM1475 1024q2 -236 -53.5 -431.5t-156.5 -336t-240.5 -218.5t-305.5 -78q-86 0 -162 18l-56 -132l-113 49l54 127
q-115 63 -178 188t-65 323q-1 154 23 294.5t70.5 260.5t113 217t150.5 166t183 106t210 37q100 0 174 -21l62 142l112 -45l-62 -143q125 -71 181.5 -204t58.5 -319zM932 1438q-88 0 -161 -36t-131.5 -98.5t-102 -148.5t-72.5 -186.5t-43 -210.5t-13 -222q1 -118 28.5 -197
t84.5 -130l528 1211q-51 18 -118 18z" />
    <glyph glyph-name="oslashacute" unicode="&#x1ff;" horiz-adv-x="1082" 
d="M518 132q15 -4 29.5 -5t29.5 -1q80 0 137 36t96 94.5t61.5 132.5t33.5 149q6 45 8.5 83.5t1.5 67.5q0 163 -65 235zM153 428q-1 62 9 138t35 154.5t66.5 152.5t103.5 132t145.5 93t193.5 35q70 0 135 -20l70 174l72 -32l-69 -172q93 -55 138.5 -153t50.5 -225
q1 -27 0.5 -54.5t-2.5 -55.5q-7 -72 -25 -146t-48.5 -142t-74.5 -128t-102.5 -104t-132.5 -69.5t-165 -25.5q-50 0 -92 9l-70 -170l-76 34l67 159q-59 24 -102 64t-70.5 93.5t-41.5 118.5t-15 140zM783 969q-48 17 -88 17q-75 0 -131.5 -30.5t-97 -82.5t-66 -119.5
t-39.5 -142.5q-11 -51 -15 -99t-4 -87q2 -189 101 -263z" />
    <glyph glyph-name="Scommaaccent" unicode="&#x218;" horiz-adv-x="1239" 
d="M1207 1320q-22 17 -61.5 36.5t-88.5 36.5t-104 28t-107 11q-100 0 -170 -18t-114.5 -51t-64.5 -80t-20 -105q0 -40 12 -68.5t36 -50.5t59.5 -40t82.5 -36l234 -91q71 -28 125.5 -63.5t91.5 -81t56 -103t19 -129.5q0 -110 -36 -210.5t-111 -177t-190 -122t-272 -45.5
q-70 0 -137 10t-124.5 25t-100.5 33t-65 35l44 184q37 -23 77.5 -42.5t87 -33.5t99.5 -21.5t115 -7.5q200 0 298 81t98 250q0 42 -11.5 74t-34 57.5t-54.5 45t-74 36.5l-252 106q-68 28 -124 63q-82 51 -123 122.5t-41 161.5q0 112 46 200t122 149.5t175 94t205 32.5
q69 0 134 -8.5t122.5 -24t105.5 -36t84 -44.5zM435 -473l46 326h298l-44 -324q-6 -63 -29 -109t-58 -78.5t-81 -54t-98 -36.5l-46 100q58 20 99 65t50 111h-137z" />
    <glyph glyph-name="scommaaccent" unicode="&#x219;" horiz-adv-x="925" 
d="M187 846q0 76 30.5 135t84.5 99t128 60.5t160 20.5q51 0 101 -10t96.5 -26.5t88 -37.5t74.5 -42l-65 -139q-23 13 -56.5 30t-73 32t-82.5 25t-86 10q-100 0 -158.5 -33t-58.5 -99q0 -27 6 -46.5t19.5 -34.5t35.5 -27.5t54 -25.5l140 -57q51 -21 99 -47t85 -61t59.5 -80
t22.5 -104q0 -96 -35.5 -172t-95.5 -128.5t-139.5 -80t-166.5 -27.5q-65 0 -122 10.5t-104 28t-84 39t-61 42.5l63 133q19 -15 49.5 -32t69.5 -31t85.5 -23.5t99.5 -9.5q54 0 99.5 14t78 40.5t51 66t18.5 90.5q0 23 -7 41.5t-22.5 35t-41 31.5t-62.5 31l-147 62
q-57 24 -100.5 51t-72 62t-43 79.5t-14.5 104.5zM230 -473l46 326h298l-44 -324q-6 -63 -29 -109t-58 -78.5t-81 -54t-98 -36.5l-46 100q58 20 99 65t50 111h-137z" />
    <glyph glyph-name="circumflex" unicode="&#x2c6;" horiz-adv-x="886" 
d="M447 636h140l127 -557h-164l-64 318l-181 -318h-183z" />
    <glyph glyph-name="caron" unicode="&#x2c7;" horiz-adv-x="886" 
d="M458 108h-140l-118 558h163l65 -318l181 318h183z" />
    <glyph glyph-name="breve" unicode="&#x2d8;" horiz-adv-x="859" 
d="M774 351q-2 -9 -3.5 -17.5t-4.5 -17.5q-25 -109 -97.5 -167.5t-201.5 -58.5q-120 0 -174.5 51t-55.5 147q-1 14 0.5 30t3.5 33h134q-3 -17 -3 -30q-1 -22 5.5 -38.5t17.5 -29.5q24 -45 92 -45q64 0 104 36.5t51 106.5h132z" />
    <glyph glyph-name="dotaccent" unicode="&#x2d9;" horiz-adv-x="552" 
d="M398 152h-300l46 326h298z" />
    <glyph glyph-name="ring" unicode="&#x2da;" horiz-adv-x="689" 
d="M378 502q-30 0 -56 -13t-45.5 -35t-30.5 -50t-11 -59q1 -49 29.5 -82t79.5 -33q29 0 55 13t45.5 35t30.5 50.5t11 59.5q-1 48 -30.5 81t-77.5 33zM126 327q0 57 21.5 107t58.5 87.5t85.5 59.5t101.5 22q44 0 81 -15.5t64 -43t42.5 -64t16.5 -78.5q1 -57 -20.5 -107
t-58 -87t-85 -58.5t-102.5 -21.5q-44 0 -81.5 15t-65 41t-43 62.5t-15.5 80.5z" />
    <glyph glyph-name="ogonek" unicode="&#x2db;" horiz-adv-x="500" 
d="M463 -519q-25 -8 -55 -13q-26 -5 -59 -9t-69 -4q-47 0 -95 10t-86.5 36t-63 72.5t-24.5 120.5q0 36 12.5 69.5t32.5 63t46.5 55.5t53.5 47q64 50 146 90h106q-73 -49 -130 -104q-24 -23 -47.5 -50t-42 -56t-29.5 -59t-11 -60q0 -35 13.5 -57t35.5 -35t50 -18t57 -5
t57.5 3.5t51.5 8.5q26 5 50 12v-118z" />
    <glyph glyph-name="tilde" unicode="&#x2dc;" horiz-adv-x="846" 
d="M603 127q-52 0 -101 20t-93.5 44l-81.5 44t-65 20q-14 0 -26.5 -3.5t-22.5 -14t-16 -30.5t-7 -54h-158q2 67 20 117t48.5 83t72 49t90.5 16q52 0 96 -19.5t83 -43.5t74.5 -43.5t70.5 -19.5q17 0 30 3.5t22 14t14 29.5t6 49h159q-2 -71 -19.5 -120.5t-46.5 -80.5
t-67.5 -45.5t-81.5 -14.5z" />
    <glyph glyph-name="hungarumlaut" unicode="&#x2dd;" horiz-adv-x="1562" 
d="M466 128h-149l188 639h276zM852 128h-149l288 639h276z" />
    <glyph glyph-name="acutecomb" unicode="&#x301;" horiz-adv-x="781" 
d="M420 128h-149l188 639h276z" />
    <glyph glyph-name="uni0306" unicode="&#x306;" horiz-adv-x="859" 
d="M774 351q-2 -9 -3.5 -17.5t-4.5 -17.5q-25 -109 -97.5 -167.5t-201.5 -58.5q-120 0 -174.5 51t-55.5 147q-1 14 0.5 30t3.5 33h134q-3 -17 -3 -30q-1 -22 5.5 -38.5t17.5 -29.5q24 -45 92 -45q64 0 104 36.5t51 106.5h132z" />
    <glyph glyph-name="uni0400" unicode="&#x400;" horiz-adv-x="1114" 
d="M1053 0h-927l223 1586h914l-25 -166h-698l-72 -513h614l-20 -143h-615l-85 -599h717zM850 1707h-106l-231 643h297z" />
    <glyph glyph-name="afii10023" unicode="&#x401;" horiz-adv-x="1114" 
d="M1053 0h-927l223 1586h914l-25 -166h-698l-72 -513h614l-20 -143h-615l-85 -599h717zM759 1839q-1 -32 -14 -60.5t-33 -50.5t-46 -35t-53 -13q-24 0 -45 9t-36 25t-23.5 37.5t-8.5 47.5q0 32 12 61.5t33 52.5t48 36.5t57 13.5q48 0 78 -33t31 -84v-7zM1222 1837
q-1 -31 -14 -59.5t-33 -50.5t-46 -35t-53 -13q-49 0 -80 34t-32 85q0 31 12.5 61t33 52.5t47.5 36.5t56 14q48 0 78 -34t31 -84v-7z" />
    <glyph glyph-name="afii10051" unicode="&#x402;" horiz-adv-x="1516" 
d="M792 -78q30 1 57.5 2.5t51.5 6.5q4 0 7.5 -0.5t8.5 -0.5q94 14 155.5 65t94.5 153q9 30 16 57.5t13 61t12.5 76t14.5 102l18 140l24 189.5q3 23 4.5 40t2.5 23q0 57 -15 96q-32 99 -151 99q-53 0 -103.5 -13t-95 -34t-81 -46t-62.5 -49l-129 -890h-225l204 1417h-421
l26 170h1069l-24 -170h-424l-59 -409q51 53 97.5 89t93 58.5t94 32t101.5 9.5q159 0 241 -81.5t84 -247.5q1 -14 -1 -38.5t-7 -56.5l-11.5 -93.5l-13.5 -105.5l-14.5 -107l-13.5 -97l-10.5 -74.5t-6.5 -40.5q-31 -220 -154.5 -343t-331.5 -148q-42 -4 -82.5 -4t-80.5 5z" />
    <glyph glyph-name="afii10052" unicode="&#x403;" horiz-adv-x="1152" 
d="M598 1717l214 623l254 -34l-333 -606zM1303 1586l-22 -163h-728l-200 -1423h-225l223 1586h952z" />
    <glyph glyph-name="afii10053" unicode="&#x404;" horiz-adv-x="1190" 
d="M201 593q5 138 31 268t72.5 243.5t113.5 207.5t154.5 161.5t194.5 105t234 37.5q72 0 141.5 -13t132.5 -34q27 -8 54.5 -18t56.5 -24l-83 -172q-83 44 -157 60.5t-138 18.5q-25 2 -49.5 0.5t-48.5 -4.5q-82 -11 -152 -50t-126.5 -109t-99 -171.5t-69.5 -237.5h629
l-23 -140h-629q-5 -48 -8.5 -89.5t-2.5 -80.5q1 -91 19 -166.5t56.5 -130t98.5 -84.5t146 -30q97 0 193.5 28.5t196.5 79.5l37 -168q-41 -21 -90.5 -42.5t-106 -38.5t-120 -28t-133.5 -11q-131 0 -229.5 39t-164.5 112.5t-100 180t-35 241.5q0 14 1 28t3 31z" />
    <glyph glyph-name="afii10054" unicode="&#x405;" horiz-adv-x="1227" 
d="M1207 1320q-22 17 -61.5 36.5t-88.5 36.5t-104 28t-107 11q-100 0 -170 -18t-114.5 -51t-64.5 -80t-20 -105q0 -40 12 -68.5t36 -50.5t59.5 -40t82.5 -36l234 -91q71 -28 125.5 -63.5t91.5 -81t56 -103t19 -129.5q0 -110 -36 -210.5t-111 -177t-190 -122t-272 -45.5
q-70 0 -137 10t-124.5 25t-100.5 33t-65 35l44 184q37 -23 77.5 -42.5t87 -33.5t99.5 -21.5t115 -7.5q200 0 298 81t98 250q0 42 -11.5 74t-34 57.5t-54.5 45t-74 36.5l-252 106q-68 28 -124 63q-82 51 -123 122.5t-41 161.5q0 112 46 200t122 149.5t175 94t205 32.5
q69 0 134 -8.5t122.5 -24t105.5 -36t84 -44.5z" />
    <glyph glyph-name="afii10055" unicode="&#x406;" horiz-adv-x="911" 
d="M163 122h184l193 1335h-183l20 129h580l-20 -129h-186l-193 -1335h186l-20 -122h-579z" />
    <glyph glyph-name="afii10056" unicode="&#x407;" horiz-adv-x="860" 
d="M142 122h184l193 1335h-183l20 129h580l-20 -129h-186l-193 -1335h186l-20 -122h-579zM579 1816q-1 -32 -14 -60.5t-33 -50.5t-46 -35t-53 -13q-24 0 -45 9t-36 25t-23.5 37.5t-8.5 47.5q0 32 12 61.5t33 52.5t48 36.5t57 13.5q48 0 78 -33t31 -84v-7zM1042 1814
q-1 -31 -14 -59.5t-33 -50.5t-46 -35t-53 -13q-49 0 -80 34t-32 85q0 31 12.5 61t33 52.5t47.5 36.5t56 14q48 0 78 -34t31 -84v-7z" />
    <glyph glyph-name="afii10057" unicode="&#x408;" horiz-adv-x="715" 
d="M61 63q77 17 131.5 36.5t92 43.5t60 54t37 68.5t22.5 86.5t16 108l159 1126h213l-149 -1064q-14 -98 -31 -179t-43.5 -146t-64.5 -114.5t-94 -85t-133 -57t-180 -30.5z" />
    <glyph glyph-name="afii10058" unicode="&#x409;" horiz-adv-x="2470" 
d="M1583 0h-246l205 1423h-667l-119 -633q-26 -138 -52 -251.5t-61.5 -203t-84 -155.5t-120 -109.5t-170 -65t-232.5 -21.5l30 190q100 4 169.5 24t116 59t75 98t46.5 140q17 81 33 166l34 181l137 744h1115l-90 -622h129q168 0 289 -23.5t199 -70.5t116 -119t39 -169
q1 -156 -49 -267.5t-141 -180.5q-98 -74 -239.5 -104.5t-323.5 -30.5zM2256 547q1 42 -11 79q-18 56 -64 90.5t-107.5 53t-131.5 25t-136 6.5h-129l-92 -639h168q147 0 243 24t152.5 72.5t80.5 120.5t27 168z" />
    <glyph glyph-name="afii10059" unicode="&#x40a;" horiz-adv-x="2210" 
d="M1326 0h-246l105 753h-727l-105 -753h-225l223 1586h225l-98 -691h727l97 691h226l-87 -621h128q283 0 438 -67.5t190 -212.5q18 -66 14 -138q-7 -156 -61 -260.5t-150 -168.5t-231.5 -91t-305.5 -27h-137zM1996 555q2 48 -13 80q-19 55 -65.5 88t-108 50t-131 22.5
t-133.5 5.5h-129l-89 -639h168q157 0 254 24.5t151 73.5t73.5 123t22.5 172z" />
    <glyph glyph-name="afii10060" unicode="&#x40b;" horiz-adv-x="1479" 
d="M635 0h-225l204 1415h-415l25 171h1070l-25 -171h-430l-64 -452h358q75 0 135 -19.5t102.5 -60t65.5 -101.5t23 -143q1 -18 -0.5 -40t-6.5 -60l-12 -85.5l-16 -113.5l-21 -148.5l-27 -191.5h-221l28.5 192.5l22 150t16 114.5l11.5 87q5 32 5.5 48t0.5 28q0 49 -13.5 83
t-36.5 55.5t-54 31t-65 9.5h-318z" />
    <glyph glyph-name="afii10061" unicode="&#x40c;" horiz-adv-x="1247" 
d="M861 1541h-149l188 639h276zM353 0h-225l223 1586h225l-100 -717h178l533 717h251l-486 -634q-28 -36 -52.5 -61t-47.5 -42.5t-47 -28.5t-52 -19q45 -11 81 -44t70 -93l372 -664h-244l-397 734h-180z" />
    <glyph glyph-name="uni040D" unicode="&#x40d;" horiz-adv-x="1505" 
d="M1015 1460h-106l-231 643h297zM128 0l223 1586h215l-167 -1186l881 1186h302l-222 -1586h-216l191 1363l-980 -1275l-12 -88h-215z" />
    <glyph glyph-name="afii10062" unicode="&#x40e;" horiz-adv-x="1268" 
d="M1114 1913q-2 -10 -3.5 -18.5t-4.5 -17.5q-25 -109 -97.5 -167t-201.5 -58q-120 0 -174.5 51.5t-55.5 145.5q-1 15 0.5 31t3.5 33h134q-2 -8 -2.5 -15.5t-1.5 -14.5q-1 -57 28.5 -85.5t86.5 -28.5q66 0 105.5 37t50.5 107h132zM673 689l429 897h223l-594 -1130l-34 -220
q-12 -74 -40.5 -142t-81.5 -120t-134 -83.5t-198 -31.5l-35 154q72 1 125 12.5t90 37.5t59 69t32 108l33 215l-256 1131h210z" />
    <glyph glyph-name="afii10145" unicode="&#x40f;" horiz-adv-x="1459" 
d="M1314 0h-478l-57 -406h-210l58 406h-499l223 1586h225l-201 -1424h736l201 1424h225z" />
    <glyph glyph-name="afii10017" unicode="&#x410;" horiz-adv-x="1317" 
d="M877 1403l-163 -362l-245 -538h531l-75 529zM757 1586h288l244 -1586h-215l-55 387h-600l-175 -387h-218z" />
    <glyph glyph-name="afii10018" unicode="&#x411;" horiz-adv-x="1283" 
d="M1267 549q1 -35 -2.5 -67t-10.5 -61q-26 -124 -91 -205t-162 -129t-223 -67.5t-274 -19.5h-376l220 1586h933l-22 -153h-705l-65 -469h121q160 0 282 -23t205.5 -70.5t126.5 -120t45 -172.5v-14t-2 -15zM540 800h-74l-91 -639h175q120 0 207.5 19t146.5 58t92 99t43 143
q2 18 3.5 35.5t0.5 37.5q-1 57 -20.5 97.5t-53 68t-77 43.5t-92 24.5t-100 11t-99.5 2.5h-61z" />
    <glyph glyph-name="afii10019" unicode="&#x412;" horiz-adv-x="1342" 
d="M672 925q109 0 189.5 16t134 52t80 95t26.5 146q0 55 -31 91t-85.5 57t-129 29.5t-160.5 8.5h-155l-70 -495h201zM562 166q117 0 209.5 16.5t157 57t98.5 110t34 174.5q0 49 -12.5 94t-53.5 79.5t-119 54.5t-209 20h-217l-86 -606h198zM1267 525q0 -121 -43.5 -218
t-133.5 -165.5t-228.5 -105t-328.5 -36.5h-407l225 1586h346q163 0 276.5 -20t184.5 -61t103 -102.5t32 -144.5q0 -89 -21 -155t-64.5 -113t-109.5 -77.5t-155 -48.5q162 -23 243.5 -106.5t80.5 -232.5z" />
    <glyph glyph-name="afii10020" unicode="&#x413;" horiz-adv-x="1152" 
d="M1303 1586l-22 -163h-728l-200 -1423h-225l223 1586h952z" />
    <glyph glyph-name="afii10021" unicode="&#x414;" horiz-adv-x="1634" 
d="M1514 165l67 -48l-69 -482h-220l49 348h-974l-50 -348h-223l70 503q68 0 113 45q45 55 80.5 113.5t63.5 123t50 136t40 151.5q24 106 42.5 223t36.5 252l55 404h1067zM1284 138l182 1299h-616l-44 -325q-18 -134 -39.5 -264.5t-55.5 -254.5t-84 -239t-125 -216h782z" />
    <glyph glyph-name="afii10022" unicode="&#x415;" horiz-adv-x="1131" 
d="M1053 0h-927l223 1586h914l-25 -166h-698l-72 -513h614l-20 -143h-615l-85 -599h717z" />
    <glyph glyph-name="afii10024" unicode="&#x416;" horiz-adv-x="1935" 
d="M982 734h-150l-574 -734h-236l531 656q50 59 94 96.5t95 48.5q-26 8 -46.5 20t-38.5 29.5t-34.5 42t-34.5 57.5l-282 636h226l313 -717h157l101 717h225l-101 -717h158l514 717l240 -10l-479 -624q-26 -33 -48.5 -58t-45 -43t-46.5 -30t-52 -20q46 -11 82 -43.5t71 -92.5
l342 -665h-236l-369 734h-151l-102 -734h-225z" />
    <glyph glyph-name="afii10025" unicode="&#x417;" horiz-adv-x="1465" 
d="M946 807q73 -9 127 -44q69 -35 112.5 -106.5t45.5 -168.5q1 -121 -40.5 -219t-110.5 -164q-75 -72 -177.5 -107t-226.5 -35q-84 0 -163 14.5t-154 44.5l-45.5 20t-39.5 20l82 175q27 -15 66.5 -31.5t85 -30t93 -22.5t89.5 -9q78 0 139.5 27.5t104 73.5t64.5 107t22 127
q-1 208 -253 236q-48 6 -102 6h-91l27 169h86q24 0 47 1t45 4q170 19 258 110.5t87 245.5q-1 86 -49.5 133t-159.5 50q-19 1 -39 0.5t-43 -2.5q-45 -3 -86.5 -11.5t-78 -19t-66 -22t-49.5 -20.5l-28 167q19 10 53.5 23.5t79 26.5t96 23t103.5 13q42 4 81 3q84 -1 155 -20.5
t123 -60.5t82 -104t31 -151q1 -72 -15.5 -137.5t-48 -121t-76.5 -99t-101 -71.5q-66 -34 -142 -43z" />
    <glyph glyph-name="afii10026" unicode="&#x418;" horiz-adv-x="1505" 
d="M128 0l223 1586h215l-167 -1186l881 1186h302l-222 -1586h-216l191 1363l-980 -1275l-12 -88h-215z" />
    <glyph glyph-name="afii10027" unicode="&#x419;" horiz-adv-x="1505" 
d="M1314 1845l-8 -36q-24 -108 -97.5 -167t-200.5 -59q-119 0 -174.5 51.5t-57.5 145.5q0 15 1 31.5t4 33.5h133l-3 -31q-1 -55 29 -84t87 -29q66 0 104.5 37t49.5 107h133zM128 0l223 1586h215l-167 -1186l881 1186h302l-222 -1586h-216l191 1363l-980 -1275l-12 -88h-215z
" />
    <glyph glyph-name="afii10028" unicode="&#x41a;" horiz-adv-x="1247" 
d="M353 0h-225l223 1586h225l-100 -717h178l533 717h251l-486 -634q-28 -36 -52.5 -61t-47.5 -42.5t-47 -28.5t-52 -19q45 -11 81 -44t70 -93l372 -664h-244l-397 734h-180z" />
    <glyph glyph-name="afii10029" unicode="&#x41b;" horiz-adv-x="1707" 
d="M1561 0h-225l200 1423h-666l-107 -582l-50 -255t-57.5 -212t-80.5 -168t-119.5 -122.5t-174.5 -74.5t-245 -25l30 190q58 3 108 10.5t91 22.5t74 39t58 60q22 31 39 76.5t30.5 100.5t25 117l23.5 128l156 858h1114z" />
    <glyph glyph-name="afii10030" unicode="&#x41c;" horiz-adv-x="1769" 
d="M766 0l-61 352l-174 1036l-197 -1388h-206l166 1182l60 404h324l69 -404l99 -598l58 -357l142 318l311 684l163 357h327l-77 -580l-143 -1006h-207l196 1390l-535 -1194l-90 -196h-225z" />
    <glyph glyph-name="afii10031" unicode="&#x41d;" horiz-adv-x="1425" 
d="M1065 0l107 754h-725l-107 -754h-215l227 1586h214l-98 -689h724l99 689h214l-227 -1586h-213z" />
    <glyph glyph-name="afii10032" unicode="&#x41e;" horiz-adv-x="1457" 
d="M1476 1024q0 -236 -57 -431.5t-159 -336t-242 -218.5t-306 -78q-119 0 -214 34.5t-162 105.5t-103 178.5t-36 254.5q0 154 25.5 294.5t72.5 260.5t114.5 217t151.5 166t183.5 106t210.5 37q136 0 234.5 -41t162 -117.5t94 -186t30.5 -245.5zM1256 1027q0 89 -17 163.5
t-55 128t-99.5 83.5t-150.5 30q-87 0 -159 -35.5t-129.5 -98t-100 -147.5t-70.5 -184.5t-42 -208.5t-14 -220q0 -201 81 -298.5t239 -97.5q86 0 157.5 34.5t129 95.5t100.5 145t72 182t43.5 207t14.5 221z" />
    <glyph glyph-name="afii10033" unicode="&#x41f;" horiz-adv-x="1459" 
d="M1314 0h-225l199 1423h-736l-199 -1423h-225l223 1586h1186z" />
    <glyph glyph-name="afii10034" unicode="&#x420;" horiz-adv-x="1253" 
d="M589 789q148 0 250.5 22.5t166 69.5t92 120.5t28.5 174.5q0 83 -31 131.5t-86 73.5t-130.5 32t-163.5 7h-173l-88 -631h135zM352 1586h379q165 0 279.5 -23t185.5 -70.5t103 -121t32 -173.5q-1 -168 -55.5 -277.5t-154.5 -174.5t-241.5 -91t-315.5 -26h-135l-89 -629
h-214z" />
    <glyph glyph-name="afii10035" unicode="&#x421;" horiz-adv-x="1193" 
d="M200 541q0 138 21.5 271.5t64 253t106 220t147.5 174t189 114.5t230 41q54 0 102.5 -6t96 -17.5t97 -27.5l106.5 -36l-75 -174q-86 34 -162.5 56t-157.5 22q-94 0 -171 -33.5t-137.5 -93.5t-104.5 -142.5t-73 -179.5t-43 -205.5t-14 -220.5q0 -212 84 -313.5t249 -101.5
q38 0 82 9t91.5 24t96 34.5l96.5 40.5l36 -167l-100.5 -46t-103.5 -39.5t-110 -27.5t-119 -10q-254 0 -389 146.5t-135 434.5z" />
    <glyph glyph-name="afii10036" unicode="&#x422;" horiz-adv-x="1027" 
d="M1227 1420h-418l-199 -1420h-213l199 1420h-420l24 166h1050z" />
    <glyph glyph-name="afii10037" unicode="&#x423;" horiz-adv-x="1154" 
d="M673 689l429 897h223l-594 -1130l-34 -220q-23 -147 -103 -227.5t-225 -100.5l-96 97q50 11 90.5 25t70.5 39t50 65.5t30 105.5l33 215l-256 1131h210z" />
    <glyph glyph-name="afii10038" unicode="&#x424;" horiz-adv-x="1546" 
d="M915 308q112 12 192.5 60.5t134.5 129.5q51 78 75.5 180.5t27.5 217.5q1 120 -36 198q-30 85 -95 124.5t-162 48.5zM829 1267q-53 -6 -95 -24q-63 -19 -114 -53t-89 -88q-30 -43 -53 -97t-38 -114t-22.5 -122.5t-6.5 -122.5q1 -80 21.5 -139t57.5 -100.5t89 -65.5
t115 -33zM871 -19h-221l21 156q-119 8 -207.5 50.5t-147 110t-88 154.5t-30.5 184q-1 35 1 70t7 70q18 140 72.5 262t139 212t195 141.5t241.5 51.5l24 161h222l-23 -161q231 -16 357 -145.5t130 -376.5q1 -98 -17.5 -193t-56 -181t-94 -159.5t-131.5 -128t-168.5 -87
t-204.5 -36.5z" />
    <glyph glyph-name="afii10039" unicode="&#x425;" horiz-adv-x="1240" 
d="M849 801l338 -801h-241l-241 630l-442 -630h-241l585 801l-340 785h226l259 -622l452 622h227z" />
    <glyph glyph-name="afii10040" unicode="&#x426;" horiz-adv-x="1455" 
d="M1428 40l-63 -446h-210l58 406h-1085l223 1586h225l-201 -1422h732l200 1422h226l-218 -1546h113z" />
    <glyph glyph-name="afii10041" unicode="&#x427;" horiz-adv-x="1257" 
d="M961 576q-33 -46 -71 -78t-83 -53q-54 -30 -109 -43t-116 -13q-155 0 -242.5 82t-89.5 252q-1 12 1.5 36t6.5 59l17 129l21 154.5l21.5 161l20 147.5l16 114.5l8.5 61.5h221l-8.5 -62l-16 -113.5l-20 -146.5l-21.5 -159.5l-21 -152.5l-17 -127q-4 -26 -5.5 -42.5
t-2.5 -21.5q-2 -110 42 -158.5t127 -48.5q55 0 106 13.5t94.5 34.5t78.5 45.5t59 47.5l127 891h221l-224 -1586h-220z" />
    <glyph glyph-name="afii10042" unicode="&#x428;" horiz-adv-x="2202" 
d="M1227 165h628l200 1421h225l-223 -1586h-1929l223 1586h225l-201 -1422h627l200 1422h225z" />
    <glyph glyph-name="afii10043" unicode="&#x429;" horiz-adv-x="2202" 
d="M1227 165h627l200 1421h225l-223 -1595h78l-56 -391h-210l57 400h-1797l223 1586h225l-201 -1421h627l201 1421h225z" />
    <glyph glyph-name="afii10044" unicode="&#x42a;" horiz-adv-x="1346" 
d="M124 1586h532l-88 -621h137q170 0 291 -23t199 -71t115 -121t39 -173q1 -165 -51 -279t-146 -178q-100 -69 -239.5 -95t-314.5 -26h-391l199 1421h-306zM620 800h-75l-91 -639h124q156 0 258 16.5t164.5 54.5t91 99.5t36.5 151.5q4 39 3 81q0 53 -20 91.5t-53.5 64.5
t-78.5 42t-95 24.5t-102.5 11t-101.5 2.5h-60z" />
    <glyph glyph-name="afii10045" unicode="&#x42b;" horiz-adv-x="1842" 
d="M1685 0h-225l223 1586l229 27zM544 801h-75l-90 -638h124q171 0 279 21t169 69t83 124.5t22 187.5q0 53 -20 91.5t-53.5 64.5t-78.5 42t-95.5 24.5t-102.5 11t-101 2.5h-61zM1270 553q0 -87 -15 -151q-26 -120 -87 -198t-154 -123.5t-217 -63.5t-275 -18h-392l224 1586
h225l-88 -621h136q167 0 288 -23t199.5 -70t116.5 -119t40 -171q1 -7 0.5 -13.5t-1.5 -14.5z" />
    <glyph glyph-name="afii10046" unicode="&#x42c;" horiz-adv-x="1336" 
d="M613 801h-75l-90 -638h124q171 0 279 21t169 69t83 124.5t22 187.5q-1 53 -21 91.5t-53.5 64.5t-78 42t-94.5 24.5t-102 11t-102 2.5h-61zM1339 553q0 -87 -15 -151q-26 -120 -87 -198t-154 -123.5t-217 -63.5t-275 -18h-392l224 1586h225l-88 -621h136q167 0 288 -23
t199.5 -70t116.5 -119t40 -171q1 -7 0.5 -13.5t-1.5 -14.5z" />
    <glyph glyph-name="afii10047" unicode="&#x42d;" horiz-adv-x="1305" 
d="M1319 983q0 -55 -4 -108t-12 -105q-28 -173 -90.5 -320.5t-159.5 -256.5t-227 -170.5t-292 -61.5q-66 0 -126 9.5t-112 26t-95.5 38.5t-77.5 46l91 168q89 -57 174 -82.5t181 -25.5q70 0 129.5 23t109 63t89.5 94.5t71 118t54 132.5t38 138h-543l24 156h543q6 46 8.5 87
t2.5 79q-1 106 -22.5 182t-66 125.5t-113 73t-163.5 23.5q-49 0 -98.5 -9t-112.5 -31l-119 -41l-28 172q24 10 46 17.5t42 13.5q69 26 147.5 42t177.5 16q533 0 538 -574q2 -31 -4 -59z" />
    <glyph glyph-name="afii10048" unicode="&#x42e;" horiz-adv-x="1938" 
d="M1215 141q92 0 166 37t131.5 101t98.5 150t67 184.5t38 204.5t11 209q-1 87 -18 161.5t-56 129.5t-103 86.5t-158 31.5q-95 0 -170 -39t-132 -105t-97 -154.5t-64.5 -187t-35.5 -202.5t-10 -201q2 -203 83 -304.5t249 -101.5zM685 873q25 163 84 299t150 234.5t214.5 153
t277.5 54.5q157 0 262 -46.5t168 -129t89.5 -196t26.5 -246.5q-1 -147 -25 -280.5t-69 -248.5t-111 -208.5t-151 -159.5t-188.5 -102t-224.5 -36q-129 0 -229 38.5t-168.5 112.5t-104 181t-36.5 245q-1 45 2 93t11 102h-206l-104 -734h-225l223 1586h225l-96 -711z" />
    <glyph glyph-name="afii10049" unicode="&#x42f;" horiz-adv-x="1334" 
d="M639 797q-30 0 -57 5t-50 13q-114 26 -181 98.5t-69 189.5q-1 78 16 141t49 113t78.5 87t105.5 63q103 46 234.5 62t279.5 16h367l-223 -1586h-225l101 723h-156q-120 0 -210.5 -14t-154 -49t-101 -95t-50.5 -152l-57 -413h-224l55 395q15 99 55.5 170.5t102 119.5
t141.5 75t173 38zM1024 873h62l77 549h-150q-123 0 -216.5 -11.5t-158 -40.5t-101.5 -80t-47 -129q-2 -16 -3 -32t-1 -33q1 -51 20 -87.5t51 -61t74.5 -39t90.5 -22t99 -10t100 -2.5z" />
    <glyph glyph-name="afii10065" unicode="&#x430;" horiz-adv-x="1118" 
d="M1134 1049l-146 -1049h-152l-6 190q-26 -48 -60.5 -87t-76 -66.5t-90 -42t-100.5 -14.5q-94 0 -160.5 32.5t-109 89.5t-62 133.5t-19.5 165.5q-1 80 19 168t58 172.5t92 160.5t121.5 133.5t146.5 91.5t167 34q46 0 94.5 -9t93.5 -22.5t83 -29t62 -28.5zM350 414
q1 -147 51.5 -212.5t154.5 -65.5q46 0 88 16.5t77.5 41.5t63 54t44.5 54l96 671q-3 2 -18 7t-37.5 10.5t-50 10t-54.5 4.5q-51 0 -101.5 -22t-96.5 -61.5t-86 -94.5t-69 -120.5t-45.5 -140t-16.5 -152.5z" />
    <glyph glyph-name="afii10066" unicode="&#x431;" horiz-adv-x="1149" 
d="M555 -21q-96 0 -168 30.5t-120 88.5t-72 142t-25 191q-1 117 13.5 243t46 247t80.5 229t117.5 190t157 130t198.5 48q26 0 53 -1t55 -1q31 0 52.5 2.5t35 11t20.5 24.5t9 44l172 1q-3 -74 -24.5 -118.5t-66.5 -68t-116.5 -31t-174.5 -7.5q-71 0 -130 -33t-105.5 -89
t-80.5 -131t-55 -160q87 85 174.5 122.5t184.5 37.5q83 0 148.5 -25.5t111 -73.5t70.5 -118t26 -160q1 -92 -14.5 -184.5t-47.5 -177.5t-81 -158.5t-114.5 -128t-148 -85.5t-181.5 -31zM669 937q-88 -24 -145.5 -81t-91 -131t-47 -155.5t-13.5 -153.5q0 -144 50 -215
t162 -71q67 0 119 29.5t91 78t66 111.5t43.5 130t24 133.5t7.5 121.5q-1 91 -30 146.5t-98 72.5q-59 12 -138 -16z" />
    <glyph glyph-name="afii10067" unicode="&#x432;" horiz-adv-x="1074" 
d="M709 1158q78 0 147.5 -18.5t122 -53t83.5 -84t31 -111.5q0 -66 -24 -117t-67 -87.5t-104 -58t-134 -29.5q42 -3 89.5 -19t88 -45.5t67 -72.5t26.5 -99q0 -91 -38 -161.5t-102.5 -119t-149 -73.5t-176.5 -25q-99 0 -179.5 28t-137 83t-87 137.5t-30.5 190.5q0 153 39 287
t113 233.5t180.5 157t241.5 57.5zM373 670q106 0 203 4t170.5 23t117.5 58.5t44 109.5q0 66 -50 102.5t-150 36.5q-50 0 -100 -16.5t-95 -55.5t-81.5 -103t-58.5 -159zM353 535q-5 -35 -7.5 -71.5t-1.5 -68.5q4 -122 60.5 -190.5t172.5 -68.5q60 0 110 15t85.5 44.5t55 72
t19.5 96.5t-29 87.5t-74.5 52.5t-102 26t-111.5 8.5t-102.5 -1t-74.5 -2.5z" />
    <glyph glyph-name="afii10068" unicode="&#x433;" horiz-adv-x="967" 
d="M978 901q0 -77 -23 -134.5t-65 -101t-100.5 -74.5t-130.5 -56l-162 -58q-49 -17 -82 -34.5t-53.5 -39t-29 -48t-8.5 -61.5q0 -81 52 -119t158 -38q35 0 80.5 11.5t89 28t79.5 34.5t52 31l40 -143q-25 -18 -64 -39t-90.5 -38.5t-114.5 -29.5t-135 -12q-71 0 -133 19.5
t-108 57t-72.5 93.5t-26.5 129q0 84 28 145.5t76.5 107.5t113.5 79.5t139 61.5l155 58q43 16 72 31t46 32.5t24 37.5t7 47q0 66 -49 95t-136 29q-43 0 -85.5 -8t-82.5 -22t-75.5 -33t-63.5 -41l-40 147q27 19 70 39.5t93.5 37t104.5 27.5t103 11q76 0 139.5 -16.5
t109.5 -49.5t72 -81.5t26 -112.5z" />
    <glyph glyph-name="afii10069" unicode="&#x434;" horiz-adv-x="1185" 
d="M927 711q0 54 -9 103t-29 91q-11 19 -27.5 36.5t-38 31.5t-49.5 22.5t-61 8.5q-53 0 -99 -24t-85 -65.5t-69.5 -98t-51.5 -122t-32.5 -136.5t-11.5 -142q0 -280 221 -280q61 0 110 27t86.5 72.5t64.5 104.5t44.5 123t26.5 128t10 120zM721 1161q40 0 84 -12.5t81.5 -41
t65 -75t34.5 -114.5v32.5v51t-0.5 53t-1.5 38.5q-3 94 -30 158.5t-77.5 104.5t-124.5 57.5t-171 17.5l-27 28l-14 113q14 0 53 2.5t93 0.5q109 -4 194.5 -39.5t145.5 -99t93.5 -153.5t38.5 -203q2 -60 1.5 -121.5t-5.5 -127.5q-8 -106 -27.5 -210.5t-52.5 -199t-80.5 -175
t-110.5 -140t-143 -93t-179 -33.5t-173 35t-123 97t-73.5 147.5t-24.5 186.5q0 85 17.5 171.5t50.5 166t81 148.5t109.5 120t136 80t159.5 29z" />
    <glyph glyph-name="afii10070" unicode="&#x435;" horiz-adv-x="1044" 
d="M385 649q162 20 262.5 37t156 35t74.5 38t18 45q0 99 -44.5 151t-125.5 52q-68 0 -124 -26.5t-99.5 -74t-73 -113.5t-44.5 -144zM369 528q-10 -80 -4 -144q5 -128 69.5 -189t174.5 -61q75 0 146 32t140 86l41 -152q-90 -58 -188.5 -89t-186.5 -31q-99 0 -174.5 30.5
t-127 87.5t-78.5 138t-28 182q-1 83 14.5 170.5t47 170t79 156t110 128t140 86.5t169.5 32q180 0 265.5 -89.5t86.5 -267.5q0 -34 -7 -64t-31.5 -56t-70.5 -49t-123 -42.5t-191 -35.5t-273 -29z" />
    <glyph glyph-name="afii10072" unicode="&#x436;" horiz-adv-x="1623" 
d="M713 0l79 510h-154l-340 -510h-249l340 455q40 54 87 87t98 38q-51 5 -86.5 37t-62.5 92l-194 432h254l171 -482h161l75 482h207l-75 -482h162l320 482h254l-328 -432q-46 -60 -94 -92.5t-97 -36.5q48 -6 85 -38.5t60 -86.5l200 -457h-257l-168 513h-161l-79 -511h-208z
" />
    <glyph glyph-name="afii10073" unicode="&#x437;" horiz-adv-x="1012" 
d="M321 504l25 161q110 0 197 6.5t147 29t92 65.5t32 117q0 63 -51.5 93.5t-145.5 30.5q-54 0 -108 -9t-97.5 -19.5t-71.5 -19.5l-27 -9l-17 147q10 6 41.5 16.5t77.5 21t104 18.5t123 8q178 0 270 -57t94 -178q0 -75 -24 -134.5t-62.5 -102.5t-86.5 -69.5t-95 -35.5
q39 -8 74.5 -25.5t62.5 -46t43.5 -68.5t17.5 -92q0 -89 -35 -158t-96.5 -117t-146 -73t-183.5 -25q-136 0 -224 22.5t-137 51.5l65 146q24 -11 57 -23t73.5 -22t88 -16t100.5 -6q59 0 104 15.5t76 44t46.5 68t15.5 87.5q0 84 -75.5 120.5t-232.5 36.5h-111z" />
    <glyph glyph-name="afii10074" unicode="&#x438;" 
d="M495 1141q-2 -13 -8 -55.5l-15 -103.5l-19 -135l-20.5 -149l-20 -146l-16.5 -126l-5 -49t-2 -31q-1 -63 15 -105q16 -52 54 -78t95 -27q81 1 155.5 37t149.5 105l122 863h208l-160 -1141h-152q-3 45 -6.5 87t-5.5 87q-79 -94 -166 -144t-184 -50q-336 0 -336 334
q0 16 2.5 42.5t6.5 59.5q6 57 15 129.5t19.5 149l21 151l19.5 136l15.5 104.5t8.5 55h209z" />
    <glyph glyph-name="afii10075" unicode="&#x439;" horiz-adv-x="1169" 
d="M495 1141q-2 -13 -8 -55.5l-15 -103.5l-19 -135l-20.5 -149l-20 -146l-16.5 -126l-5 -49t-2 -31q-1 -63 15 -105q16 -52 54 -78t95 -27q81 1 155.5 37t149.5 105l122 863h208l-160 -1141h-152q-3 45 -6.5 87t-5.5 87q-79 -94 -166 -144t-184 -50q-336 0 -336 334
q0 16 2.5 42.5t6.5 59.5q6 57 15 129.5t19.5 149l21 151l19.5 136l15.5 104.5t8.5 55h209zM1078 1481q-2 -9 -3.5 -17.5t-4.5 -17.5q-25 -109 -97.5 -167.5t-201.5 -58.5q-120 0 -174.5 51t-55.5 147q-1 14 0.5 30t3.5 33h134q-3 -17 -3 -30q-1 -22 5.5 -38.5t17.5 -29.5
q24 -45 92 -45q64 0 104 36.5t51 106.5h132z" />
    <glyph glyph-name="afii10076" unicode="&#x43a;" horiz-adv-x="1085" 
d="M128 0l160 1141h208l-71 -494h113l437 494h249l-357 -384l-50.5 -52.5t-66.5 -61t-75.5 -50.5t-76.5 -22q16 -3 38 -12t44.5 -22.5t43.5 -30.5t36 -36l34 -46l35 -51l239 -373h-245l-222 372l-88 130h-108l-69 -502h-208z" />
    <glyph glyph-name="afii10077" unicode="&#x43b;" horiz-adv-x="1259" 
d="M437 1141h838l-176 -1141h-213l154 993h-432l-120 -556q-25 -113 -62.5 -198t-95 -141.5t-140.5 -85t-199 -28.5l28 184q60 3 103 20t74.5 51.5t53.5 88.5t39 131z" />
    <glyph glyph-name="afii10078" unicode="&#x43c;" horiz-adv-x="1523" 
d="M777 194l461 948h301l-176 -1142h-184l154 987l-481 -987h-208l-178 987l-152 -987h-186l176 1142h303z" />
    <glyph glyph-name="afii10079" unicode="&#x43d;" horiz-adv-x="1264" 
d="M304 1141h213l-71 -463h548l72 463h214l-176 -1141h-213l83 537h-549l-83 -537h-214z" />
    <glyph glyph-name="afii10080" unicode="&#x43e;" horiz-adv-x="1153" 
d="M152 429q0 84 14.5 171.5t45.5 168.5t78.5 152.5t113 125t150 84t188.5 30.5q118 0 197.5 -36.5t127.5 -98t69 -142t22 -168.5q1 -100 -17.5 -193t-54 -174.5t-87.5 -149.5t-117.5 -116.5t-144.5 -75.5t-169 -27q-95 0 -171.5 30.5t-130.5 88.5t-83.5 141.5t-30.5 188.5z
M592 136q68 0 121.5 25.5t93.5 68.5t68.5 100t46 120t25.5 128.5t8 125.5q0 64 -12.5 119t-40 95t-72.5 63t-110 23q-70 0 -124.5 -27.5t-95 -73t-68.5 -104.5t-45 -122.5t-24.5 -127t-7.5 -116.5q0 -63 12.5 -117.5t40.5 -94t73 -62.5t111 -23z" />
    <glyph glyph-name="afii10081" unicode="&#x43f;" horiz-adv-x="1253" 
d="M288 1141h981l-159 -1141h-213l142 993h-554l-143 -993h-214z" />
    <glyph glyph-name="afii10082" unicode="&#x440;" horiz-adv-x="1214" 
d="M1220 714q0 -87 -14 -175t-43 -169.5t-73 -152.5t-103 -123.5t-133.5 -83t-165.5 -30.5q-45 0 -87 13t-78 36.5t-65 54.5t-48 67l-84 -601l-212 -17l226 1608h160l9 -184q35 43 76.5 80.5t86.5 65t91.5 43t91.5 15.5q82 0 149 -25.5t115 -79.5t74.5 -139t26.5 -203z
M1012 679q3 75 -8 139q-16 96 -60 141t-116 45q-75 0 -157.5 -35.5t-160.5 -107.5l-80 -573q20 -31 52 -58.5t69 -48.5t76 -33t72 -12q62 0 109.5 26t82 69t57.5 99t37 116.5t20 121t7 111.5z" />
    <glyph glyph-name="afii10083" unicode="&#x441;" horiz-adv-x="973" 
d="M153 424q0 168 48 304t128.5 232.5t186 148.5t219.5 52q103 0 184 -29t153 -87l-78 -152q-16 20 -44 40t-62 35.5t-72 25.5t-75 10q-78 0 -137.5 -30t-103 -81.5t-72 -120.5t-44.5 -146q-12 -52 -17.5 -102t-5.5 -95q-1 -148 58.5 -220.5t170.5 -72.5q57 0 111 16t99 40
q24 13 47 29l46 33l28 -149q-94 -62 -185 -93t-193 -32q-83 1 -154.5 27.5t-124 80.5t-82.5 137.5t-29 198.5z" />
    <glyph glyph-name="afii10084" unicode="&#x442;" horiz-adv-x="1844" 
d="M1497 1161q141 0 208 -87t66 -242q0 -7 -0.5 -17.5t-4 -38.5l-10 -80.5t-19 -142.5l-31 -225l-45.5 -328h-208l47.5 333l32 228t19 144l10 81t4 38t0.5 16q0 45 -9.5 76t-27 50.5t-42 28.5t-53.5 9q-72 0 -149.5 -39t-165.5 -120l-119 -845h-208l39 277.5l29.5 212
l21.5 157t15 113.5q2 19 3.5 32t2 21.5t1 14.5t0.5 11q0 84 -28.5 124.5t-98.5 40.5q-63 0 -139 -40.5t-164 -125.5l-119 -838h-209l161 1141h153l10 -190q33 46 74 85t88 66.5t98.5 43t106.5 15.5q59 0 104 -15t77.5 -42.5t52.5 -66.5t29 -86q36 48 81.5 87t97 66t107 42
t111.5 15z" />
    <glyph glyph-name="afii10085" unicode="&#x443;" horiz-adv-x="1020" 
d="M64 -309q63 11 108.5 30.5t83.5 53.5q54 38 96 99t73 142l-11.5 56t-11.5 55l-225 1014h199l180 -863l377 863h208l-500 -1080l-69 -146t-85 -142.5t-109 -122t-140 -84.5q-31 -12 -65 -19.5t-71 -11.5z" />
    <glyph glyph-name="afii10086" unicode="&#x444;" horiz-adv-x="1302" 
d="M769 215q133 9 215 97q30 31 52.5 71.5t38 85.5t23.5 93.5t9 96.5q2 78 -22 132q-23 72 -79 107t-134 40zM685 938q-87 -8 -148 -45.5t-103 -98.5q-38 -58 -58.5 -136t-22.5 -159q-2 -65 13 -113q21 -85 79.5 -127t145.5 -44zM738 1237h177l-23 -161l42.5 -4t40.5 -7
q64 -12 118.5 -38.5t96.5 -66t70.5 -92.5t39.5 -119q3 -21 5 -42t2 -43q-3 -126 -42.5 -226.5t-105 -174t-151 -118.5t-180.5 -60q-19 -4 -39.5 -6.5t-42.5 -3.5l-25 -187h-182l29 187q-21 1 -41.5 4t-40.5 7q-63 11 -118.5 36.5t-98 64.5t-71 92t-38.5 119q-5 20 -6.5 41.5
t-1.5 44.5q1 26 2.5 52t6.5 51q17 105 60 188.5t105.5 144t140.5 97.5t164 50q42 7 84 9z" />
    <glyph glyph-name="afii10087" unicode="&#x445;" horiz-adv-x="999" 
d="M576 435l-305 -435h-222l445 571l-283 570h227l174 -423l305 423h221l-444 -570l270 -571h-216z" />
    <glyph glyph-name="afii10088" unicode="&#x446;" 
d="M495 1141q-2 -13 -8 -58l-15 -109l-19 -140.5l-20.5 -153.5l-20 -147.5l-16.5 -122.5l-5 -42.5t-2 -21.5q-1 -63 15 -105q16 -52 54 -78t95 -27q81 1 155.5 37t149.5 105l122 863h208l-147 -1045h129l-44 -326h-220l32 230h-62q-3 45 -6.5 87t-5.5 87q-79 -94 -166 -144
t-184 -50q-336 0 -336 334q0 14 7 71.5l17 136.5l17 127l17.5 130.5l16.5 124.5l14.5 108.5t11.5 82.5t7 46h209z" />
    <glyph glyph-name="afii10089" unicode="&#x447;" horiz-adv-x="1161" 
d="M900 563q-62 -60 -111.5 -99t-94.5 -61t-89 -30.5t-95 -8.5q-149 0 -230 78.5t-81 243.5q0 7 2.5 31t7 57.5l10 74.5l11.5 82l15 102l17 113h177l-16.5 -107.5l-14.5 -96.5l-11.5 -77.5l-10 -71t-7 -55.5t-2.5 -30q0 -106 42 -153.5t130 -47.5q55 0 109.5 15.5t103 38.5
t88.5 50.5t66 50.5l77 484h175l-181 -1146h-176z" />
    <glyph glyph-name="afii10090" unicode="&#x448;" horiz-adv-x="1714" 
d="M483 -20q-132 0 -193.5 74.5t-60.5 226.5q0 8 1 19.5t4.5 41t10.5 83.5l20 147l32.5 231.5l47.5 337.5h201l-49 -337.5l-33 -231l-20 -146l-10.5 -82t-4 -38.5t-0.5 -17q0 -76 25.5 -114t90.5 -38q85 0 166.5 59.5t145.5 192.5l4 28l105 724h198l-43.5 -304.5l-31.5 -223
l-22 -157l-15 -107.5q-4 -27 -4.5 -39.5t-0.5 -22.5q0 -76 25.5 -113t89.5 -37q41 0 85 17t87 50t83.5 81t75.5 110q2 8 2.5 16t2.5 16l102 714h200l-163 -1142h-150l-9 234q-31 -62 -73 -109.5t-90.5 -79.5t-101 -48t-104.5 -16q-121 0 -182.5 63t-69.5 199
q-31 -74 -75 -124t-94 -81t-103 -44t-102 -13z" />
    <glyph glyph-name="afii10091" unicode="&#x449;" horiz-adv-x="1800" 
d="M483 -20q-132 0 -193.5 74.5t-60.5 226.5q0 8 1 19.5t4.5 41t10.5 83.5l20 147l32.5 231.5l47.5 337.5h201l-49 -337.5l-33 -231l-20 -146l-10.5 -82t-4 -38.5t-0.5 -17q0 -76 25.5 -114t90.5 -38q85 0 166.5 59.5t145.5 192.5l4 28l105 724h198l-44 -305l-31 -222.5
l-22 -157l-15 -107.5q-4 -27 -4.5 -39.5t-0.5 -22.5q0 -76 25.5 -113t89.5 -37q41 0 85 17t87 50t83.5 81t75.5 110q2 8 2.5 16t2.5 16l102 714h200l-148 -1033l2 2h125l-69 -464h-191l53 353h-85l-9 234q-31 -62 -73 -109.5t-90.5 -79.5t-101 -48t-104.5 -16
q-121 0 -182.5 63t-69.5 199q-31 -74 -75 -124t-94 -81t-103 -44t-102 -13z" />
    <glyph glyph-name="afii10092" unicode="&#x44a;" horiz-adv-x="1232" 
d="M278 0l139 992h-310l20 149h526l-51 -360q100 0 183 -6q109 -8 193.5 -27.5t142.5 -55.5t88.5 -91.5t32.5 -135.5q1 -103 -24 -178t-72 -127t-113.5 -84t-148 -49t-176 -22.5t-197.5 -4.5h-233zM513 147q84 0 145 2.5t106 7.5q89 10 149 46q59 35 88.5 100t28.5 175
q0 66 -44 100t-144 48q-45 7 -107.5 10t-153.5 3z" />
    <glyph glyph-name="afii10093" unicode="&#x44b;" horiz-adv-x="1615" 
d="M1264 0l161 1141h206l-159 -1141h-208zM128 0l160 1141h215l-49 -359q51 0 95.5 -1t86.5 -5q109 -8 193.5 -27t142.5 -55t88.5 -92t31.5 -137q1 -103 -24 -178t-71.5 -127t-113 -84t-148 -49t-176.5 -22.5t-198 -4.5h-233zM364 147q114 0 209 10t164 44t107 99.5
t37 177.5q-1 65 -44.5 99.5t-142.5 48.5q-45 7 -108 10t-154 3z" />
    <glyph glyph-name="afii10094" unicode="&#x44c;" horiz-adv-x="1081" 
d="M128 0l160 1141h215l-51 -360q49 0 93.5 -2t84.5 -6q107 -10 192.5 -32.5t145 -60.5t91.5 -95t33 -136q2 -135 -53 -222.5t-153 -138.5t-233 -70.5t-292 -17.5h-233zM363 147q113 0 208 14.5t164 49.5t107.5 93t38.5 144q-1 72 -46.5 113t-145.5 60q-45 9 -107.5 13.5
t-150.5 4.5z" />
    <glyph glyph-name="afii10095" unicode="&#x44d;" horiz-adv-x="1035" 
d="M458 -20q-20 0 -38 1t-36 5q-78 9 -143.5 37.5t-128.5 79.5l78 150q20 -22 47.5 -43.5t61 -39t74 -28t85.5 -10.5q65 0 122.5 27.5t103 77.5t77 120t45.5 155h-351l20 132h351q2 20 3 39t1 37q-1 72 -13.5 126t-41 90t-74.5 54t-113 18q-36 0 -76 -10t-79.5 -26.5
t-76 -38t-65.5 -45.5l-31 150q103 65 196.5 94t194.5 29q87 0 158.5 -31.5t122.5 -89t79 -138.5t29 -181q0 -155 -41 -290t-117 -235t-183.5 -158t-240.5 -58z" />
    <glyph glyph-name="afii10096" unicode="&#x44e;" horiz-adv-x="1612" 
d="M1180 1162q115 0 197.5 -36t135 -97.5t77.5 -144.5t26 -177q1 -9 0 -19q-3 -164 -49.5 -295t-125 -223.5t-183.5 -142t-226 -49.5q-206 0 -318 109.5t-117 327.5q0 23 1 48t3 51h-189l-71 -514h-213l160 1138h212l-69 -485h191q25 112 75.5 205.5t122 161t162.5 105
t198 37.5zM1046 130q88 0 150 38t105 101q27 40 47 90.5t33 105.5t20 112t8 111q1 51 -8 103q-17 102 -76 159t-164 57q-78 0 -137.5 -34t-102.5 -97q-29 -41 -51 -93.5t-37 -112.5t-22.5 -124t-6.5 -127q4 -138 63 -213.5t179 -75.5z" />
    <glyph glyph-name="afii10097" unicode="&#x44f;" horiz-adv-x="1165" 
d="M433 738q-2 -11 -0.5 -27.5t3.5 -27.5q6 -37 26.5 -67t58.5 -51.5t96.5 -33t139.5 -11.5h112l72 477q-67 0 -130 -2t-119 -10.5t-103 -25.5t-81.5 -45.5t-54 -71.5t-20.5 -104zM1163 1035l-160 -1035h-215l62 393h-179l-299 -393h-240l348 418q-61 12 -110 39t-84 64
t-54 81.5t-19 91.5q-2 150 62 242.5t185 138.5q109 43 267 56.5t366 13.5z" />
    <glyph glyph-name="uni0450" unicode="&#x450;" horiz-adv-x="1068" 
d="M394 665q129 13 217.5 25t146 23.5t89 22t46 20t17 18t2.5 15.5q0 109 -47.5 164.5t-132.5 55.5q-64 0 -119 -24t-98.5 -68.5t-74 -108.5t-46.5 -143zM948 95q-88 -57 -186 -86t-186 -29q-103 0 -182 30t-133 86t-81.5 137t-27.5 183q0 88 17 177.5t50.5 172t82.5 155
t113 126t143 84.5t172 31q186 0 272.5 -99t86.5 -286q0 -19 -4 -41t-25 -44.5t-65 -45t-123.5 -42.5t-200.5 -37t-296 -29q-5 -35 -8 -67t-3 -60q0 -140 68 -209t188 -69q78 0 149.5 31.5t143.5 85.5zM760 1267h-106l-231 643h297z" />
    <glyph glyph-name="afii10071" unicode="&#x451;" horiz-adv-x="1068" 
d="M394 665q129 13 217.5 25t146 23.5t89 22t46 20t17 18t2.5 15.5q0 109 -47.5 164.5t-132.5 55.5q-64 0 -119 -24t-98.5 -68.5t-74 -108.5t-46.5 -143zM948 95q-88 -57 -186 -86t-186 -29q-103 0 -182 30t-133 86t-81.5 137t-27.5 183q0 88 17 177.5t50.5 172t82.5 155
t113 126t143 84.5t172 31q186 0 272.5 -99t86.5 -286q0 -19 -4 -41t-25 -44.5t-65 -45t-123.5 -42.5t-200.5 -37t-296 -29q-5 -35 -8 -67t-3 -60q0 -140 68 -209t188 -69q78 0 149.5 31.5t143.5 85.5zM601 1404q-1 -32 -14 -60.5t-33 -50.5t-46 -35t-53 -13q-24 0 -45 9
t-36 25t-23.5 37.5t-8.5 47.5q0 32 12 61.5t33 52.5t48 36.5t57 13.5q48 0 78 -33t31 -84v-7zM1064 1402q-1 -31 -14 -59.5t-33 -50.5t-46 -35t-53 -13q-49 0 -80 34t-32 85q0 31 12.5 61t33 52.5t47.5 36.5t56 14q48 0 78 -34t31 -84v-7z" />
    <glyph glyph-name="afii10099" unicode="&#x452;" horiz-adv-x="1181" 
d="M1162 813q-1 -17 -2.5 -35t-4.5 -44l-7.5 -62.5l-11.5 -90l-16.5 -126.5l-22.5 -172q-20 -145 -71 -258t-123.5 -194.5t-163 -131.5t-189.5 -69l-20 150l88 47t78.5 52.5t67 68.5t53.5 95q26 54 44.5 125t31.5 168l27 192l18.5 126t11 80.5t4.5 55.5q0 32 -3 57.5
t-11 46.5q-26 110 -149 110q-53 0 -103.5 -15.5t-94 -38t-76.5 -47.5t-51 -44l-122 -859h-208l188 1332h-142l15 107h142l22 148l214 44l-28 -192h430l-15 -107h-430l-50 -357q47 47 89.5 82t86 58t90 34.5t101.5 11.5q158 0 237 -78.5t79 -243.5q0 -11 -3 -26z" />
    <glyph glyph-name="afii10100" unicode="&#x453;" horiz-adv-x="967" 
d="M552 1241h-149l188 639h276zM978 901q0 -77 -23 -134.5t-65 -101t-100.5 -74.5t-130.5 -56l-162 -58q-49 -17 -82 -34.5t-53.5 -39t-29 -48t-8.5 -61.5q0 -81 52 -119t158 -38q35 0 80.5 11.5t89 28t79.5 34.5t52 31l40 -143q-25 -18 -64 -39t-90.5 -38.5t-114.5 -29.5
t-135 -12q-71 0 -133 19.5t-108 57t-72.5 93.5t-26.5 129q0 84 28 145.5t76.5 107.5t113.5 79.5t139 61.5l155 58q43 16 72 31t46 32.5t24 37.5t7 47q0 66 -49 95t-136 29q-43 0 -85.5 -8t-82.5 -22t-75.5 -33t-63.5 -41l-40 147q27 19 70 39.5t93.5 37t104.5 27.5t103 11
q76 0 139.5 -16.5t109.5 -49.5t72 -81.5t26 -112.5z" />
    <glyph glyph-name="afii10101" unicode="&#x454;" horiz-adv-x="1053" 
d="M736 1161q20 0 38.5 -1t36.5 -5q78 -10 143.5 -38.5t128.5 -79.5l-78 -149q-20 22 -46 43.5t-57.5 38.5t-67 27.5t-74.5 10.5q-150 0 -238.5 -91.5t-129.5 -269.5h352l-22 -133h-353q-3 -26 -4 -51t-1 -48q1 -134 50.5 -206t152.5 -75q22 -2 44 0t45 5q68 12 134.5 43.5
t113.5 69.5l30 -150q-103 -65 -197 -94t-194 -29q-88 0 -159.5 30t-122.5 86.5t-79.5 136.5t-29.5 180q-1 103 18 198.5t54.5 179t87.5 151.5t117.5 117t142.5 76t164 27z" />
    <glyph glyph-name="afii10102" unicode="&#x455;" horiz-adv-x="956" 
d="M207 846q-1 76 29.5 135t84.5 99t127.5 60.5t159.5 20.5q52 0 102 -10.5t96 -27t87.5 -37t75.5 -41.5l-73 -136q-23 13 -55 29.5t-70 30.5t-80 24t-84 10q-100 0 -158.5 -33.5t-58.5 -98.5q0 -27 6 -46.5t19.5 -34.5t36 -27.5t54.5 -25.5l140 -57q51 -21 99 -47t85.5 -61
t60.5 -80t23 -104q1 -96 -34 -172t-95 -128.5t-139 -80t-166 -27.5q-72 0 -130 11t-103.5 28t-80 38.5t-59.5 42.5l80 144q19 -15 49 -33.5t67.5 -35t81 -27.5t88.5 -11q54 0 99.5 13.5t78.5 40.5t51 67t18 94q0 23 -7 41.5t-22.5 34t-41.5 30t-63 29.5l-146 62
q-58 24 -101.5 51t-73 62t-44 79.5t-14.5 104.5z" />
    <glyph glyph-name="afii10103" unicode="&#x456;" horiz-adv-x="599" 
d="M615 1495q0 -6 -1 -7q-1 -31 -12 -58.5t-29.5 -47.5t-43 -32t-52.5 -12q-48 0 -75 31.5t-27 77.5q0 30 11 57.5t30 49t44 34.5t54 13q45 0 72.5 -30t28.5 -76zM386 0h-203l159 1141h204z" />
    <glyph glyph-name="afii10104" unicode="&#x457;" horiz-adv-x="599" 
d="M386 0h-203l159 1140h204zM364 1472q-1 -31 -12 -58t-29 -47.5t-43 -32t-53 -11.5q-48 0 -75.5 31.5t-27.5 76.5q-1 30 10 57.5t30 49.5t44.5 35t53.5 13q45 0 73 -30.5t29 -75.5v-8zM858 1472q-1 -31 -12 -58t-29.5 -47.5t-43 -32t-52.5 -11.5q-48 0 -75.5 31.5
t-28.5 76.5q0 30 11 58t29.5 49.5t43.5 34.5t54 13q45 0 73.5 -30.5t29.5 -75.5v-8z" />
    <glyph glyph-name="afii10105" unicode="&#x458;" horiz-adv-x="580" 
d="M613 1488q-1 -31 -12 -58.5t-29.5 -47.5t-43 -32t-52.5 -12q-48 0 -75.5 31.5t-27.5 77.5q0 30 11 57.5t30 49t44 34.5t54 13q45 0 73 -30t29 -76q0 -6 -1 -7zM-14 -225q58 37 97.5 77t65.5 88.5t42 109t27 138.5l131 953h209l-134 -975q-14 -105 -49.5 -194.5
t-88 -158.5t-119.5 -116t-144 -66z" />
    <glyph glyph-name="afii10106" unicode="&#x459;" horiz-adv-x="1869" 
d="M915 0l139 992h-440l-37 -218.5l-35 -218.5q-23 -137 -57 -243t-96 -179t-159.5 -111t-246.5 -38l24 177q70 3 121.5 18t88.5 49t61 90t38 141l56.5 341l55.5 341h861l-50 -360q117 0 207 -12q80 -8 150 -23t125 -41.5t91.5 -66t50.5 -96.5q8 -32 11.5 -65t1.5 -66
q-6 -125 -64 -205t-155 -126t-227.5 -63.5t-281.5 -16.5h-233zM1193 147q114 0 202.5 15t149 51t92 95.5t31.5 149.5q-1 72 -56 111t-155 55q-87 15 -239 15l-59 -426q14 -17 21.5 -33t12.5 -33z" />
    <glyph glyph-name="afii10107" unicode="&#x45a;" horiz-adv-x="1822" 
d="M289 1141h214l-65 -463h527l65 463h215l-50 -360q158 0 268 -15.5t185 -50.5q75 -34 115.5 -84t54.5 -119q5 -23 6 -46t0 -48q-3 -78 -26.5 -139t-66 -107.5t-102.5 -78.5t-136 -52q-84 -23 -190 -32t-236 -9h-198l75 538h-525l-76 -538h-215zM1614 426q2 8 1.5 21.5
t-2.5 21.5q-5 33 -21 60t-47 47.5t-78.5 34.5t-114.5 21q-42 3 -86.5 5t-93.5 2l-68 -491q17 0 34.5 0.5t34.5 0.5q37 2 76 3.5t68 6.5q67 9 121 27t92.5 49t60 77.5t23.5 113.5z" />
    <glyph glyph-name="afii10108" unicode="&#x45b;" horiz-adv-x="1214" 
d="M560 1457h587l-20 -143h-587l-45 -322q24 26 48 47.5l47 40.5q36 28 69.5 47t67.5 30.5t69.5 16.5t75.5 5q75 0 135 -19.5t102 -59t65 -99.5t24 -141q1 -15 -4.5 -63t-14.5 -117l-17.5 -133.5l-18.5 -141.5t-18.5 -138t-16.5 -121.5t-12.5 -93l-7.5 -52.5h-217l8.5 61
l15 111l19.5 142.5l21.5 155l20 149l16.5 124.5q4 25 5.5 41.5t2.5 21.5q2 111 -37.5 163.5t-124.5 52.5q-57 0 -109 -15.5t-96 -38t-78.5 -48t-55.5 -44.5l-123 -876h-218l185 1314h-157l19 143h158l22 149l223 44z" />
    <glyph glyph-name="afii10109" unicode="&#x45c;" horiz-adv-x="1085" 
d="M646 1228h-149l188 639h276zM128 0l160 1141h208l-71 -494h113l437 494h249l-357 -384l-50.5 -52.5t-66.5 -61t-75.5 -50.5t-76.5 -22q16 -3 38 -12t44.5 -22.5t43.5 -30.5t36 -36l34 -46l35 -51l239 -373h-245l-222 372l-88 130h-108l-69 -502h-208z" />
    <glyph glyph-name="uni045D" unicode="&#x45d;" 
d="M840 1289l-99 -20l-219 593l278 69zM495 1141q-2 -13 -8 -55.5l-15 -103.5l-19 -135l-20.5 -149l-20 -146l-16.5 -126l-5 -49t-2 -31q-1 -63 15 -105q16 -52 54 -78t95 -27q81 1 155.5 37t149.5 105l122 863h208l-160 -1141h-152q-3 45 -6.5 87t-5.5 87
q-79 -94 -166 -144t-184 -50q-336 0 -336 334q0 16 2.5 42.5t6.5 59.5q6 57 15 129.5t19.5 149l21 151l19.5 136l15.5 104.5t8.5 55h209z" />
    <glyph glyph-name="afii10110" unicode="&#x45e;" horiz-adv-x="1020" 
d="M940 1472q-2 -9 -3.5 -17.5t-4.5 -17.5q-25 -109 -97.5 -167.5t-201.5 -58.5q-120 0 -174.5 51t-55.5 147q-1 14 0.5 30t3.5 33h134q-3 -17 -3 -30q-1 -22 5.5 -38.5t17.5 -29.5q24 -45 92 -45q64 0 104 36.5t51 106.5h132zM64 -309q63 11 108.5 30.5t83.5 53.5
q54 38 96 99t73 142l-11.5 56t-11.5 55l-225 1014h199l180 -863l377 863h208l-500 -1080l-69 -146t-85 -142.5t-109 -122t-140 -84.5q-31 -12 -65 -19.5t-71 -11.5z" />
    <glyph glyph-name="afii10193" unicode="&#x45f;" horiz-adv-x="1226" 
d="M179 232l6.5 61t9 77l13.5 108l20.5 154.5l30 216l41.5 292.5h215l-38 -273l-27 -197l-18.5 -135.5t-12 -89t-7 -58.5l-4.5 -43q-2 -99 31.5 -149.5t97.5 -61.5q94 0 183.5 32t183.5 92l124 883h214l-160 -1141h-160l-30 135q-120 -138 -240 -174l-24 -162.5l-23 -162.5
h-202l51 354q-229 32 -275 242z" />
    <glyph glyph-name="Wgrave" unicode="&#x1e80;" horiz-adv-x="1977" 
d="M953 1583h299l71 -1395l463 1398h205l-551 -1586h-289l-58 1406l-493 -1406h-300l-23 1586h195l14 -1401zM1303 1763h-106l-231 643h297z" />
    <glyph glyph-name="wgrave" unicode="&#x1e81;" horiz-adv-x="1416" 
d="M884 0l-48 931l-327 -931h-214l-114 1140h183l73 -942l321 942h196l63 -941l339 941h187l-441 -1140h-218zM1031 1328h-106l-231 643h297z" />
    <glyph glyph-name="Wacute" unicode="&#x1e82;" horiz-adv-x="1977" 
d="M953 1583h299l71 -1395l463 1398h205l-551 -1586h-289l-58 1406l-493 -1406h-300l-23 1586h195l14 -1401zM1375 1743h-149l188 639h276z" />
    <glyph glyph-name="wacute" unicode="&#x1e83;" horiz-adv-x="1416" 
d="M884 0l-48 931l-327 -931h-214l-114 1140h183l73 -942l321 942h196l63 -941l339 941h187l-441 -1140h-218zM1103 1308h-149l188 639h276z" />
    <glyph glyph-name="Wdieresis" unicode="&#x1e84;" horiz-adv-x="1977" 
d="M953 1583h299l71 -1395l463 1398h205l-551 -1586h-289l-58 1406l-493 -1406h-300l-23 1586h195l14 -1401zM1032 1903q-1 -32 -14 -60.5t-33 -50.5t-46 -35t-53 -13q-24 0 -45 9t-36 25t-23.5 37.5t-8.5 47.5q0 32 12 61.5t33 52.5t48 36.5t57 13.5q48 0 78 -33t31 -84v-7
zM1495 1901q-1 -31 -14 -59.5t-33 -50.5t-46 -35t-53 -13q-49 0 -80 34t-32 85q0 31 12.5 61t33 52.5t47.5 36.5t56 14q48 0 78 -34t31 -84v-7z" />
    <glyph glyph-name="wdieresis" unicode="&#x1e85;" horiz-adv-x="1416" 
d="M884 0l-48 931l-327 -931h-214l-114 1140h183l73 -942l321 942h196l63 -941l339 941h187l-441 -1140h-218zM760 1468q-1 -32 -14 -60.5t-33 -50.5t-46 -35t-53 -13q-24 0 -45 9t-36 25t-23.5 37.5t-8.5 47.5q0 32 12 61.5t33 52.5t48 36.5t57 13.5q48 0 78 -33t31 -84v-7
zM1223 1466q-1 -31 -14 -59.5t-33 -50.5t-46 -35t-53 -13q-49 0 -80 34t-32 85q0 31 12.5 61t33 52.5t47.5 36.5t56 14q48 0 78 -34t31 -84v-7z" />
    <glyph glyph-name="uni1EBC" unicode="&#x1ebc;" horiz-adv-x="1109" 
d="M1053 0h-927l223 1586h914l-25 -166h-698l-72 -513h614l-20 -143h-615l-85 -599h717zM991 1712q-52 0 -101 20t-93.5 44l-81.5 44t-65 20q-14 0 -26.5 -3.5t-22.5 -14t-16 -30.5t-7 -54h-158q2 67 20 117t48.5 83t72 49t90.5 16q52 0 96 -19.5t83 -43.5t74.5 -43.5
t70.5 -19.5q17 0 30 3.5t22 14t14 29.5t6 49h159q-2 -71 -19.5 -120.5t-46.5 -80.5t-67.5 -45.5t-81.5 -14.5z" />
    <glyph glyph-name="uni1EBD" unicode="&#x1ebd;" horiz-adv-x="1046" 
d="M394 665q129 13 217.5 25t146 23.5t89 22t46 20t17 18t2.5 15.5q0 109 -47.5 164.5t-132.5 55.5q-64 0 -119 -24t-98.5 -68.5t-74 -108.5t-46.5 -143zM948 95q-88 -57 -186 -86t-186 -29q-103 0 -182 30t-133 86t-81.5 137t-27.5 183q0 88 17 177.5t50.5 172t82.5 155
t113 126t143 84.5t172 31q186 0 272.5 -99t86.5 -286q0 -19 -4 -41t-25 -44.5t-65 -45t-123.5 -42.5t-200.5 -37t-296 -29q-5 -35 -8 -67t-3 -60q0 -140 68 -209t188 -69q78 0 149.5 31.5t143.5 85.5zM913 1288q-52 0 -101 20t-93.5 44l-81.5 44t-65 20q-14 0 -26.5 -3.5
t-22.5 -14t-16 -30.5t-7 -54h-158q2 67 20 117t48.5 83t72 49t90.5 16q52 0 96 -19.5t83 -43.5t74.5 -43.5t70.5 -19.5q17 0 30 3.5t22 14t14 29.5t6 49h159q-2 -71 -19.5 -120.5t-46.5 -80.5t-67.5 -45.5t-81.5 -14.5z" />
    <glyph glyph-name="Ygrave" unicode="&#x1ef2;" horiz-adv-x="1158" 
d="M657 713l491 869h219l-632 -1086l-69 -496h-211l72 519l-318 1063h204zM949 1708h-106l-231 643h297z" />
    <glyph glyph-name="ygrave" unicode="&#x1ef3;" horiz-adv-x="1029" 
d="M64 -309q35 7 65.5 15t56.5 20q84 35 144.5 114.5t108.5 193.5l-25 111l-228 996h198l175 -863l382 863h208l-507 -1080l-70.5 -146t-85.5 -142.5t-109 -122t-140 -84.5q-31 -11 -65 -19t-72 -12zM775 1328h-106l-231 643h297z" />
    <glyph glyph-name="uni1EF8" unicode="&#x1ef8;" horiz-adv-x="1142" 
d="M657 713l491 869h219l-632 -1086l-69 -496h-211l72 519l-318 1063h204zM1137 1706q-52 0 -101 20t-93.5 44l-81.5 44t-65 20q-14 0 -26.5 -3.5t-22.5 -14t-16 -30.5t-7 -54h-158q2 67 20 117t48.5 83t72 49t90.5 16q52 0 96 -19.5t83 -43.5t74.5 -43.5t70.5 -19.5
q17 0 30 3.5t22 14t14 29.5t6 49h159q-2 -71 -19.5 -120.5t-46.5 -80.5t-67.5 -45.5t-81.5 -14.5z" />
    <glyph glyph-name="uni2010" unicode="&#x2010;" horiz-adv-x="874" 
d="M762 533h-611l19 154h612z" />
    <glyph glyph-name="uni2011" unicode="&#x2011;" horiz-adv-x="874" 
d="M762 533h-611l19 154h612z" />
    <glyph glyph-name="endash" unicode="&#x2013;" horiz-adv-x="1029" 
d="M151 533l-2 154h787l2 -154h-787z" />
    <glyph glyph-name="emdash" unicode="&#x2014;" horiz-adv-x="2057" 
d="M151 533l-2 154h1816l2 -154h-1816z" />
    <glyph glyph-name="quoteleft" unicode="&#x2018;" horiz-adv-x="671" 
d="M509 1371l-26 -326h-300l27 324q5 63 27 108.5t57 78.5t80.5 54.5t98.5 36.5l46 -101q-66 -30 -102.5 -70.5t-44.5 -104.5h137z" />
    <glyph glyph-name="quoteright" unicode="&#x2019;" horiz-adv-x="752" 
d="M188 1265l30 326h300l-30 -324q-6 -63 -28.5 -109t-57.5 -78.5t-81 -54t-99 -36.5l-46 101q60 20 99 64.5t50 110.5h-137z" />
    <glyph glyph-name="quotesinglbase" unicode="&#x201a;" horiz-adv-x="532" 
d="M85 0l45 326h299l-44 -324q-6 -63 -29 -109t-58 -78.5t-80.5 -54t-97.5 -36.5l-47 100q60 20 99.5 65t49.5 111h-137z" />
    <glyph glyph-name="quotedblleft" unicode="&#x201c;" horiz-adv-x="949" 
d="M628 1371l-27 -326h-299l26 324q5 63 27 108.5t57 78.5t80.5 54.5t98.5 36.5l46 -101q-66 -30 -102.5 -70.5t-44.5 -104.5h138zM777 1371l-26 -326h-300l26 324q5 63 27 108.5t57.5 78.5t81 54.5t97.5 36.5l47 -101q-67 -30 -103 -70.5t-44 -104.5h137z" />
    <glyph glyph-name="quotedblright" unicode="&#x201d;" horiz-adv-x="883" 
d="M461 1265l30 326h299l-30 -324q-6 -63 -28 -109t-57 -78.5t-81 -54t-100 -36.5l-46 101q60 20 99.5 64.5t50.5 110.5h-137zM311 1265l30 326h300l-30 -324q-6 -63 -28.5 -109t-57.5 -78.5t-81 -54t-100 -36.5l-46 101q60 20 99.5 64.5t50.5 110.5h-137z" />
    <glyph glyph-name="quotedblbase" unicode="&#x201e;" horiz-adv-x="915" 
d="M354 1l45 325h299l-44 -323q-6 -63 -29 -109t-58 -79t-80.5 -54.5t-97.5 -36.5l-47 101q58 20 98.5 65t50.5 111h-137zM204 1l45 325h299l-44 -323q-6 -63 -29 -109t-58 -79t-80.5 -54.5t-97.5 -36.5l-46 101q58 20 98.5 65t50.5 111h-138z" />
    <glyph glyph-name="dagger" unicode="&#x2020;" horiz-adv-x="548" 
d="M288 1081h-293l30 171h287l41 294h200l-41 -296h307l-30 -169h-300l-148 -1081h-202z" />
    <glyph glyph-name="daggerdbl" unicode="&#x2021;" horiz-adv-x="548" 
d="M206 485h-302l30 171h295l59 425h-293l30 171h287l41 294h200l-41 -296h307l-30 -169h-300l-58 -427h296l-30 -169h-289l-33.5 -242.5l-33.5 -242.5h-202z" />
    <glyph glyph-name="bullet" unicode="&#x2022;" horiz-adv-x="1195" 
d="M315 642q0 36 11 77q12 64 46 122t84 101.5t111.5 69t129.5 25.5q63 0 117 -22.5t93 -61.5t61.5 -93t23.5 -117q1 -77 -30 -147.5t-84 -125.5t-123 -87.5t-147 -32.5q-63 0 -116.5 22t-92.5 61t-61.5 92.5t-22.5 116.5z" />
    <glyph glyph-name="ellipsis" unicode="&#x2026;" horiz-adv-x="1409" 
d="M375 40q-54 -18 -117.5 -30.5t-132.5 -12.5q-11 29 -17 66t-3 82q11 78 30 148q115 15 235 15q11 -28 17 -66t3 -83q-5 -30 -8 -59.5t-7 -59.5zM826 40q-54 -18 -117.5 -30.5t-132.5 -12.5q-11 29 -17 66t-3 82q5 38 12.5 75.5t18.5 72.5q114 15 235 15q11 -28 16.5 -66
t2.5 -83zM1284 40q-54 -18 -117.5 -30.5t-132.5 -12.5q-11 29 -17 66t-2 82q4 38 11.5 75.5t17.5 72.5q115 15 236 15q11 -28 16.5 -66t2.5 -83q-5 -30 -8 -59.5t-7 -59.5z" />
    <glyph glyph-name="perthousand" unicode="&#x2030;" horiz-adv-x="1707" 
 />
    <glyph glyph-name="guilsinglleft" unicode="&#x2039;" horiz-adv-x="984" 
d="M836 861l-469 -281l397 -285l-30 -231l-558 413l25 199l665 413z" />
    <glyph glyph-name="guilsinglright" unicode="&#x203a;" horiz-adv-x="988" 
d="M298 856l29 233l555 -413l-24 -194l-668 -413l32 239l446 277z" />
    <glyph glyph-name="Euro" unicode="&#x20ac;" horiz-adv-x="1165" 
d="M823 710l-20 -138h-335q0 -4 -1 -20t-2.5 -37t-2 -42.5t0.5 -36.5q3 -84 23 -143t52 -95.5t73 -53.5t86 -17q65 0 119 12t93.5 27t63 28.5t27.5 16.5l37 -147q-7 -6 -32.5 -22.5t-70 -34.5t-108 -31.5t-145.5 -13.5q-84 0 -157.5 30t-129 91.5t-89 153.5t-37.5 217
q0 10 0.5 24.5t2.5 28.5l3 32q-1 8 -1 16v17h-156l20 138h145q5 26 9.5 54l9.5 59h-170l20 139h190q26 118 78 214.5t126 164.5t169.5 105t209.5 37q63 0 116.5 -10.5t94 -23.5t64.5 -25t28 -15l-69 -155l-14 8q-15 8 -44.5 18.5t-72.5 20t-100 12.5q-41 3 -83 -3
q-106 -18 -185.5 -105.5t-121.5 -242.5h374l-20 -139h-387l-10 -55.5l-10 -57.5h339z" />
    <glyph glyph-name="afii61352" unicode="&#x2116;" horiz-adv-x="2855" 
d="M2272 133q90 0 153.5 39t108.5 105q29 43 51 97.5t36 113t20.5 118.5t5.5 115q0 64 -12.5 118.5t-41 95t-74 63.5t-111.5 23q-63 0 -114 -22t-91 -60q-45 -42 -78 -103t-54 -130.5t-31 -141.5t-9 -135t13.5 -117t40.5 -93.5t73.5 -62.5t113.5 -23zM2432 1179
q119 0 200 -36.5t131 -97.5t72.5 -141t24.5 -167v-20q-3 -166 -50.5 -302t-129.5 -233.5t-193 -151t-240 -53.5q-97 0 -175.5 30.5t-134 88t-86.5 141t-32 188.5q-1 63 6.5 124.5t24.5 122.5q26 109 76 202t123 160.5t169 106t214 38.5zM1086 0l-549 1356l-191 -1356h-216
l224 1586h302l546 -1353l191 1353h215l-223 -1586h-299z" />
    <glyph glyph-name="trademark" unicode="&#x2122;" horiz-adv-x="1696" 
d="M697 1349h-198l-93 -692h-135l93 692h-198l15 109h530zM1008 657l-27 183l-62 464l-89 -647h-127l81 597l29 204h212l43 -329t41 -330l38 99l147 368l77 192h212l-38 -292l-70 -509h-126l88 647l-223 -545l-42 -102h-164z" />
    <glyph glyph-name="uniFB02" unicode="&#xfb02;" horiz-adv-x="1253" 
d="M866 1594q88 0 170 -14t148 -31l74.5 -20.5t70.5 -23.5l-218 -1505h-200l201 1406q-21 6 -43.5 11.5t-45.5 10.5q-40 8 -90.5 15.5t-101.5 7.5q-57 0 -99 -19t-71.5 -57t-48.5 -96.5t-31 -136.5h291l-12 -97h-293l-143 -1045h-200l143 1045h-152l11 97h154
q15 95 48.5 177.5t91 143.5t142.5 96t204 35z" />
    <glyph glyph-name="uniFB04" unicode="&#xfb04;" horiz-adv-x="1934" 
d="M758 1424q-29 0 -54.5 -11.5t-47.5 -43t-40 -86.5t-31 -142h346l-13 -97h-347l-149 -1044h-200l148 1044h-152l12 97h154q26 139 63 227t85 138t106 69t127 19q36 0 68 -11.5t57 -25.5t41.5 -26.5t22.5 -14.5l-64 -153q-3 1 -13.5 10.5t-27.5 20.5t-40 20.5t-51 9.5z
M1546 1594q88 0 170 -14t148 -31l74.5 -20.5t70.5 -23.5l-218 -1505h-200l201 1406q-21 6 -43.5 11.5t-45.5 10.5q-40 8 -90.5 15.5t-101.5 7.5q-57 0 -99 -19t-71.5 -57t-48.5 -96.5t-31 -136.5h291l-12 -97h-293l-143 -1045h-200l143 1045h-152l11 97h154
q15 95 48.5 177.5t91 143.5t142.5 96t204 35z" />
    <glyph glyph-name="Aasciitilde" horiz-adv-x="1299" 
d="M877 1403l-163 -362l-245 -538h531l-75 529zM757 1586h288l244 -1586h-215l-55 387h-600l-175 -387h-218zM1143 1710q-47 0 -94 20t-89 44l-76 44t-55 20q-35 0 -50.5 -28.5t-22.5 -88.5h-158q36 279 233 279q51 0 93 -20t78.5 -44.5t70 -44.5t68.5 -20q34 0 48 27.5
t22 81.5h160q-36 -270 -228 -270z" />
    <glyph glyph-name="Easciitilde" horiz-adv-x="1085" 
d="M1053 0h-927l223 1586h914l-25 -166h-698l-72 -513h614l-20 -143h-615l-85 -599h717zM1068 1710q-47 0 -94 20t-89 44l-76 44t-55 20q-35 0 -50.5 -28.5t-22.5 -88.5h-158q36 279 233 279q51 0 93 -20t78.5 -44.5t70 -44.5t68.5 -20q34 0 48 27.5t22 81.5h160
q-36 -270 -228 -270z" />
    <glyph glyph-name="Iasciitilde" horiz-adv-x="848" 
d="M142 122h184l193 1335h-183l20 129h580l-20 -129h-186l-193 -1335h186l-20 -122h-579zM879 1710q-47 0 -94 20t-89 44l-76 44t-55 20q-35 0 -50.5 -28.5t-22.5 -88.5h-158q36 279 233 279q51 0 93 -20t78.5 -44.5t70 -44.5t68.5 -20q34 0 48 27.5t22 81.5h160
q-36 -270 -228 -270z" />
    <glyph glyph-name="commaaccent" horiz-adv-x="466" 
d="M67 -473l46 326h298l-44 -324q-6 -63 -29 -109t-58 -78.5t-81 -54t-98 -36.5l-46 100q58 20 99 65t50 111h-137z" />
    <glyph glyph-name="uni021B" horiz-adv-x="751" 
d="M505 136q34 0 70 13t66 29q36 19 68 42l67 -121q-1 0 -27.5 -18t-70 -39.5t-99.5 -39.5t-116 -18q-50 0 -90.5 16t-70.5 46.5t-47 75t-20 101.5q-2 11 -1.5 24.5t2.5 37.5q1 36 12 104l94 655h-147l13 97h150l58 407l205 56l-66 -463h258l-15 -97h-256l-110 -787
q-8 -58 14.5 -89.5t58.5 -31.5z" />
    <glyph glyph-name="uni021A" horiz-adv-x="1007" 
d="M1227 1420h-418l-199 -1420h-213l199 1420h-420l24 166h1050z" />
    <glyph glyph-name="ngrave" horiz-adv-x="1168" 
d="M831 0l40 283.5l29.5 207.5l20.5 146.5t13 101.5q3 26 3.5 39t0.5 23q0 47 -8 84.5t-26 64t-48.5 40.5t-75.5 14q-39 0 -86 -16t-92.5 -39.5t-84 -49.5t-59.5 -46l-120 -853h-210l162 1141h153l8 -176q31 36 77.5 71t100.5 62.5t111 45t109 17.5q301 0 301 -317
q0 -11 -0.5 -21t-2 -23.5l-3.5 -31.5l-5 -43l-14.5 -113.5l-20.5 -152l-28 -200.5l-37 -259h-208zM814 1315h-106l-231 643h297z" />
    <glyph glyph-name="Euni0306" horiz-adv-x="1109" 
d="M1053 0h-927l223 1586h914l-25 -166h-698l-72 -513h614l-20 -143h-615l-85 -599h717zM1125 1911q-2 -9 -3.5 -17.5t-4.5 -17.5q-25 -109 -97.5 -167.5t-201.5 -58.5q-120 0 -174.5 51t-55.5 147q-1 14 0.5 30t3.5 33h134q-3 -17 -3 -30q-1 -22 5.5 -38.5t17.5 -29.5
q24 -45 92 -45q64 0 104 36.5t51 106.5h132z" />
    <glyph glyph-name="Iuni0306" horiz-adv-x="860" 
d="M142 122h184l193 1335h-183l20 129h580l-20 -129h-186l-193 -1335h186l-20 -122h-579zM1112 1911q-2 -9 -3.5 -17.5t-4.5 -17.5q-25 -109 -97.5 -167.5t-201.5 -58.5q-120 0 -174.5 51t-55.5 147q-1 14 0.5 30t3.5 33h134q-3 -17 -3 -30q-1 -22 5.5 -38.5t17.5 -29.5
q24 -45 92 -45q64 0 104 36.5t51 106.5h132z" />
    <glyph glyph-name="macron" horiz-adv-x="874" 
d="M792 115h-672l24 169h671z" />
    </font>
</defs>
</svg>
